<?xml version="1.0" encoding="UTF-8"?>
<!DOCTYPE svg PUBLIC "-//W3C//DTD SVG 1.1//EN" "http://www.w3.org/Graphics/SVG/1.1/DTD/svg11.dtd">
<!-- Creator: CorelDRAW X6 -->
<svg xmlns="http://www.w3.org/2000/svg" xml:space="preserve" width="5.55555in" height="5.55555in" version="1.1" style="shape-rendering:geometricPrecision; text-rendering:geometricPrecision; image-rendering:optimizeQuality; fill-rule:evenodd; clip-rule:evenodd"
viewBox="0 0 5144 5144"
 xmlns:xlink="http://www.w3.org/1999/xlink">
 <defs>
  <style type="text/css">
   <![CDATA[
    .fil11 {fill:black}
    .fil14 {fill:#13050A}
    .fil0 {fill:#251516}
    .fil7 {fill:#471715}
    .fil2 {fill:#581B24}
    .fil4 {fill:#6B1B1B}
    .fil15 {fill:#841617}
    .fil6 {fill:#882626}
    .fil17 {fill:#96662F}
    .fil1 {fill:#982934}
    .fil12 {fill:#A92125}
    .fil5 {fill:#B83637}
    .fil3 {fill:#D82628}
    .fil10 {fill:#D93638}
    .fil8 {fill:#E64649}
    .fil9 {fill:#E65B62}
    .fil16 {fill:#F38688}
    .fil13 {fill:#F39420}
   ]]>
  </style>
 </defs>
 <g id="Layer_x0020_1">
  <metadata id="CorelCorpID_0Corel-Layer"/>
  <rect class="fil0" width="5144" height="5144"/>
  <g id="_690156208">
   <path class="fil1" d="M3595 3549l106 -3c27,-4 -16,-6 41,-7l28 63c-41,39 -14,5 -24,41 57,-11 63,4 73,-48l-100 -98c100,4 44,12 124,35 -1,-114 -39,-84 -137,-93l28 33c-54,46 -45,24 -158,29 11,40 -8,29 19,48z"/>
   <path class="fil1" d="M3369 2834c8,-13 30,18 10,-27 -13,-29 6,-5 -23,-16 -16,36 -19,25 13,43z"/>
  </g>
  <g id="_690155568">
   <path class="fil2" d="M2971 3306l-18 18c-24,18 -5,5 -26,16l27 8c234,-13 133,-34 194,48 13,17 40,29 55,37 74,40 92,55 88,-42 -27,-22 -105,-57 -141,-72 -82,-35 -88,-27 -179,-13z"/>
   <path class="fil2" d="M3498 3563l10 23 58 -7c-20,-13 -7,-17 -13,-30l42 0c-27,-19 -8,-8 -19,-48 113,-5 104,17 158,-29l-28 -33c-82,8 -143,17 -202,46 0,27 27,79 -6,78z"/>
   <path class="fil2" d="M1477 2377c-2,-76 7,-74 -73,-72 11,51 20,58 73,72z"/>
  </g>
  <g id="_690157072">
   <path class="fil3" d="M4062 4484l-36 94c-12,30 -1,8 -20,28l0 66 4 65c42,-16 26,-6 79,1 15,-17 17,15 19,-37 13,65 -13,17 40,44 2,64 -5,162 2,220 11,90 14,1 22,77 7,52 2,56 14,102l90 0 -27 -173c-9,-35 -43,-273 -18,-341 3,-8 6,4 13,-39l-9 -145 -33 12c-37,27 -3,8 -49,25l-32 15c-56,20 -21,-15 -55,30l-4 -44z"/>
   <path class="fil3" d="M1419 5100l18 44 55 0c7,-121 21,-225 116,-293 24,46 -21,93 -30,107 -64,93 20,50 -50,186l218 0c-9,-75 -17,-76 -35,-131 -54,-170 -24,29 -74,-192 -9,-49 -13,-29 -18,-61 -28,-11 -23,-8 -53,-17 -8,41 -32,146 -61,169 -20,-40 9,-116 17,-174 -24,17 -26,-13 -50,79 -36,142 -88,114 -53,283z"/>
   <path class="fil3" d="M95 5144l39 0c15,-55 56,-174 81,-210 81,-118 234,-156 360,-205 53,-21 113,-102 146,-151 -14,-206 -64,-137 -110,-275 -14,-39 -38,-121 -38,-162 1,-91 49,-84 35,-146l-42 -3 -50 7 44 39c-15,42 -37,10 -26,153 4,54 41,90 16,143 -2,15 10,15 21,32 34,51 14,39 86,93l8 106c-13,12 10,33 -41,6 -7,56 -8,70 -76,107l-75 28c-95,23 -18,-8 -94,45 -41,29 -17,-2 -70,35 -71,49 -51,20 -93,71 -72,88 -53,69 -73,132l-48 155z"/>
   <path class="fil3" d="M4596 2472l2 25c12,79 -25,147 -10,256 75,-1 25,-2 80,-35l50 30c61,-28 39,-22 81,-60 -91,-88 -16,1 -15,-155 17,-8 27,-9 28,-10 14,-8 37,-17 46,-59l-24 -48 -89 -9c-48,42 -81,86 -149,65z"/>
   <path class="fil3" d="M4788 4058l143 -110 5 -43c-95,-62 -22,-108 -100,-139 -3,82 0,48 22,97l11 51c-49,-9 -38,14 -96,-86 -23,-40 -59,-73 -88,-86l18 -89 -41 23c-54,6 14,100 20,118 -30,43 -61,65 -48,141 50,30 27,-14 71,43 22,28 23,46 40,79l43 1z"/>
   <path class="fil3" d="M1105 4514c-12,-189 -12,-121 117,-155 85,89 51,5 131,153 24,44 71,71 81,102 -78,16 -117,0 -188,-20 -67,-20 -77,-43 -141,-80zm-41 101c19,0 14,4 8,-15 -13,-89 -4,-21 21,-47 57,13 36,13 72,42l53 26c2,1 7,3 9,4 2,1 7,3 10,4 23,30 89,16 126,20 57,5 88,19 138,29 -12,-70 -70,-164 -110,-218 -111,-154 -113,-68 -159,-140l-125 -32c11,31 -30,19 22,28 -65,-2 -24,-9 -45,21 -8,11 -16,42 -18,61 -17,123 -78,132 5,180l-7 37z"/>
   <path class="fil3" d="M1497 3468c19,-40 57,-92 47,-149 -8,-45 -27,-35 -27,-78 1,-34 23,-52 32,-75l10 -40c-41,-8 -71,-26 -101,-55l-64 -35 -53 -9c12,53 74,124 121,162 -3,27 0,45 -2,65 -5,60 -73,87 -7,333 30,-30 -2,-55 44,-119z"/>
   <path class="fil3" d="M2677 4862l-49 -4 -66 29c-22,4 -51,7 -74,9 5,44 9,63 13,107 5,61 6,56 32,86l52 -41c31,9 41,35 120,-10 25,-14 13,-7 30,-23l4 -88c-32,-18 -43,-35 -62,-65z"/>
   <path class="fil3" d="M1038 4864l15 72c-21,13 -4,1 -23,18l-110 14c-24,47 -22,110 -23,176l32 0c-3,-96 -23,-138 85,-139 -1,30 4,15 -3,34 -27,70 -20,3 -57,79 140,-24 92,2 136,-20l20 -12 9 -9c28,-116 -13,-159 13,-247l-45 12 -49 22z"/>
   <path class="fil3" d="M805 4051l-5 27c64,4 52,15 83,31l88 -32 -88 -21c11,-15 5,-23 54,-37 26,-7 56,-8 84,-8l24 27 -5 -39c-58,-33 14,-64 -90,-77 -37,56 -63,44 -136,55 2,56 10,35 -9,74z"/>
   <path class="fil3" d="M1213 5038c4,-3 9,-13 11,-10 21,31 0,-12 39,-39 10,-7 45,-20 57,-27 4,-64 9,-65 -11,-114 -23,-54 -12,-62 -36,-94 -30,19 -12,-11 -35,47 -18,48 -25,181 -25,237z"/>
  </g>
  <g id="_690160304">
   <path class="fil4" d="M1453 2514c38,50 13,6 19,84 37,29 32,12 43,51 -39,21 -63,0 -91,-26 -1,-74 20,-79 23,-99 1,-6 4,-7 6,-10zm-80 6l51 -4 -29 161 -75 4c41,-61 14,-47 38,-109 -31,-17 -25,-1 -65,-26l21 -12c85,-33 -63,16 23,-6 17,-5 6,6 36,-8zm0 0l-113 -9c19,174 47,203 53,242 6,32 -3,32 9,66 21,59 131,104 170,177l-101 16 3 24 64 35c75,19 69,38 107,15 -46,-31 -24,1 -45,-51 43,-56 37,-9 71,-51l-115 -36c-32,-187 41,-68 141,-128 -153,-5 -98,4 -119,-29l57 -22c14,-1 49,0 65,0 110,-2 84,2 97,26l-7 -48c-45,-1 -119,19 -204,-10 -1,-4 -3,-9 -3,-12 -2,-70 10,-27 61,-90l-73 -50c20,-55 27,-9 33,-102 3,-51 14,-66 13,-119 -72,83 35,47 -140,139 -14,7 -19,13 -24,17z"/>
   <path class="fil4" d="M831 3615c-22,14 -9,3 -26,18 -2,2 -19,21 -19,21 -15,18 -18,22 -28,49 6,28 -33,40 40,48 86,8 -18,0 58,-16 -8,62 -27,-5 -36,95l52 -30 114 -65c3,-1 7,-1 10,-3l32 -18 -50 14 32 -92c16,-40 6,-41 24,-80 5,-11 30,-46 43,-63l42 -68 0 68c22,-25 18,-26 19,-71 0,-39 -11,-41 7,-70 33,68 37,259 28,344 -62,11 -146,69 -171,123l164 -32 -20 45c23,-9 118,-59 131,-77 -7,-6 39,-53 -97,10 -43,20 -61,24 -113,29 36,-100 41,-34 128,-116 -8,-73 -23,-60 14,-159 1,-2 2,-6 3,-8l9 -17c0,-5 3,-6 6,-9l-46 -90c20,-54 34,-19 27,-100 -63,-1 -16,-7 -46,14 -4,3 -27,24 -28,25 -38,39 -17,39 -36,65 -18,22 -36,21 -66,51 -94,95 -182,235 -262,267l61 -102z"/>
   <path class="fil4" d="M2032 2907l30 51 -41 63c27,34 12,16 26,26l25 14c-27,31 -24,-9 -22,57 2,61 66,59 -30,149 -31,28 -41,46 -1,73 68,-24 75,-174 99,-206 19,-26 36,-14 62,-52 -50,9 -18,10 -45,-8 16,-45 19,-15 96,-95 36,-38 12,3 38,-47 -19,-35 -21,-39 -57,-53 -2,3 -5,4 -5,9l-30 48c-2,2 -4,5 -5,7 -34,46 -17,32 -56,45 12,-50 149,-154 16,-222 -34,-18 -6,-9 -53,-18 -1,64 13,52 14,95 0,17 -12,58 -14,86l-47 -22z"/>
   <path class="fil4" d="M3533 2543c-34,-34 -37,-51 -94,-34 -10,3 -21,18 -26,12 -2,-4 -8,4 -12,7 -19,-42 -1,-33 -54,-33 -3,30 8,23 16,71l-63 83c-14,42 -5,53 -10,127 58,2 54,11 66,-41 46,-6 42,-1 67,-22 -31,-23 -41,-27 -66,-53 138,-24 162,77 227,-62 -28,-41 -12,-27 -51,-55z"/>
   <path class="fil4" d="M2189 3078l53 -10c-5,84 -19,50 -38,101 -12,32 -14,83 -12,129l41 -9c23,-17 27,0 27,-40 4,-31 -1,-118 32,-122 30,-3 28,38 74,61 10,-23 32,-81 45,-98 -21,-60 -61,-94 -125,-109 -44,69 -48,42 -97,97z"/>
   <path class="fil4" d="M3319 4316c-15,14 1,10 -28,15 -25,4 -18,-1 -31,-4 -42,-7 -11,-19 -65,-3 -92,19 -62,0 -50,79 -29,10 -36,20 -61,34 1,3 2,5 3,10 0,5 2,8 3,10l10 21c1,2 4,7 7,10 -40,25 -17,4 -37,31l35 -1c41,-8 127,-72 167,-102 95,-69 122,-56 155,-118l-108 18z"/>
   <path class="fil4" d="M1789 3807c54,-25 46,-9 86,-39 -28,-31 -22,-16 -64,-34 9,-46 2,-15 11,-36 0,-1 14,-27 17,-33 -108,13 -135,-29 -249,34 0,119 -73,63 -21,141 55,-17 38,-26 64,-70 206,-20 52,-42 170,-29l-14 66z"/>
   <path class="fil4" d="M202 4120l99 -13c2,-62 -32,-67 -27,-156l71 -16c3,-55 -15,-66 -27,-126l-62 -15 6 -55 -20 25c-43,61 9,224 11,296 -39,18 -40,13 -51,60z"/>
   <path class="fil4" d="M1191 3147l21 78c33,-1 22,-16 69,-29 23,-6 26,-3 44,-7l36 -13c-27,-40 -51,-37 -78,-90 17,-53 19,-20 37,-76l44 6c-16,-18 0,-8 -31,-29l-93 -39 -6 214c-8,-3 -37,-13 -43,-15z"/>
   <path class="fil4" d="M3684 4741l-31 4c18,34 -10,16 34,32l-9 84c42,20 27,-3 58,33 26,-45 47,-5 105,-60l23 -24c1,-5 4,-6 7,-9 -56,-12 -11,27 -52,-28 -17,8 -9,6 -24,15 -22,13 11,-1 -33,18 0,-45 6,-42 -19,-68 39,-17 12,1 22,-28l-81 31z"/>
   <path class="fil4" d="M1821 3087l-33 75 0 48c56,35 42,36 74,-4l62 -55c8,-59 11,-92 -34,-117 -7,7 -26,-12 -21,91 4,84 -1,54 -43,77 3,-119 45,-92 -5,-115z"/>
   <path class="fil4" d="M1931 2596l37 -4 34 131c44,-32 54,-81 51,-138 -31,-21 -26,-10 -48,-50 -26,4 -11,-57 -9,-73 -42,0 -16,65 -11,103 -85,12 -34,2 -54,31z"/>
   <path class="fil4" d="M1267 2263l44 5c-7,-143 34,-119 68,-215 -65,18 -84,21 -102,72 -15,43 -18,85 -10,138z"/>
   <path class="fil4" d="M1725 3331c36,-23 6,20 40,-37 13,-24 11,-29 17,-53 -28,-27 5,-8 -40,-12l-20 27 -40 -44 10 29c-3,2 -8,-1 -10,4 -12,34 -6,-17 -45,34l20 35c74,-38 -29,-40 85,-39l-17 56z"/>
  </g>
  <g id="_690165968">
   <path class="fil5" d="M2954 3348l1 57 -69 16c0,-98 3,-28 -22,-56 -17,74 -4,50 -65,76l90 383c34,69 40,13 39,124 -29,18 -17,4 -43,29 -33,31 -38,46 -25,80 1,2 3,6 4,8 1,3 4,6 5,9 43,100 88,119 203,197 18,12 24,16 49,24 38,12 33,-1 74,29 54,-16 23,-4 65,3 13,3 6,8 31,4 29,-5 13,-1 28,-15 -33,-6 -188,-35 -206,-44l-141 -167c9,-90 -9,-44 -11,-83 -4,-77 37,8 37,-74 0,-51 -10,-28 -16,-37 -36,-56 -9,-14 -47,-123 -60,-170 -19,-20 -53,-110 -22,-60 -45,-131 -30,-209 99,-36 77,-29 106,-10 -21,4 -1,-7 -3,31 63,-36 7,-102 153,-66 72,17 65,34 73,42 -43,19 -12,4 -31,32l39 -23c38,50 54,64 108,42 -34,127 -144,261 -86,343l33 -24c79,-61 89,25 202,16 13,17 7,2 8,31l21 -8c-13,-57 -2,-34 -66,-45 -35,-6 -40,-13 -72,-22 5,-44 15,-74 20,-111 6,-43 -11,-60 -11,-96 1,-98 48,-73 0,-209 -30,5 -11,12 -55,-1 4,97 -14,82 -88,42 -15,-8 -42,-20 -55,-37 -61,-82 40,-61 -194,-48z"/>
   <path class="fil5" d="M4681 3230c-11,-177 41,-199 71,-347 -55,-13 -18,-33 -62,75l-45 14c-2,1 -7,2 -11,4 -20,57 -26,190 -26,263l73 -9z"/>
   <path class="fil5" d="M2580 2564c7,-34 -28,-9 17,-31l6 -67c-72,12 -76,45 -81,117 55,-14 20,1 58,-19z"/>
   <path class="fil5" d="M3640 2654c15,9 28,17 52,23 1,-33 -5,-57 -12,-72l-38 5 -2 44z"/>
  </g>
  <g id="_690166896">
   <path class="fil6" d="M1889 2760l8 172c-26,89 -44,94 -76,155 50,23 8,-4 5,115 42,-23 47,7 43,-77 -5,-103 14,-84 21,-91 45,25 42,58 34,117l-62 55c59,-15 16,-8 29,9 -19,58 -17,20 3,84 -38,-13 -28,-11 -39,-7 8,27 17,53 28,73 19,36 19,34 54,59 65,44 19,16 55,62 2,3 5,6 7,8 26,28 24,2 47,53 17,-28 8,-19 37,-27l59 58c116,-55 122,30 151,-42 1,-4 8,-37 8,-40 0,-50 -33,-67 -33,-67 -35,-42 -42,-92 -35,-140l-41 9c-2,-46 0,-97 12,-129 19,-51 33,-17 38,-101l-53 10 -9 4c-26,38 -43,26 -62,52 -24,32 -31,182 -99,206 -40,-27 -30,-45 1,-73 96,-90 32,-88 30,-149 -2,-66 -5,-26 22,-57l-25 -14c-14,-10 1,8 -26,-26l41 -63 -30 -51c10,-56 -57,-138 -90,-183 -32,17 -15,-13 -34,48 3,-25 4,0 -19,-12z"/>
   <path class="fil6" d="M4658 3413l23 19c3,2 6,6 8,8l16 19c-77,53 -207,48 -261,124 72,-2 125,-33 188,-59 39,-16 46,-10 87,-28 40,-17 28,-27 89,15l-78 51c1,63 8,69 24,124 -60,-40 -39,-67 -49,-136 -48,-7 -83,14 -116,38 19,12 29,10 46,19 70,34 28,-14 40,55l33 -13c10,60 -9,63 52,41 8,-55 5,-17 -13,-85l20 -3c-4,-8 -18,-2 -27,-40 47,-29 22,-21 63,-16 42,4 41,11 84,11 5,-40 16,-47 32,-69 25,-22 -27,-59 -36,-65 -26,-18 -53,-28 -90,-35 41,79 95,4 101,135 -94,-5 -88,-43 -123,-85 -87,0 -42,-14 -113,-25z"/>
   <path class="fil6" d="M3767 4116c-6,-63 -17,-85 -16,-168 1,-99 22,-89 42,-171 -38,17 -24,-27 -33,23 -36,33 -33,72 -49,119 -25,78 -58,15 -71,106 75,41 14,-55 88,64 18,30 7,22 39,27z"/>
   <path class="fil6" d="M3729 2631l78 73c60,-30 2,2 32,-36l11 -14c2,-2 5,-4 7,-6l-16 -79 -64 -9 23 80c-69,-26 -66,-66 -71,-9z"/>
   <path class="fil6" d="M2965 2679c21,0 19,10 56,-16 86,-62 108,-25 116,-101 -115,16 -150,44 -172,117z"/>
  </g>
  <g id="_690101168">
   <path class="fil7" d="M3875 2552c5,12 6,19 13,29 18,27 -3,3 24,23l-5 -41 79 -5c18,351 94,120 0,318 -69,145 -2,-39 -21,83 -5,41 19,13 -43,41 -17,-26 -14,43 -16,-52l-50 9 6 -38c-11,4 -31,3 -42,13 28,64 -37,26 64,50 -2,0 -1,-2 -19,22 -13,18 4,1 -21,29l-102 -18 56 44c34,13 29,6 69,5 25,98 80,44 74,109 4,-3 8,-6 12,-8 3,-2 8,-5 12,-8 66,-42 25,-4 78,-89 -1,-4 -2,-8 -3,-11l-5 -21c0,0 -5,-31 -5,-32 -5,-39 -5,-18 0,-59l-35 -39c10,-23 54,-71 17,-40 90,-11 71,-23 78,-114 33,33 31,26 39,91 10,82 -2,203 -10,282 -27,20 32,19 -38,16 23,32 12,6 23,50 -60,39 -77,146 -79,217 -23,30 -42,38 -70,60l-58 69c-2,-3 -6,7 -10,10l-2 -61 -14 9c11,52 -20,140 -42,170l-2 52c-20,24 -34,31 -34,60 -20,82 -41,72 -42,171 -1,83 10,105 16,168 47,0 80,13 134,4 159,-26 207,-116 395,-37l55 26c84,37 19,14 134,125 42,40 69,30 82,166 0,2 -1,24 0,27 1,6 7,24 11,33 7,16 90,194 122,223 6,-51 -36,-242 -63,-279 -25,-36 -23,-5 -42,-62 -29,-84 -32,-84 -89,-130 -50,-41 -53,-62 -102,-104 -54,-48 -86,-39 -151,-66 -74,-30 -86,-57 -169,-24 -38,16 -57,17 -92,29 -21,8 -36,29 -58,41 -46,27 -114,3 -146,-24 -67,-111 121,-441 194,-517 116,-121 44,-58 80,-104 2,-2 11,-9 13,-11 39,-38 15,-104 48,-202 78,-231 65,-118 39,-547l-52 -21c1,-117 -65,-120 -119,-157 -37,-26 4,-10 -43,-39 -19,24 -29,-41 -13,52l-67 7 7 27z"/>
   <path class="fil7" d="M324 3434c-8,152 -21,166 61,296l57 209c29,89 -5,40 59,60 21,-62 6,-35 1,-91l-16 -307 125 -226c31,-53 14,-53 83,-70 -35,192 -36,381 -64,553 2,13 10,0 28,64l64 -16c-2,-9 -8,-38 -8,-40 0,-3 5,-33 6,-37 15,50 -14,6 39,50l60 -42c50,-27 25,3 53,-37l-52 30c9,-100 28,-33 36,-95 -76,16 28,24 -58,16 -73,-8 -34,-20 -40,-48l-36 7c-22,13 -17,-7 -25,15 -6,-44 5,-158 29,-195 28,-41 0,-6 39,-32 0,-40 8,-61 18,-90 -22,5 -12,12 -17,-11 -4,3 -21,14 -28,19l-21 10c0,-26 -2,-73 7,-98 19,-60 11,-39 76,-48l-17 69c26,-27 33,-16 22,-78 -60,-22 -63,-4 -124,-6 -56,-1 -38,-16 -107,-15l0 21 37 -1 -97 202c-40,43 -111,128 -115,201 4,-28 -34,-71 -37,-105 -1,-8 11,-107 11,-147 -43,12 -31,-5 -49,13z"/>
   <path class="fil7" d="M1226 1981c28,62 -9,27 98,35 60,4 -14,8 65,16 -28,0 0,-4 -13,26 107,-7 189,2 296,-7 103,-9 169,24 259,56 -14,-56 15,-23 -85,-84 -52,-32 -75,-13 -66,-74 35,9 35,16 76,26 -16,-58 -17,-23 -23,-78 -63,0 -65,-6 -98,15 -11,7 -3,4 -22,15 -24,-23 -20,-24 -56,-36l-35 39c-55,-16 -95,-27 -144,-39 15,28 19,28 25,62 -83,3 -21,-28 -82,-6 -3,1 -9,4 -11,5 -3,1 -8,3 -12,4 -27,-28 -101,-62 -158,-44 48,26 65,3 114,47l-128 22z"/>
   <path class="fil7" d="M1232 4320c46,72 48,-14 159,140 40,54 98,148 110,218 -50,-10 -81,-24 -138,-29 -37,-4 -103,10 -126,-20l-34 9 11 56c-30,77 -5,25 8,48 59,-12 41,-21 77,-30 9,23 4,32 14,58 23,59 25,-15 28,130 2,99 10,71 22,88 51,-43 88,-200 115,-244 26,-43 30,-18 68,-50l-16 -54c-54,-66 -21,-98 -57,-146l-100 -96 20 -41c-124,-83 -6,-35 -151,-94l-82 -39c-4,49 -7,-2 58,62l66 46c3,1 7,4 11,7 -64,-28 -10,-11 -63,-19z"/>
   <path class="fil7" d="M3347 2495c53,0 35,-9 54,33 4,-3 10,-11 12,-7 5,6 16,-9 26,-12 57,-17 60,0 94,34 -19,-29 41,-22 64,-11 49,23 20,12 37,27l-12 65c16,102 -37,-3 18,30l2 -44 38 -5c14,-14 31,12 49,26 5,-57 2,-17 71,9l-23 -80 64 9 -9 -21 -46 -44c-48,13 -32,-4 -59,38l-14 -12c-57,-1 -104,-74 -125,-110l-79 -11 -24 -87c-59,26 -3,-6 -36,31 -26,29 -5,19 -46,33 -8,-44 11,-87 24,-126 65,1 45,16 92,11 9,-1 24,-25 83,5l-30 4c-36,19 -15,-6 -32,35 8,6 -2,59 93,-7l31 -19c-18,-17 -20,-14 -36,-26 -22,-17 -18,-17 -40,-36 -109,8 -100,-31 -175,30 -31,25 -38,16 -78,58 33,42 20,-4 29,64l-30 23c-39,25 1,-19 -24,16 28,10 62,1 57,38l-20 39z"/>
   <path class="fil7" d="M1721 4136c17,15 -4,2 24,19 16,9 -21,-9 18,8 72,31 171,15 135,147 -18,63 -21,32 -56,44 -52,18 -8,5 -90,85 -69,67 -71,221 -118,259l-23 26 8 36c5,32 9,12 18,61l41 -14c12,-127 32,-269 107,-372l80 -85c77,6 263,53 281,-16l-50 0c-47,-61 11,-28 -49,-114l-2 104 -127 -2 -2 -119c-47,-38 -60,-27 -92,-51 75,-5 93,16 169,21 77,5 103,3 131,-54 -92,43 -150,47 -247,0 -54,-26 -71,-169 -71,-171 3,-14 30,-25 42,-56l-48 -9c-3,35 -17,46 -9,90 8,45 20,19 23,91 -8,25 -33,-2 -27,87l-66 -15z"/>
   <path class="fil7" d="M1883 2247l1 35c-45,-18 -47,-9 -80,9 -37,21 -56,14 -99,20 7,52 29,106 83,58 14,69 0,7 19,29 -7,-101 -5,-26 19,-53 72,-39 63,41 54,116 35,-34 40,-63 56,-114 49,57 -1,45 19,91 40,-44 -1,-107 83,-158l-13 88c16,-17 13,-1 22,-29 7,-22 10,-27 2,-49 -12,-35 6,-9 -46,-35 -2,-1 -6,-3 -8,-4 -17,-136 -3,-108 -51,-118 16,49 32,82 20,140l-81 -26z"/>
   <path class="fil7" d="M823 4145c76,-3 25,5 43,-20l-85 -48c6,-53 -4,-6 24,-26 19,-39 11,-18 9,-74 73,-11 99,1 136,-55 -22,0 -30,-1 -51,4 -33,8 -78,20 -115,54l-54 -19c-15,86 0,80 31,141l62 43z"/>
   <path class="fil7" d="M1693 2491c38,43 131,15 166,-1 -27,-59 -27,47 -15,-92l-37 0 10 32c-5,2 -9,1 -10,6l-23 18c-34,35 -10,38 -91,37z"/>
  </g>
  <g id="_690101520">
   <path class="fil8" d="M3274 3181c-44,-38 -9,-1 -15,-191 59,7 161,32 228,48 71,18 60,5 127,9 74,5 9,29 104,-2 15,70 22,86 61,129 -45,4 -36,5 -69,18 -4,27 -8,46 -4,74 10,59 14,3 14,39 -1,38 -18,-42 -11,98 59,-49 90,18 97,25 -58,-3 -103,3 -154,0l-8 -25c0,-1 16,-46 -159,-28l-39 -42c-145,10 -155,40 -156,-144l-16 -8zm-312 15c-13,54 -13,70 -33,92l42 18c91,-14 97,-22 179,13 36,15 114,50 141,72 44,13 25,6 55,1 48,136 1,111 0,209 0,36 17,53 11,96 -5,37 -15,67 -20,111 32,9 37,16 72,22 64,11 53,-12 66,45l32 -28c-14,-46 -42,-37 3,-29 -13,-194 1,-144 -76,-153 -4,31 -6,36 2,74 10,46 7,-13 10,32 4,68 3,18 -12,45 -83,-6 -43,-48 -48,-138 -4,-78 -6,-96 9,-174 64,-6 12,-16 46,24 25,30 -4,13 57,35 33,1 6,-51 6,-78 59,-29 120,-38 202,-46 98,9 136,-21 137,93 -80,-23 -24,-31 -124,-35l100 98c37,-22 20,-13 39,-78 16,-60 21,-12 26,-83l-13 61 14 -9c21,-53 29,-104 28,-168 -1,-46 -16,-143 28,-145 6,-65 -49,-11 -74,-109 -40,1 -35,8 -69,-5l-56 -44c-92,-22 -184,20 -343,-35 -13,-4 -33,-9 -45,-14 -58,-22 55,27 -22,-9 -3,-1 -8,-2 -10,-7 -3,-5 -8,-5 -11,-7 -46,13 -68,-3 -122,0 -49,3 -51,13 -99,20 -14,95 -59,170 -128,233z"/>
   <path class="fil8" d="M4113 4410l-36 12 -15 62 4 44c34,-45 -1,-10 55,-30l32 -15c46,-17 12,2 49,-25l33 -12 9 145c-7,43 -10,31 -13,39 -25,68 9,306 18,341l27 173 148 0c-12,-46 -13,-41 -14,-102 -130,-83 -60,-154 -91,-281 -21,-91 -40,-164 14,-250 27,-44 -53,44 25,-23l-12 -108 -63 -12c-130,-10 -93,35 -168,64 -13,-12 -6,8 -2,-22z"/>
   <path class="fil8" d="M947 4266c4,18 9,17 1,42 -11,36 2,15 -25,34l-14 3c-32,34 32,8 -23,26l52 7c-58,20 -34,4 -54,46 41,23 3,11 73,7 -85,57 -68,71 -96,174 75,54 54,28 150,8l-34 81 45 -11 42 -68 7 -37c-83,-48 -22,-57 -5,-180 2,-19 10,-50 18,-61 21,-30 -20,-23 45,-21 -52,-9 -11,3 -22,-28l-2 -83c-3,-3 -7,-7 -9,-9l-28 -29c-25,-16 -8,-5 -35,-8 19,14 13,7 21,33 -41,-14 -22,-16 -68,-29 6,61 19,27 43,92 -60,-21 -30,3 -64,-50l-7 18c-1,2 -2,7 -3,10l-8 33z"/>
   <path class="fil8" d="M3045 4577l-32 27 29 162c40,38 3,-4 20,38 14,32 8,24 24,43 58,-11 48,0 67,-50 6,-16 5,-20 12,-38 11,-24 46,-78 -27,-130 -91,-65 -39,-65 -93,-52z"/>
   <path class="fil8" d="M883 4109c14,36 148,0 194,-32 -15,-24 -17,-29 -30,-51l-2 12 -24 -27c-28,0 -58,1 -84,8 -49,14 -43,22 -54,37l88 21 -88 32z"/>
  </g>
  <g id="_690105104">
   <path class="fil9" d="M4113 4410c-4,30 -11,10 2,22 75,-29 38,-74 168,-64l63 12 12 108c-78,67 2,-21 -25,23 -54,86 -35,159 -14,250 31,127 -39,198 91,281 1,61 2,56 14,102l374 0c-13,-204 -106,-374 -98,-461 -32,-29 -115,-207 -122,-223 -98,-43 -389,-239 -465,-50z"/>
   <path class="fil9" d="M3259 2990c6,190 -29,153 15,191l16 8c1,184 11,154 156,144l39 42c175,-18 159,27 159,28l8 25c51,3 96,-3 154,0 -7,-7 -38,-74 -97,-25 -7,-140 10,-60 11,-98 0,-36 -4,20 -14,-39 -4,-28 0,-47 4,-74 33,-13 24,-14 69,-18 -39,-43 -46,-59 -61,-129 -95,31 -30,7 -104,2 -67,-4 -56,9 -127,-9 -67,-16 -169,-41 -228,-48z"/>
   <path class="fil9" d="M3819 3595c-10,52 -16,37 -73,48 -77,76 -165,94 -227,1 -53,-83 -26,-75 -21,-81 -61,-22 -32,-5 -57,-35 -34,-40 18,-30 -46,-24 -15,78 -13,96 -9,174 5,90 -35,132 48,138 15,-27 16,23 12,-45 -3,-45 0,14 -10,-32 -8,-38 -6,-43 -2,-74 77,9 63,-41 76,153 -45,-8 -17,-17 -3,29l-32 28 -21 8 -59 21 -8 28 97 20 38 -43 100 -3c21,-131 40,-21 147,-173l43 -53c3,-2 7,-5 8,-7 2,-2 6,-5 9,-8 22,-30 53,-118 42,-170l13 -61c-5,71 -10,23 -26,83 -19,65 -2,56 -39,78z"/>
   <path class="fil9" d="M3135 3493l-16 36c89,12 40,13 43,31 0,0 -9,14 -38,19 -71,12 -102,-37 -140,-63l-67 31c14,46 38,124 69,153l21 19c43,49 0,33 79,74 5,58 17,89 41,125l103 -14 -19 -44c-58,-82 52,-216 86,-343 -54,22 -70,8 -108,-42l-39 23 -15 -5z"/>
   <path class="fil9" d="M3684 4741l81 -31c1,-2 9,-21 9,-21 12,-18 8,-12 20,-24 61,0 71,2 94,44 31,16 11,8 47,14 40,-45 2,-37 59,-40l12 -11 0 -66 -36 -6c-8,46 -21,79 -70,55 -5,-36 -6,-19 7,-51l-15 0c22,-47 5,17 21,-52 -51,-36 -40,-39 -95,-51 49,-18 54,-17 104,-6 -21,-43 -184,-35 -189,12l-23 91c-21,89 25,15 -37,109l11 34z"/>
   <path class="fil9" d="M3290 4163l-49 -10c-41,-6 -57,-14 -74,20 -30,59 58,67 119,50 4,-1 25,11 51,-31 -17,-25 0,-21 -47,-29z"/>
  </g>
  <g id="_690104944">
   <path class="fil10" d="M3290 4163c47,8 30,4 47,29 -26,42 -47,30 -51,31 -61,17 -149,9 -119,-50 17,-34 33,-26 74,-20 -87,15 -49,-49 -206,-154 55,-44 66,-21 141,-20 82,1 51,-9 132,19 66,23 53,-13 123,13 52,20 20,25 106,41l-19 59c-34,-20 8,-4 -46,-29 -72,45 -76,91 -182,81zm29 153l108 -18c-33,62 -60,49 -155,118 -40,30 -126,94 -167,102 -18,30 -32,39 -60,59 54,-13 2,-13 93,52 73,52 38,106 27,130 -7,18 -6,22 -12,38 -19,50 -9,39 -67,50 -16,-19 -10,-11 -24,-43 -17,-42 20,0 -20,-38l-4 159c15,13 12,18 39,28l-21 30c18,32 -34,28 43,23 6,-17 52,-98 65,-120 20,-32 19,-30 37,-66 28,-57 2,-1 46,-55 34,-43 50,-83 78,-129 174,-283 207,-157 313,-305 43,-60 184,-119 216,-182 -114,-5 -78,1 -87,-33 -32,-5 -21,3 -39,-27 -74,-119 -13,-23 -88,-64 13,-91 46,-28 71,-106 16,-47 13,-86 49,-119 9,-50 -5,-6 33,-23 0,-29 14,-36 34,-60l2 -52c-3,3 -7,6 -9,8 -1,2 -5,5 -8,7l-43 53c-107,152 -126,42 -147,173l-100 3 -38 43 -97 -20 8 -28c-66,24 -101,19 -165,0l-103 14c-24,-36 -36,-67 -41,-125 -79,-41 -36,-25 -79,-74l-21 -19c-31,-29 -55,-107 -69,-153l67 -31c38,26 69,75 140,63 29,-5 38,-19 38,-19 -3,-18 46,-19 -43,-31l16 -36c-39,6 -7,8 -40,-3 -18,-5 12,-2 -34,-17 -47,22 -34,42 -106,17 2,-38 -18,-27 3,-31 -29,-19 -7,-26 -106,10 -15,78 8,149 30,209 34,90 -7,-60 53,110 38,109 11,67 47,123 6,9 16,-14 16,37 0,82 -41,-3 -37,74 2,39 20,-7 11,83l141 167c18,9 173,38 206,44z"/>
   <path class="fil10" d="M1657 3155l25 57 40 44 20 -27 46 -67 33 -75c32,-61 50,-66 76,-155l3 -64c-37,27 -17,-2 -43,48 -49,91 -138,123 -215,209l15 30z"/>
   <path class="fil10" d="M3746 3643l-46 0 -35 -55c-65,20 -45,27 -99,-9l-58 7 -10 -23c-5,6 -32,-2 21,81 62,93 150,75 227,-1z"/>
  </g>
  <g id="_690105648">
   <path class="fil11" d="M1404 2305c80,-2 71,-4 73,72 -53,-14 -62,-21 -73,-72zm-830 945c69,-1 51,14 107,15 61,2 64,-16 124,6 11,62 4,51 -22,78l-17 48c5,23 -5,16 17,11 41,-30 31,-70 66,-114l15 9c20,10 2,4 26,13 12,4 37,6 53,10l1 48 -69 9c12,51 58,54 -59,172 -31,31 -79,98 -94,155l36 -7c10,-27 13,-31 28,-49 0,0 17,-19 19,-21 17,-15 4,-4 26,-18 30,-91 201,-194 253,-271l-84 -75c-73,-46 -321,-92 -381,-117 -8,-120 236,-398 288,-424l29 -35c46,19 42,21 64,49 94,117 24,96 94,176 29,34 10,-1 29,47 2,3 7,27 12,40 12,30 3,7 25,40 19,30 31,61 31,102 6,2 35,12 43,15l6 -214 93 39c31,21 15,11 31,29l27 -4 101 -16c-39,-73 -149,-118 -170,-177 -12,-34 -3,-34 -9,-66 -6,-39 -34,-68 -53,-242l113 9c5,-4 10,-10 24,-17 175,-92 68,-56 140,-139l38 -14c37,86 17,116 118,141 81,1 57,-2 91,-37l23 -18c1,-5 5,-4 10,-6l-10 -32c-19,-22 -5,40 -19,-29 -54,48 -76,-6 -83,-58 43,-6 62,1 99,-20 33,-18 35,-27 80,-9l-1 -35c-48,-31 -84,7 -128,25 -42,17 -91,17 -141,26 -144,26 -147,-35 -303,-30l-44 -5 -37 -7c-4,-28 -8,-69 -4,-97 7,-42 1,-21 27,-56 -59,5 -9,23 -108,32 14,-59 37,-129 81,-154l128 -22c-49,-44 -66,-21 -114,-47 57,-18 131,16 158,44 4,-1 9,-3 12,-4 2,-1 8,-4 11,-5 61,-22 -1,9 82,6 -6,-34 -10,-34 -25,-62 49,12 89,23 144,39l35 -39c36,12 32,13 56,36 19,-11 11,-8 22,-15 33,-21 35,-15 98,-15 6,55 7,20 23,78 -41,-10 -41,-17 -76,-26 -9,61 14,42 66,74 100,61 71,28 85,84l13 26c48,10 34,-18 51,118 2,1 6,3 8,4 52,26 34,0 46,35 8,22 5,27 -2,49 -9,28 -6,12 -22,29l-29 94c-2,16 -17,77 9,73l42 19c-33,-185 3,-84 20,-241 18,-174 33,-236 -9,-413 -18,-79 14,-73 -102,-166 -32,-26 -66,-40 -115,-27 -38,38 -47,82 -101,124 -80,61 -237,68 -324,-19 -46,-46 -45,-83 -78,-127 -39,-2 -16,-19 -75,53 -19,23 -49,51 -70,72 -66,65 -17,88 -116,158 -1,100 5,136 -42,198 -106,142 -25,235 -125,365 -70,92 -45,15 -80,161 -15,59 -115,173 -187,304l-105 140c-17,21 -27,49 -47,69 -21,21 -46,26 -60,51 73,7 75,4 143,-6z"/>
   <path class="fil11" d="M5053 3884c-27,1 -33,12 -59,30 -35,25 -28,21 -63,34l-143 110c-19,20 -2,7 -29,22l-29 9c48,149 76,101 23,268 -23,73 -70,187 -50,265 6,25 39,105 47,120 40,83 78,300 104,402l290 0 0 -1279c-46,18 -14,1 -44,3 -13,1 -11,0 -26,4 -3,1 -17,10 -21,12z"/>
   <path class="fil11" d="M4596 2472c8,-23 13,-29 31,-42 23,-17 21,-10 48,-32 46,-37 44,-29 122,-31 14,-17 -21,-42 103,-39 98,2 157,20 93,152 56,49 80,109 10,161 -35,-12 -23,-3 -39,-33 -36,18 -91,78 -100,112 52,-7 70,-20 118,-28 -4,87 -18,64 -104,84 -56,13 -47,28 -133,25l7 82c-30,148 -82,170 -71,347 -4,77 -2,56 46,55l41 5c33,26 14,-4 39,66 78,7 35,21 134,70 41,20 110,51 142,63l2 -316c-42,54 -9,51 -57,93 -51,-15 -40,-8 -64,-51 -17,-95 -88,6 -20,-316l106 14 -49 32 60 31c-3,23 -5,30 -13,53 16,12 7,2 24,2 26,-34 28,-994 5,-1021 -17,-15 17,-8 -35,-17 -155,-27 -183,52 -217,80 -35,28 -236,90 -314,162 -66,61 -91,145 -11,208l69 55c15,-74 -7,-7 27,-26z"/>
   <path class="fil11" d="M2219 3909c5,69 -58,172 -95,210 -28,57 -54,59 -131,54 -76,-5 -94,-26 -169,-21 32,24 45,13 92,51l2 119 127 2 2 -104c60,86 2,53 49,114l50 0c25,-36 42,-137 61,-194 30,-84 23,-142 46,-218l-4 -51c-1,1 -14,21 -15,23l-15 15z"/>
  </g>
  <g id="_690109360">
   <path class="fil12" d="M1742 3229c45,4 12,-15 40,12 -6,24 -4,29 -17,53 -34,57 -4,14 -40,37 -25,13 -146,191 -150,250 52,11 315,-31 316,-31l97 5c8,60 -11,46 19,94 140,81 169,52 249,89 8,39 24,95 17,134 -13,78 -8,28 -20,50 -23,76 -16,134 -46,218 -19,57 -36,158 -61,194 -18,69 -204,22 -281,16l-80 85c-75,103 -95,245 -107,372l-41 14c50,221 20,22 74,192 18,55 26,56 35,131l1259 0c11,-55 73,-66 94,-138 -77,5 -25,9 -43,-23l21 -30c-27,-10 -24,-15 -39,-28l4 -159 -29 -162 32 -27 -51 -2c-8,59 19,132 30,198 -75,-27 -247,-73 -297,24l25 16c118,56 20,22 106,109 -28,60 -3,51 -29,93 -67,-12 -22,-88 -152,-153 19,30 30,47 62,65l-4 88c-17,16 -5,9 -30,23 -79,45 -89,19 -120,10l-52 41c-26,-30 -27,-25 -32,-86 -4,-44 -8,-63 -13,-107 23,-2 52,-5 74,-9l66 -29c-63,19 -76,40 -146,17 -23,-61 -3,-96 -43,-163 -29,-48 -9,-32 -26,-78 -18,-50 -26,-18 -46,-77 -8,-32 -66,-89 -83,-120 9,-167 74,-256 75,-450 0,-90 5,-178 6,-271 0,-85 12,-153 48,-216 -13,-36 -10,-9 -16,-60 -4,1 -18,2 -20,1l-24 -23c-20,-42 5,16 -8,-19 -26,-70 -15,-89 -6,-145l-42 -33c-23,42 -6,12 -37,28 0,40 -4,23 -27,40 -7,48 0,98 35,140 0,0 33,17 33,67 0,3 -7,36 -8,40 -29,72 -35,-13 -151,42l-59 -58c-29,8 -20,-1 -37,27 -23,-51 -21,-25 -47,-53 -2,-2 -5,-5 -7,-8 -36,-46 10,-18 -55,-62 -35,-25 -35,-23 -54,-59 -11,-20 -20,-46 -28,-73 11,-4 1,-6 39,7 -20,-64 -22,-26 -3,-84 -13,-17 30,-24 -29,-9 -32,40 -18,39 -74,4l0 -48 -46 67z"/>
   <path class="fil12" d="M831 3615l-61 102c80,-32 168,-172 262,-267 30,-30 48,-29 66,-51 19,-26 -2,-26 36,-65 1,-1 24,-22 28,-25 30,-21 -17,-15 46,-14 7,81 -7,46 -27,100l46 90c-3,3 -6,4 -6,9l-9 17c-1,2 -2,6 -3,8 -37,99 -22,86 -14,159 -87,82 -92,16 -128,116 52,-5 70,-9 113,-29 136,-63 90,-16 97,-10 -13,18 -108,68 -131,77l0 -7c15,40 -5,11 33,41 1,1 6,3 9,5 -51,76 -39,-31 -36,192l8 161 82 39c145,59 27,11 151,94l-20 41 100 96c36,48 3,80 57,146l42 76c56,-3 18,15 62,-18 47,-38 49,-192 118,-259 82,-80 38,-67 90,-85 35,-12 38,19 56,-44 36,-132 -63,-116 -135,-147 -39,-17 -2,1 -18,-8 -28,-17 -7,-4 -24,-19 -27,-10 -9,2 -32,-24 -5,-5 -29,-36 -29,-36 -29,-47 4,-39 -39,-83l-51 -19 12 77c-104,5 -87,56 -154,13l39 -27c92,-57 33,-24 110,-50l-8 -80c-23,-39 -34,-28 -62,-65 -32,-41 -17,-53 -67,-33 -6,-65 -19,-67 -69,-86l27 -62 -64 -17c-2,-1 -5,-3 -8,-5 24,-33 14,-17 71,-32 80,-19 19,6 84,-5l16 -134c-46,64 -14,89 -44,119 -66,-246 2,-273 7,-333 2,-20 -1,-38 2,-65 -47,-38 -109,-109 -121,-162l53 9 -3 -24 -27 4 -44 -6c-18,56 -20,23 -37,76 27,53 51,50 78,90l-36 13c-18,4 -21,1 -44,7 -47,13 -36,28 -69,29l-21 -78c0,-41 -12,-72 -31,-102 -22,-33 -13,-10 -25,-40 -5,-13 -10,-37 -12,-40 -112,-36 -100,-89 -105,-121 -88,-20 -12,-32 -103,-40 4,-53 29,-70 -8,-76 -52,26 -296,304 -288,424 60,25 308,71 381,117l84 75c-52,77 -223,180 -253,271z"/>
   <path class="fil12" d="M324 3434c14,-50 3,-27 27,-39l-11 0c-51,24 -63,89 -63,154 0,71 -8,135 -15,190l-6 55 62 15c12,60 30,71 27,126l-71 16c-5,89 29,94 27,156l-99 13c-42,4 -55,28 -98,50 -39,19 -61,36 -104,48l0 926 95 0 48 -155c20,-63 1,-44 73,-132 42,-51 22,-22 93,-71 53,-37 29,-6 70,-35 76,-53 -1,-22 94,-45l75 -28c68,-37 69,-51 76,-107 51,27 28,6 41,-6l-8 -106c-72,-54 -52,-42 -86,-93 -11,-17 -23,-17 -21,-32 25,-53 -12,-89 -16,-143 -11,-143 11,-111 26,-153l-44 -39 50 -7 -19 -31 111 -39c-18,-64 -26,-51 -28,-64 28,-172 29,-361 64,-553 -69,17 -52,17 -83,70l-125 226 16 307c5,56 20,29 -1,91 -64,-20 -30,29 -59,-60l-57 -209c-82,-130 -69,-144 -61,-296z"/>
   <path class="fil12" d="M1807 2398l37 0c-12,139 -12,33 15,92 -35,16 -128,44 -166,1 -101,-25 -81,-55 -118,-141l-38 14c1,53 -10,68 -13,119 -6,93 -13,47 -33,102l73 50c-51,63 -63,20 -61,90 0,3 2,8 3,12 85,29 159,9 204,10l7 48c-13,-24 13,-28 -97,-26 -16,0 -51,-1 -65,0l-57 22c21,33 -34,24 119,29 -100,60 -173,-59 -141,128l115 36c-34,42 -28,-5 -71,51 21,52 -1,20 45,51 -38,23 -32,4 -107,-15 30,29 60,47 101,55l-10 40c61,-17 50,-25 108,-11l-15 -30c77,-86 166,-118 215,-209 26,-50 6,-21 43,-48l-3 64 -8 -172c3,-51 25,-108 42,-164 20,-29 -31,-19 54,-31 -5,-38 -31,-103 11,-103l29 -94 13 -88c-84,51 -43,114 -83,158 -20,-46 30,-34 -19,-91 -16,51 -21,80 -56,114 9,-75 18,-155 -54,-116 -24,27 -26,-48 -19,53z"/>
   <path class="fil12" d="M1789 3807l-14 12c3,67 -7,14 25,64l48 9c-12,31 -39,42 -42,56 0,2 17,145 71,171 97,47 155,43 247,0 37,-38 100,-141 95,-210 5,-43 13,-84 0,-128 -25,-13 -89,-49 -105,-55 -68,-23 -79,8 -110,-54l-165 -7c-3,6 -17,32 -17,33 -9,21 -2,-10 -11,36 42,18 36,3 64,34 -40,30 -32,14 -86,39z"/>
   <path class="fil12" d="M1311 2268c156,-5 159,56 303,30 50,-9 99,-9 141,-26 44,-18 80,-56 128,-25l81 26c12,-58 -4,-91 -20,-140l-13 -26c-90,-32 -156,-65 -259,-56 -107,9 -189,0 -296,7l3 -5c-34,96 -75,72 -68,215z"/>
   <path class="fil12" d="M4919 3488c-16,22 -27,29 -32,69 -43,0 -42,-7 -84,-11 -41,-5 -16,-13 -63,16 9,38 23,32 27,40l-20 3c18,68 21,30 13,85 -61,22 -42,19 -52,-41l-33 13c-19,-5 -13,-8 -13,14l41 -23 -18 89c29,13 65,46 88,86 58,100 47,77 96,86l-11 -51c-22,-49 -25,-15 -22,-97 78,31 5,77 100,139l-5 43c35,-13 28,-9 63,-34 26,-18 32,-29 59,-30 32,-98 -22,-52 2,-234 13,-95 -33,-107 -73,-180 -52,4 -31,2 -63,18z"/>
   <path class="fil12" d="M3974 5144l212 0c-12,-46 -7,-50 -14,-102 -8,-76 -11,13 -22,-77 -7,-58 0,-156 -2,-220 -53,-27 -27,21 -40,-44 -2,52 -4,20 -19,37 -53,-7 -37,-17 -79,-1l-4 -65 -12 11c-7,48 -5,79 -7,127 -1,44 -16,63 -21,101 -10,86 8,158 8,233z"/>
   <path class="fil12" d="M4797 2367c-78,2 -76,-6 -122,31 -27,22 -25,15 -48,32 -18,13 -23,19 -31,42 68,21 101,-23 149,-65l89 9 24 48c-9,42 -32,51 -46,59 -1,1 -11,2 -28,10 -1,156 -76,67 15,155 -42,38 -20,32 -81,60l-50 -30c-55,33 -5,34 -80,35 -15,-109 22,-177 10,-256 -45,28 -37,226 -37,287 80,-3 47,2 107,-27l40 71 21 -54c11,-3 45,-8 51,-12 47,-28 3,0 28,-39 21,-35 47,-39 65,-74 38,-77 -2,-117 77,-193l-14 -102 -139 13z"/>
   <path class="fil12" d="M3241 4153l49 10c106,10 110,-36 182,-81 54,25 12,9 46,29l19 -59c-86,-16 -54,-21 -106,-41 -70,-26 -57,10 -123,-13 -81,-28 -50,-18 -132,-19 -75,-1 -86,-24 -141,20 157,105 119,169 206,154z"/>
   <path class="fil12" d="M1105 4514c64,37 74,60 141,80 71,20 110,36 188,20 -10,-31 -57,-58 -81,-102 -80,-148 -46,-64 -131,-153 -129,34 -129,-34 -117,155z"/>
   <path class="fil12" d="M947 4266c-21,-1 -143,33 -91,-77l26 -40c1,-2 4,-5 5,-8l90 -1c-32,113 -77,-59 -30,126zm100 -240c13,22 15,27 30,51 -46,32 -180,68 -194,32 -31,-16 -19,-27 -83,-31l5 -27c-28,20 -18,-27 -24,26l85 48c-18,25 33,17 -43,20l-41 8c21,186 -17,59 10,202 22,-1 21,14 68,-20 51,-35 -2,-17 53,-31l10 38c27,-19 14,2 25,-34 8,-25 3,-24 -1,-42l8 -33c1,-3 2,-8 3,-10l7 -18c34,53 4,29 64,50 -24,-65 -37,-31 -43,-92 46,13 27,15 68,29 -8,-26 -2,-19 -21,-33 27,3 10,-8 35,8l28 29c2,2 6,6 9,9l-2 -51c18,-21 21,-19 33,-52 -15,-41 -25,-36 -42,-79l-47 3z"/>
   <path class="fil12" d="M1022 4683l-45 11 34 -81c-96,20 -75,46 -150,-8 28,-103 11,-117 96,-174 -70,4 -32,16 -73,-7 20,-42 -4,-26 54,-46l-52 -7c55,-18 -9,8 23,-26l-59 5c-83,114 -3,77 -52,152 -66,103 1,56 -26,128 -3,8 -2,-8 -12,25 35,26 61,49 114,51l26 -48 57 4c1,5 10,13 12,16 15,19 -9,-2 21,23 65,-3 6,3 32,-18z"/>
   <path class="fil12" d="M783 3408c-10,29 -18,50 -18,90 -39,26 -11,-9 -39,32 -24,37 -35,151 -29,195 8,-22 3,-2 25,-15 15,-57 63,-124 94,-155 117,-118 71,-121 59,-172l69 -9 -1 -48c-16,-4 -41,-6 -53,-10 -24,-9 -6,-3 -26,-13l-15 -9c-35,44 -25,84 -66,114z"/>
   <path class="fil12" d="M4658 3413c71,11 26,25 113,25 35,42 29,80 123,85 -6,-131 -60,-56 -101,-135l-21 -20 -4 -78 -41 -5 -44 48c-54,-13 -99,-33 -143,11 8,46 24,63 118,69z"/>
   <path class="fil12" d="M3912 2604c38,99 114,284 -48,314l-2 1 -6 38 50 -9c2,95 -1,26 16,52 62,-28 38,0 43,-41 19,-122 -48,62 21,-83 94,-198 18,33 0,-318l-79 5 5 41z"/>
   <path class="fil12" d="M2504 3600l0 27c42,36 28,9 57,51l75 -5c15,-22 11,-4 18,-42 2,-13 2,-32 2,-44 -1,-64 -4,-20 -20,-82l-29 -13 29 83 -83 -36c-17,-8 7,0 -22,-4 -2,47 -7,41 -27,65z"/>
   <path class="fil12" d="M1028 3714c47,-32 45,-26 60,-87 14,-53 33,-81 31,-134l0 -68 -42 68c-13,17 -38,52 -43,63 -18,39 -8,40 -24,80l-32 92 50 -14z"/>
   <path class="fil12" d="M1072 4600c22,-23 13,-17 51,-28 -7,69 -16,31 -22,88l5 60c64,4 50,8 100,31l8 -57 -11 -56 34 -9c-3,-1 -8,-3 -10,-4 -2,-1 -7,-3 -9,-4l-53 -26c-36,-29 -15,-29 -72,-42 -25,26 -34,-42 -21,47z"/>
   <path class="fil12" d="M929 5144l159 0c9,-19 13,-30 22,-58l-20 12c-44,22 4,-4 -136,20 37,-76 30,-9 57,-79 7,-19 2,-4 3,-34 -108,1 -88,43 -85,139z"/>
   <path class="fil12" d="M1373 2520c-30,14 -19,3 -36,8 -86,22 62,-27 -23,6l-21 12c40,25 34,9 65,26 -24,62 3,48 -38,109l75 -4 29 -161 -51 4z"/>
   <path class="fil12" d="M920 4968l110 -14c19,-17 2,-5 23,-18l-15 -72 -40 6c-35,45 -55,33 -78,98z"/>
   <path class="fil12" d="M766 3397l17 -48 17 -69c-65,9 -57,-12 -76,48 -9,25 -7,72 -7,98l21 -10c7,-5 24,-16 28,-19z"/>
  </g>
  <g id="_690115024">
   <path class="fil13" d="M646 1955c215,7 443,17 562,-285 42,-109 48,-257 31,-387 -29,-213 -127,-255 -146,-295l-232 -114c-298,-143 -157,-379 -30,-353 89,18 114,102 125,214l259 15 -4 -140c-7,-65 -22,-126 -46,-180 -26,-61 -77,-102 -94,-142 -114,-53 -150,-107 -325,-108 -451,-2 -431,626 -297,837 126,197 443,210 505,343 123,259 -278,440 -299,28l-308 0c-10,162 38,385 156,488 55,49 87,44 143,79z"/>
   <path class="fil13" d="M1515 1182c-11,-103 9,-222 118,-213 55,53 71,119 67,216l-185 -3zm-177 503c33,44 32,81 78,127 87,87 244,80 324,19 54,-42 63,-86 101,-124 18,-65 45,-136 41,-217 -32,0 -64,0 -95,1 -45,1 -47,-3 -78,13 -35,75 -26,154 -140,139 -49,-45 -82,-153 -57,-246l377 -6c8,-145 -14,-350 -66,-462 -144,-313 -680,-257 -485,756z"/>
   <path class="fil13" d="M2060 856c-171,205 -164,596 -90,800 41,115 156,225 301,127 98,-65 146,-221 135,-368l-152 2c-19,88 1,167 -81,189 -66,-43 -62,-186 -62,-281 -1,-97 -7,-224 49,-291 81,-3 82,57 88,137l161 6c-8,-211 -108,-471 -349,-321z"/>
   <path class="fil13" d="M2938 1203c-4,-88 0,-141 58,-166 52,33 58,101 53,172l-111 -6zm-120 279c20,402 365,302 342,-37 -202,-4 -46,49 -164,122 -67,-23 -65,-105 -63,-191l226 -6 10 -165c-32,-46 3,-133 -69,-255 -49,-81 -148,-96 -207,-24 -105,128 -84,367 -75,556z"/>
   <path class="fil13" d="M3816 922c20,31 16,13 22,82l24 262 -87 -2 41 -342zm-185 733l92 -2c18,-59 11,-108 23,-161 12,-54 72,-39 138,-39l25 184 89 -6c5,-72 -99,-881 -122,-954l-108 -12 -137 990z"/>
   <path class="fil13" d="M2491 1222l1 532 145 -5c13,-141 -16,-405 19,-513 22,-112 39,-79 112,-117l-4 -257c-91,6 -93,58 -122,138 -2,-51 3,-79 -14,-123l-140 -8 3 353z"/>
   <path class="fil13" d="M4141 1456c-56,-48 -40,-200 -31,-271 9,-77 25,-64 31,-70 18,15 9,-6 26,29 1,3 7,34 8,40l0 204c-1,6 -7,36 -8,40 -22,48 -3,11 -26,28zm104 193c2,-131 22,-543 -1,-646 -63,-18 -54,-1 -80,32 -13,-48 -4,-32 -36,-62l-39 9c-90,107 -107,531 13,616 45,-9 20,8 64,-44 2,-2 5,-6 6,-7 2,-2 5,-5 7,-7 1,71 9,147 -38,181 -67,-36 19,-76 -100,-62 -6,90 14,139 44,194 131,17 154,-89 160,-204z"/>
   <path class="fil13" d="M3255 1126c1,213 -52,581 101,582 98,1 73,-71 70,-165 -12,-9 -8,-7 -28,-17 -1,0 -19,-7 -23,-9 -19,-87 -11,-288 -9,-385 35,-25 32,-10 61,-26l-6 -163 -44 -10c-17,-40 -10,-63 -11,-110 0,-34 -2,-63 -5,-97 -40,11 -68,47 -105,82l-2 105 -58 26 2 154 57 33z"/>
   <path class="fil13" d="M4352 1171c1,-24 10,-42 20,-61 30,10 27,-3 36,53 11,74 1,50 -23,64 -32,-13 -38,31 -33,-56zm-60 280c28,268 185,178 174,-51 -96,7 -29,15 -81,82 -42,-15 -6,11 -15,-15 -33,-33 -30,-76 -18,-124l116 -1c4,-76 -5,-463 -132,-325 -63,68 -47,324 -44,434z"/>
   <path class="fil13" d="M4505 1324l-1 256 57 0c10,-100 -18,-379 30,-430 37,68 0,327 26,419l38 3c21,-41 11,-91 13,-161 0,-124 26,-325 -51,-396 -134,41 5,6 -113,8l1 301z"/>
   <path class="fil13" d="M4721 1432c-1,69 -3,99 28,145l42 -10c18,-143 -13,-77 -19,-164 -3,-45 -3,-137 -1,-182 5,-96 10,-17 26,-78 22,-79 -21,-75 -25,-152 -2,-31 1,-58 -2,-92 -66,49 -32,40 -53,114 -3,10 -48,56 -23,129 16,49 -4,-15 15,26 21,45 10,208 12,264z"/>
  </g>
  <g id="_690119344">
   <path class="fil14" d="M3379 2807c20,45 -2,14 -10,27 -32,-18 -29,-7 -13,-43 29,11 10,-13 23,16zm-414 -128c22,-73 57,-101 172,-117 -8,76 -30,39 -116,101 -37,26 -35,16 -56,16zm-368 -146c-45,22 -10,-3 -17,31 20,54 19,26 11,98 -35,16 -43,12 -40,62 3,54 0,-11 -30,126l-14 34c-62,156 -11,141 15,316 10,64 -6,45 0,105 5,54 17,72 17,119l24 68 44 0 29 13c72,4 19,11 52,-35 62,-87 -30,-3 109,-120 17,-14 57,-52 77,-75 34,-40 42,-54 88,-79 69,-63 114,-138 128,-233 48,-7 50,-17 99,-20 54,-3 76,13 122,0 89,-16 47,-50 145,-20l41 17c-3,-35 -12,-51 -25,-75 78,2 39,33 83,96l18 -83c81,13 35,49 105,14l26 59c95,-69 75,-46 160,-33 162,-30 86,-215 48,-314 -27,-20 -6,4 -24,-23 -7,-10 -8,-17 -13,-29l-42 -28c-9,16 -8,4 -1,24l9 21 16 79c-2,2 -5,4 -7,6l-11 14c-30,38 28,6 -32,36l-78 -73c-18,-14 -35,-40 -49,-26 7,15 13,39 12,72 -24,-6 -37,-14 -52,-23 -55,-33 -2,72 -18,-30l12 -65c-17,-15 12,-4 -37,-27 -23,-11 -83,-18 -64,11 39,28 23,14 51,55 -65,139 -89,38 -227,62 25,26 35,30 66,53 -25,21 -21,16 -67,22 -12,52 -8,43 -66,41 5,-74 -4,-85 10,-127l63 -83c-8,-48 -19,-41 -16,-71l20 -39c5,-37 -29,-28 -57,-38 25,-35 -15,9 24,-16l30 -23c-9,-68 4,-22 -29,-64 40,-42 47,-33 78,-58 75,-61 66,-22 175,-30 22,19 18,19 40,36 16,12 18,9 36,26l-31 19c-95,66 -85,13 -93,7 17,-41 -4,-16 32,-35l30 -4c-59,-30 -74,-6 -83,-5 -47,5 -27,-10 -92,-11 -13,39 -32,82 -24,126 41,-14 20,-4 46,-33 33,-37 -23,-5 36,-31l24 87 79 11c21,36 68,109 125,110l-3 -34c38,-21 21,0 53,-43 -47,7 -55,15 -97,-9 -41,-24 -41,-37 -50,-75 57,21 52,22 113,23 19,35 9,42 65,43 51,-80 -20,-238 -141,-275 -164,-49 -85,-6 -115,-51 32,-13 26,-12 74,-1 -65,-109 -433,-96 -490,-64 -76,43 -139,68 -189,115 -26,25 -24,26 -61,41 -25,10 -22,7 -36,15 -36,20 -36,30 -45,44 -1,1 -2,5 -2,5 -22,29 -32,-13 -60,76 -60,185 -20,37 -123,182 -3,3 -6,8 -9,11z"/>
   <path class="fil14" d="M1549 3166c-9,23 -31,41 -32,75 0,43 19,33 27,78 10,57 -28,109 -47,149l-16 134c-65,11 -4,-14 -84,5 -57,15 -47,-1 -71,32 3,2 6,4 8,5l64 17 -27 62c50,19 63,21 69,86 50,-20 35,-8 67,33 28,37 39,26 62,65l52 86c43,44 10,36 39,83 0,0 24,31 29,36 23,26 5,14 32,24l66 15c-6,-89 19,-62 27,-87 -3,-72 -15,-46 -23,-91 -8,-44 6,-55 9,-90 -32,-50 -22,3 -25,-64l14 -12 14 -66c-118,-13 36,9 -170,29 -26,44 -9,53 -64,70 -52,-78 21,-22 21,-141 114,-63 141,-21 249,-34l165 7c10,-10 18,7 3,-23 -30,-48 -11,-34 -19,-94l-97 -5c-1,0 -264,42 -316,31 4,-59 125,-237 150,-250l17 -56c-114,-1 -11,1 -85,39l-20 -35c39,-51 33,0 45,-34 2,-5 7,-2 10,-4l-10 -29 -25 -57c-58,-14 -47,-6 -108,11z"/>
   <path class="fil14" d="M3765 4710c-10,29 17,11 -22,28 25,26 19,23 19,68 44,-19 11,-5 33,-18 15,-9 7,-7 24,-15 41,55 -4,16 52,28 -9,-53 -3,-2 -26,-56 56,-49 -60,49 27,-16 31,-22 15,20 16,-20 -23,-42 -33,-44 -94,-44 -12,12 -8,6 -20,24 0,0 -8,19 -9,21z"/>
   <path class="fil14" d="M2955 3490c72,25 59,5 106,-17 46,15 16,12 34,17 33,11 1,9 40,3l15 5c19,-28 -12,-13 31,-32 -8,-8 -1,-25 -73,-42 -146,-36 -90,30 -153,66z"/>
   <path class="fil14" d="M1424 2623c28,26 52,47 91,26 -11,-39 -6,-22 -43,-51 -6,-78 19,-34 -19,-84 -2,3 -5,4 -6,10 -3,20 -24,25 -23,99z"/>
  </g>
  <g id="_690118128">
   <path class="fil15" d="M4089 982l39 -9c32,30 23,14 36,62 26,-33 17,-50 80,-32 23,103 3,515 1,646 55,-135 -24,-346 25,-482 11,38 3,84 3,132 -1,24 -1,54 1,77 1,10 3,31 5,40 7,33 10,28 13,35 -3,-110 -19,-366 44,-434 127,-138 136,249 132,325l-116 1c-12,48 -15,91 18,124l-18 -103c31,-6 64,-3 85,-8 38,-8 39,-23 68,-32l-1 -301c118,-2 -21,33 113,-8 77,71 51,272 51,396 25,0 4,-7 28,4 5,1 20,13 25,17 -2,-56 9,-219 -12,-264 -19,-41 1,23 -15,-26 -25,-73 20,-119 23,-129 21,-74 -13,-65 53,-114 3,34 0,61 2,92 4,77 47,73 25,152 -16,61 -21,-18 -26,78 -2,45 -2,137 1,182 6,87 37,21 19,164 29,-18 12,-5 16,-48 2,-21 1,-48 3,-71 92,35 222,43 334,44l0 -1492 -1167 0c-16,149 -94,231 -47,531 15,92 28,153 64,234 15,32 31,74 48,105 30,55 48,51 47,112z"/>
   <path class="fil15" d="M0 1746c50,31 123,177 254,226 260,97 208,2 392,-17 -56,-35 -88,-30 -143,-79 -118,-103 -166,-326 -156,-488l308 0c21,412 422,231 299,-28 -62,-133 -379,-146 -505,-343 -134,-211 -154,-839 297,-837 175,1 211,55 325,108 2,-113 -32,-189 -37,-288l-1034 0 0 1746z"/>
   <path class="fil15" d="M3767 4116c9,34 -27,28 87,33 -32,63 -173,122 -216,182 -106,148 -139,22 -313,305 -28,46 -44,86 -78,129 -44,54 -18,-2 -46,55 -18,36 -17,34 -37,66 -13,22 -59,103 -65,120 -21,72 -83,83 -94,138l969 0c0,-75 -18,-147 -8,-233 5,-38 20,-57 21,-101 2,-48 0,-79 7,-127 -57,3 -19,-5 -59,40 -36,-6 -16,2 -47,-14 -1,40 15,-2 -16,20 -87,65 29,-33 -27,16 23,54 17,3 26,56 -3,3 -6,4 -7,9l-23 24c-58,55 -79,15 -105,60 -31,-36 -16,-13 -58,-33l9 -84c-44,-16 -16,2 -34,-32l31 -4 -11 -34c62,-94 16,-20 37,-109l23 -91c5,-47 168,-55 189,-12 20,17 18,67 19,101l-34 8c-13,32 -12,15 -7,51 49,24 62,-9 70,-55l36 6c19,-20 8,2 20,-28l36 -94 15 -62 36 -12c76,-189 367,7 465,50 -4,-9 -10,-27 -11,-33 -1,-3 0,-25 0,-27 -13,-136 -40,-126 -82,-166 -115,-111 -50,-88 -134,-125l-55 -26c-188,-79 -236,11 -395,37 -54,9 -87,-4 -134,-4z"/>
   <path class="fil15" d="M2060 856c241,-150 341,110 349,321l-161 -6 18 10c83,23 128,-7 225,41l-3 -353 140 8c17,44 12,72 14,123 29,-80 31,-132 122,-138l4 257c-73,38 -90,5 -112,117l137 3 13 214c8,34 7,18 12,29 -9,-189 -30,-428 75,-556 59,-72 158,-57 207,24 72,122 37,209 69,255l5 -67 81 -12 -57 -33 -2 -154 58 -26 2 -105c37,-35 65,-71 105,-82 3,34 5,63 5,97 1,47 -6,70 11,110l44 10 -14 -16c-2,-2 -11,-11 -15,-14 0,-166 12,-220 -191,-345 -362,-224 -1116,-118 -1141,288z"/>
   <path class="fil15" d="M2636 3505c16,62 19,18 20,82 0,12 0,31 -2,44 -7,38 -3,20 -18,42l-75 5 -2 8c-46,-22 -41,-5 -56,5 31,95 63,23 127,84 21,20 26,30 41,60 30,56 0,17 50,49 15,133 47,130 99,225 20,37 37,72 32,120 -14,134 -65,119 -104,138l-139 94c-34,24 -75,26 -120,47 -61,28 -42,32 -84,66 -7,-4 -37,-17 -38,-17 20,59 28,27 46,77 17,46 -3,30 26,78 40,67 20,102 43,163 70,23 83,2 146,-17l49 4c130,65 85,141 152,153 26,-42 1,-33 29,-93 -86,-87 12,-53 -106,-109l-25 -16c50,-97 222,-51 297,-24 -11,-66 -38,-139 -30,-198l51 2c28,-20 42,-29 60,-59l-35 1c20,-27 -3,-6 37,-31 -3,-3 -6,-8 -7,-10l-10 -21c-1,-2 -3,-5 -3,-10 -1,-5 -2,-7 -3,-10 25,-14 32,-24 61,-34 -12,-79 -42,-60 50,-79 -41,-30 -36,-17 -74,-29 -25,-8 -31,-12 -49,-24 -115,-78 -160,-97 -203,-197 -1,-3 -4,-6 -5,-9 -1,-2 -3,-6 -4,-8 -13,-34 -8,-49 25,-80 26,-25 14,-11 43,-29 1,-111 -5,-55 -39,-124l-90 -383c61,-26 48,-2 65,-76 25,28 22,-42 22,56l69 -16 -1 -57 -27 -8c21,-11 2,2 26,-16l18 -18 -42 -18c20,-22 20,-38 33,-92 -46,25 -54,39 -88,79 -20,23 -60,61 -77,75 -139,117 -47,33 -109,120 -33,46 20,39 -52,35z"/>
   <path class="fil15" d="M2479 0l-1097 0 3 43c97,70 168,156 289,197 23,8 63,20 80,25 48,14 137,22 188,22 212,-2 355,-78 499,-212 36,-34 28,-10 38,-75z"/>
   <path class="fil15" d="M1093 988c-25,-54 -18,-174 0,-227l126 1c16,-65 10,-110 -8,-152l4 140 -259 -15c-11,-112 -36,-196 -125,-214 -127,-26 -268,210 30,353l232 114z"/>
   <path class="fil15" d="M2260 3249c31,-16 14,14 37,-28l42 33c-9,56 -20,75 6,145 13,35 -12,-23 8,19l24 23c2,1 16,0 20,-1 6,51 3,24 16,60 48,-21 30,-27 79,-26 18,54 16,58 12,126 20,-24 25,-18 27,-65 29,4 5,-4 22,4l83 36 -29 -83 -44 0 -24 -68c-100,-79 -65,-217 -75,-335l-53 1c-13,17 -35,75 -45,98 -46,-23 -44,-64 -74,-61 -33,4 -28,91 -32,122z"/>
   <path class="fil15" d="M1213 5038c0,-56 7,-189 25,-237 23,-58 5,-28 35,-47 24,32 13,40 36,94 20,49 15,50 11,114 -12,7 -47,20 -57,27 -39,27 -18,70 -39,39 -2,-3 -7,7 -11,10zm1 -344l-8 57c-50,-23 -36,-27 -100,-31l-5 -60c-30,29 -72,105 -76,152 71,-29 55,-81 152,-49l-90 79 45 -12c-26,88 15,131 -13,247 26,-17 13,13 32,-35 19,-49 -12,-119 0,-194l47 -23 -6 241c121,-4 25,-31 94,-51 17,-5 34,-2 51,-1l28 50c9,11 35,26 54,36 -35,-169 17,-141 53,-283 24,-92 26,-62 50,-79 -8,58 -37,134 -17,174 29,-23 53,-128 61,-169 30,9 25,6 53,17l-8 -36 23 -26c-44,33 -6,15 -62,18l-42 -76 16 54c-38,32 -42,7 -68,50 -27,44 -64,201 -115,244 -12,-17 -20,11 -22,-88 -3,-145 -5,-71 -28,-130 -10,-26 -5,-35 -14,-58 -36,9 -18,18 -77,30 -13,-23 -38,29 -8,-48z"/>
   <path class="fil15" d="M340 3395l11 0c-24,12 -13,-11 -27,39 18,-18 6,-1 49,-13 0,40 -12,139 -11,147 3,34 41,77 37,105 4,-73 75,-158 115,-201l97 -202 -37 1c-75,12 -53,25 -161,23l-73 101z"/>
   <path class="fil15" d="M3578 0l-349 0c37,230 316,220 349,0z"/>
   <path class="fil15" d="M4964 3215l54 18c42,-73 -10,-31 49,-95 35,-38 34,-39 11,-96 -2,-3 -4,-7 -6,-11 -17,0 -8,10 -24,-2 8,-23 10,-30 13,-53l-60 -31 49 -32 -106 -14c-68,322 3,221 20,316z"/>
   <path class="fil15" d="M907 2728c37,6 12,23 8,76 91,8 15,20 103,40 5,32 -7,85 105,121 -19,-48 0,-13 -29,-47 -70,-80 0,-59 -94,-176 -22,-28 -18,-30 -64,-49l-29 35z"/>
   <path class="fil15" d="M3211 3860l19 44c64,19 99,24 165,0l59 -21c-1,-29 5,-14 -8,-31 -113,9 -123,-77 -202,-16l-33 24z"/>
   <path class="fil15" d="M2938 1203l111 6c5,-71 -1,-139 -53,-172 -58,25 -62,78 -58,166z"/>
   <path class="fil15" d="M2004 3672c31,62 42,31 110,54 16,6 80,42 105,55 13,44 5,85 0,128l15 -15c1,-2 14,-22 15,-23l4 51c12,-22 7,28 20,-50 7,-39 -9,-95 -17,-134 -80,-37 -109,-8 -249,-89 15,30 7,13 -3,23z"/>
   <path class="fil15" d="M1152 4063c-3,-223 -15,-116 36,-192 -3,-2 -8,-4 -9,-5 -38,-30 -18,-1 -33,-41 -49,22 -136,29 -82,113 33,50 30,-10 82,113 2,3 4,8 6,12z"/>
   <path class="fil15" d="M1492 5144l36 0c70,-136 -14,-93 50,-186 9,-14 54,-61 30,-107 -95,68 -109,172 -116,293z"/>
   <path class="fil15" d="M1621 3993l-52 -86 8 80c-77,26 -18,-7 -110,50l-39 27c67,43 50,-8 154,-13l-12 -77 51 19z"/>
   <path class="fil15" d="M4385 1227c24,-14 34,10 23,-64 -9,-56 -6,-43 -36,-53 -10,19 -19,37 -20,61 -5,87 1,43 33,56z"/>
  </g>
  <path class="fil16" d="M3907 4604l34 -8c-1,-34 1,-84 -19,-101 -50,-11 -55,-12 -104,6 55,12 44,15 95,51 -16,69 1,5 -21,52l15 0z"/>
  <path class="fil17" d="M4372 3627l38 17c16,-32 13,0 9,-50 -40,1 -43,-6 -47,33z"/>
 </g>
</svg>
