<?xml version="1.0" encoding="UTF-8"?>
<!DOCTYPE svg PUBLIC "-//W3C//DTD SVG 1.1//EN" "http://www.w3.org/Graphics/SVG/1.1/DTD/svg11.dtd">
<!-- Creator: CorelDRAW X6 -->
<svg xmlns="http://www.w3.org/2000/svg" xml:space="preserve" width="6.28123in" height="5.94578in" version="1.1" style="shape-rendering:geometricPrecision; text-rendering:geometricPrecision; image-rendering:optimizeQuality; fill-rule:evenodd; clip-rule:evenodd"
viewBox="0 0 5773 5465"
 xmlns:xlink="http://www.w3.org/1999/xlink">
 <defs>
  <style type="text/css">
   <![CDATA[
    .fil0 {fill:black}
   ]]>
  </style>
 </defs>
 <g id="Layer_x0020_1">
  <metadata id="CorelCorpID_0Corel-Layer"/>
  <path class="fil0" d="M1628 2281l-17 -2132c0,-60 -16,-67 37,-74l1093 -25c128,0 127,-24 127,66l22 842c0,28 6,42 27,56 40,28 38,63 95,66 71,3 41,10 116,-6 96,-20 64,24 125,63 35,23 140,12 74,75l-134 126c-37,37 -53,42 -66,95 -20,83 -32,184 -48,267 -7,33 1,44 -34,44 -31,1 -46,3 -62,4 -47,5 -105,2 -154,2 -104,0 -114,-6 -178,59 -9,8 -13,12 -21,18 -1,1 -2,2 -3,3l-76 73c-35,29 -81,57 -90,104l-119 662 468 -4c89,15 94,-29 72,79l-53 295c-42,205 -94,448 -46,656 38,171 130,323 272,425 86,63 288,117 410,87 56,-14 113,-31 165,-56 22,-11 39,-23 58,-31 21,-9 37,-20 57,-32l136 -85c51,-36 200,-120 214,-185 6,-28 8,-47 14,-74l27 -151c17,-111 21,-94 -49,-71 -67,22 -171,34 -227,-13 -20,-18 -34,-41 -34,-76l149 -775c72,0 126,-6 200,-6 75,0 115,15 175,-30l83 -71c10,-10 15,-16 26,-24 111,-82 97,-79 119,-191l97 -518c19,-103 33,-96 -30,-91l-506 6 42 -221c3,-20 35,-194 42,-201l57 -21c55,0 84,44 138,44 74,0 67,-61 155,-61 46,0 53,15 93,-12 15,-9 54,-48 68,-48 64,0 46,49 122,11 52,-27 76,-10 123,14 111,59 126,6 164,63 56,0 44,18 74,43 41,35 146,-6 167,65l36 302c1,29 5,31 6,55 1,20 -2,33 2,53l26 257c0,27 -1,27 12,43 68,88 93,90 136,207 32,84 34,75 86,142 71,92 20,159 9,256 -3,32 -2,66 -6,99 -6,60 -25,94 -15,160 11,69 -4,73 -24,133 -10,28 -6,70 -10,106 -6,47 -63,57 -98,74 -51,25 -89,61 -135,92 -13,10 -19,12 -32,24 -19,18 -40,37 -67,43 10,-16 24,-30 41,-42 30,-23 47,-42 25,-74 -30,0 -41,22 -89,22 18,-34 32,-77 23,-117 -87,-20 -76,58 -130,87 -41,23 -20,65 0,98 32,56 32,97 -4,152 -20,30 -84,84 -112,104l-143 74c-54,20 -99,37 -147,68 -18,11 -51,30 -73,32 -5,-53 -57,-24 -82,-9 -89,52 -65,-12 -123,-13 -30,127 47,65 83,133l-89 61c-15,-12 -19,-34 -44,-34 -7,0 -17,12 -17,23 0,40 33,84 -20,107 -23,10 -26,4 -46,3 -61,-2 -116,78 -28,78 -8,36 -21,61 -39,88 -61,0 -65,-19 -110,11l0 39c14,10 29,18 44,28 0,29 -12,55 -17,83 -23,115 -4,76 -63,114 -34,22 -46,29 -36,69 18,0 26,2 39,4 61,13 -12,86 -12,145 0,25 41,78 49,106 29,95 -6,94 79,221 11,16 30,19 43,34 10,13 14,37 18,54 -12,23 -17,26 -35,43 -72,70 -115,-18 -187,-26 -60,-7 -108,6 -177,6 -60,0 -77,-4 -127,-34 -21,-12 -54,-24 -79,-32 -173,-57 -273,-150 -364,-300 -30,-48 -51,-100 -69,-153 -48,-144 -27,-108 -137,-195 -62,-48 -108,-115 -154,-178 -37,-50 -59,-56 -100,-127 -27,-47 -59,-87 -91,-131 -69,-94 -96,-211 -162,-308l-39 -44c-39,-43 -52,-62 -82,-112 -38,-62 -104,-99 -150,-154 -89,-106 -112,-21 -190,-21 -33,0 -91,-27 -205,-27 -48,0 -108,-8 -139,32 -78,99 -76,91 -96,203 -15,86 8,95 -64,136 -20,11 -38,31 -66,33 -15,1 -35,-2 -49,1 -51,10 -32,29 -91,-28 -29,-28 -74,-52 -110,-73 -20,-12 -39,-18 -60,-28 -43,-19 -73,-44 -120,-63 -49,-19 -71,-48 -111,-71 -44,-26 -66,-56 -75,-108 -13,-77 -39,-77 -56,-126 -42,-116 0,-166 -120,-246 0,-76 -27,-62 -63,-109 -36,-46 -51,-41 -98,-68 -115,-68 -61,-76 -159,-173 -21,-22 -33,-19 -53,-36 -21,-20 -10,-30 -30,-53 -25,-28 -87,-31 -108,-58l-36 -47c-47,-47 -46,-108 -123,-126 -24,-104 9,-87 45,-89l1428 -33zm2746 2918c0,-97 -88,-101 -111,-188 -11,-40 -13,-84 -25,-124 -9,-29 -47,-82 -47,-98 0,-16 14,-48 19,-70 24,-96 21,-67 -13,-118 11,-3 24,-10 32,-18 21,-22 24,-88 31,-118 10,-47 9,-90 38,-112 21,-15 27,-36 41,-53 9,-10 63,-22 87,-57 17,-24 20,-42 31,-68 7,-18 16,-56 39,-56 20,0 5,34 5,50 0,30 99,-41 117,-49 59,-26 38,-67 71,-67 31,0 8,29 71,-8l70 -45c85,-63 153,-100 220,-184 37,-46 92,-173 154,-190 -6,24 -26,34 -41,54 -12,16 -7,6 -16,27 -7,16 -9,15 -9,36 33,-1 20,-5 41,-20 59,-45 211,-157 259,-206l139 -149c142,-141 93,-65 120,-223 4,-19 11,-25 18,-44 30,-86 -4,-134 11,-199 3,-13 8,-24 12,-43 8,-34 0,-76 8,-109l16 -99c12,-67 22,-122 -15,-182l-69 -97c-40,-56 -48,-130 -93,-184 -73,-86 -70,-51 -83,-138 -4,-27 -7,-71 -10,-101 -9,-113 -30,-262 -38,-393l-17 -150c-7,-105 -160,-94 -177,-99 -37,-25 -27,-37 -83,-56 -21,-6 -24,-14 -43,-24 -61,-34 -59,13 -129,-37 -105,-74 -140,-5 -199,-5 -6,0 -34,-22 -67,-22 -36,0 -55,23 -79,42 -45,33 -131,2 -171,39 -14,13 -16,14 -30,25 -57,45 -97,-34 -179,-34 -13,0 -20,8 -31,13 -43,15 -63,-2 -75,58l-55 299c-9,57 -22,85 -22,156 21,4 35,11 61,11 63,-2 448,-22 474,-4 3,2 4,2 8,4l-111 603c-12,60 -17,54 -100,55l-387 6c-94,0 -78,3 -114,202l-125 667c-14,72 -41,157 13,221l7 9c34,34 84,53 141,53 150,0 153,-96 97,185 -13,63 -22,52 -62,93 -64,64 -162,108 -246,136 -142,48 -357,65 -494,-3 -58,-28 -68,-39 -113,-75 -23,-17 -41,-44 -58,-69 -26,-40 -46,-74 -62,-121 -80,-241 -10,-409 25,-639l117 -632 -18 -21 -548 5 105 -576c11,-58 2,-83 50,-83l195 -4c31,-3 1,3 27,4 22,0 -1,-5 27,-5 24,0 -2,8 31,3 78,-12 178,8 252,-9 22,-94 116,-556 116,-625l-52 -48c-45,-25 -67,13 -99,-45 -44,-79 -152,-29 -181,-29 -23,0 -49,-11 -83,-11 -47,-70 -55,-49 -56,-89l-22 -930 -1318 33c-13,7 -19,21 -27,34 -22,32 -56,54 -80,86 -14,19 -40,41 -57,59l-51 59 27 1811c0,185 31,148 -133,155l-1130 32c-26,9 -33,31 -50,50 -16,16 -93,82 -93,106 0,193 3,105 46,154 35,41 -7,34 77,105 18,16 14,37 64,74 9,7 17,11 27,18 25,18 37,60 83,94 13,10 10,9 26,18 7,5 22,13 27,18 31,27 39,64 65,95l10 12c34,39 85,71 131,97 19,11 10,5 22,21 22,30 21,11 33,56 8,30 16,37 37,52 20,14 26,28 39,50 18,31 32,98 44,138 5,14 5,16 14,30 31,48 44,107 70,158l118 147c21,14 37,23 57,38 35,27 71,48 114,62 45,15 169,80 214,102 31,16 54,39 94,39 38,0 122,-32 148,-57l78 -66c8,-6 16,-12 25,-19 48,-35 97,-63 117,-121l25 -108c68,-16 128,-26 199,-6 22,6 60,28 78,28 39,0 73,-11 99,-11 15,0 93,58 106,71 8,8 15,23 23,33 48,56 28,3 80,97 31,57 38,55 78,94 24,22 32,38 47,69 8,15 15,27 20,41 29,80 82,150 126,223 37,60 79,111 121,167 8,12 17,21 27,33 18,21 42,37 57,60l22 33c12,17 15,19 28,33 14,13 14,17 25,30 16,19 40,40 58,58 19,19 53,35 63,54l65 167c8,18 16,25 23,39 28,63 65,125 107,180 26,35 49,72 81,102 55,51 92,91 166,117 55,19 115,43 173,59 95,25 92,51 178,53 7,0 36,-2 54,-2 24,-1 22,-6 49,-6 48,-1 55,17 95,17 46,0 128,-67 165,-101 45,-44 156,-93 156,-165z"/>
  <path class="fil0" d="M3477 1500c29,-6 -9,-2 14,-2l509 -6c11,0 14,-1 14,14l-332 1794 -477 11c-76,9 -64,-14 -57,-41l329 -1770zm-43 -51c-12,18 -20,43 -23,69l-325 1784c-7,41 -15,52 4,58l464 -11c228,-3 142,51 213,-268l297 -1564c8,-52 19,-54 0,-77l-630 9z"/>
  <path class="fil0" d="M3632 559c0,-38 15,-71 31,-96 14,-23 10,-20 29,-38 133,-132 345,-110 445,-11 55,53 90,142 66,218 -9,30 -30,79 -49,100 -38,41 -105,78 -165,90 -108,21 -221,-10 -295,-87 -52,-54 -62,-107 -62,-176zm-44 17c0,279 383,391 560,212 90,-91 144,-196 75,-327 -80,-151 -280,-211 -438,-147 -44,18 -107,58 -133,93 -12,17 -21,28 -32,46 -16,24 -32,84 -32,123z"/>
 </g>
</svg>
