<?xml version="1.0" encoding="UTF-8"?>
<!DOCTYPE svg PUBLIC "-//W3C//DTD SVG 1.1//EN" "http://www.w3.org/Graphics/SVG/1.1/DTD/svg11.dtd">
<!-- Creator: CorelDRAW X6 -->
<svg xmlns="http://www.w3.org/2000/svg" xml:space="preserve" width="5.34454in" height="3.7859in" version="1.1" style="shape-rendering:geometricPrecision; text-rendering:geometricPrecision; image-rendering:optimizeQuality; fill-rule:evenodd; clip-rule:evenodd"
viewBox="0 0 3205 2271"
 xmlns:xlink="http://www.w3.org/1999/xlink">
 <defs>
  <style type="text/css">
   <![CDATA[
    .str0 {stroke:black;stroke-width:1.79928}
    .fil0 {fill:black}
    .fil28 {fill:#006933}
    .fil25 {fill:#009633}
    .fil29 {fill:#04A35C}
    .fil11 {fill:#07A973}
    .fil12 {fill:#0BB294}
    .fil13 {fill:#0EB8AD}
    .fil14 {fill:#13C4DC}
    .fil22 {fill:#15CAF4}
    .fil27 {fill:#188977}
    .fil16 {fill:#1CAE57}
    .fil8 {fill:#1DAEE1}
    .fil17 {fill:#2697C9}
    .fil18 {fill:#2A86B9}
    .fil31 {fill:#2D6D92}
    .fil21 {fill:#3BB554}
    .fil20 {fill:#52B952}
    .fil4 {fill:#605D5C}
    .fil26 {fill:#6BBF50}
    .fil24 {fill:#8EC64D}
    .fil23 {fill:#A4CE40}
    .fil32 {fill:#B6D334}
    .fil2 {fill:#CC9C31}
    .fil30 {fill:#D5DE22}
    .fil19 {fill:#E5CB1D}
    .fil15 {fill:#E7A224}
    .fil10 {fill:#E98429}
    .fil7 {fill:#EA6B2D}
    .fil9 {fill:#EC5431}
    .fil33 {fill:#ED3437}
    .fil3 {fill:#EF9BA0}
    .fil1 {fill:#F9D05F}
    .fil6 {fill:#FFFFCC}
    .fil5 {fill:white}
   ]]>
  </style>
 </defs>
 <g id="Layer_x0020_1">
  <metadata id="CorelCorpID_0Corel-Layer"/>
  <path class="fil0" d="M2003 1922c96,30 160,103 173,219 2,16 -6,30 -20,37 -66,32 -159,32 -235,26 0,0 -1,0 -1,0 0,0 0,0 0,0 0,15 -10,29 -25,34 -167,54 -330,43 -484,-46l-46 1c-142,92 -306,90 -467,49 -17,-5 -29,-12 -37,-23 0,0 0,0 0,0 0,0 -1,0 -1,0 -82,2 -164,-5 -244,-21 -18,-3 -31,-20 -29,-39 10,-87 41,-179 118,-229 53,-34 115,-41 175,-33 2,1 4,1 5,1 3,-6 6,-12 11,-19 31,-46 85,-53 130,-31 0,-1 0,-2 1,-2 32,-97 82,-184 139,-268l372 -148c75,128 164,282 187,435 14,-15 34,-24 57,-28 24,-4 48,0 69,11 0,0 0,0 0,0 63,-50 71,-128 59,-207 -3,-21 -6,-43 -10,-65 19,8 32,22 57,43 32,23 47,65 52,100 7,-23 6,-36 3,-70 24,40 30,64 40,106 9,74 -9,127 -49,167z"/>
  <path class="fil1" d="M922 2003c-25,-19 -41,-43 -43,-70 0,0 -1,0 -1,0 -146,-21 -237,63 -255,230 74,14 150,22 229,20 0,0 0,0 0,0 0,0 0,0 0,0 1,-3 1,-5 1,-8 1,-1 1,-2 1,-2 14,-59 34,-117 66,-167 0,-1 1,-2 2,-3zm954 -136c56,-49 79,-123 64,-230 44,51 67,109 25,192 32,-19 51,-48 61,-83 10,84 -19,158 -127,209 0,0 0,-1 0,-1 3,-11 5,-22 3,-33 -2,-21 -12,-40 -26,-54zm-36 107c-30,-32 -67,-46 -107,-46 2,-30 23,-50 55,-56 39,-7 74,21 79,53 2,18 -10,37 -27,49zm-897 0c0,-1 0,-1 1,-1 14,-18 31,-35 50,-50 13,-10 27,-19 41,-26 0,-1 -1,-2 -2,-3 -37,-31 -83,-30 -108,6 -20,30 -7,55 18,74zm124 -89c38,-10 78,-5 115,25 2,1 3,3 4,4 17,19 34,37 51,56 -20,-135 -2,-165 12,-208 4,87 2,172 51,276 5,14 -23,37 -33,20 -36,-40 -72,-80 -107,-120 -44,-34 -92,-27 -144,14 -67,51 -105,133 -127,229 -3,19 5,22 18,26 203,52 342,22 448,-51 -82,-203 -83,-333 -62,-444 3,148 39,291 96,430 0,1 0,2 1,3 2,1 5,1 8,0 12,-47 23,-96 29,-144 13,-65 19,-138 23,-212 24,73 35,170 -20,373 140,81 291,94 454,41 -10,-84 -32,-141 -58,-190 -32,-43 -77,-62 -145,-40 -77,24 -148,69 -211,146 28,-117 32,-249 19,-389 28,45 49,112 36,285 43,-34 91,-59 145,-76 8,-3 16,-5 24,-7 -1,-156 -90,-319 -187,-483l-311 149c-57,84 -107,172 -139,271 0,1 -1,1 -1,2 1,0 1,1 1,1 3,4 7,8 10,13zm794 118c27,53 44,105 54,162 0,1 0,2 0,2 0,0 1,0 1,0 92,8 171,5 225,-21 -16,-133 -85,-179 -173,-195 -1,1 -1,1 -1,1 -25,17 -54,31 -87,44 -2,0 -10,4 -17,6 0,0 -1,1 -2,1z"/>
  <path class="fil2" d="M2133 2145c-67,24 -139,27 -212,17 66,-24 126,-61 169,-134 23,39 36,78 43,117zm-263 60c-121,34 -217,28 -303,7 91,-15 181,-52 268,-158 19,43 37,87 35,151zm-596 -15c-146,18 -251,-32 -319,-147 -29,43 -49,93 -54,152 138,44 262,39 373,-5zm-425 -11c15,-42 30,-84 45,-126 -50,64 -104,110 -179,50 -7,24 -15,48 -9,73 50,6 99,8 147,3m677 -346c0,66 -1,128 -5,182 31,-25 71,-49 113,-74 -21,8 -43,16 -65,24 -19,8 -23,-1 -25,-10 -6,-41 -12,-81 -18,-122zm-150 288c-26,-61 -45,-130 -62,-201 17,43 33,87 56,127 10,11 19,8 26,-2 20,-58 32,-117 44,-175 -10,83 -20,166 -40,252 -9,9 -17,8 -24,-1zm-184 -207c-55,-103 -42,-194 -13,-281 -43,65 -85,137 -118,238 3,1 7,3 10,4 40,-12 81,5 121,39z"/>
  <path class="fil0" d="M1465 200l43 -90c8,-17 26,-24 44,-19l166 52c13,4 22,15 24,29 2,14 -3,27 -15,35 -61,41 -31,210 -20,267 3,17 -6,34 -22,40 -16,7 -34,1 -44,-13l-174 -265c-7,-11 -8,-24 -2,-36z"/>
  <path class="fil3" d="M1497 216l174 265c-29,-162 -23,-264 36,-304l-166 -52 -44 91z"/>
  <path class="fil0" d="M1781 50c26,-9 51,-1 70,20 1,0 1,1 2,2 24,31 30,62 45,97 3,8 6,15 10,21 22,33 47,63 69,96 1,2 1,3 2,5 9,20 15,42 3,61 -14,22 -38,25 -60,21 -62,2 -120,-10 -175,-38 -73,-38 -131,-98 -182,-161 -5,-3 -11,-7 -15,-7 0,0 0,0 0,0 -19,23 -29,53 -38,81 -7,19 -27,29 -46,23 -15,-6 -25,-20 -24,-36 -7,1 -14,0 -20,-3 -18,-9 -26,-31 -17,-48 19,-39 37,-78 54,-117 11,-26 37,-40 65,-36 1,0 1,0 2,0 78,15 175,30 255,19z"/>
  <path class="fil1" d="M1477 236l-40 -36c20,-41 37,-78 55,-119 4,-9 14,-17 27,-15 103,20 197,30 271,19 12,-5 24,-3 34,9 29,36 30,80 55,116 19,30 42,58 68,96 9,21 12,38 -23,31 -147,7 -247,-80 -335,-190 -28,-21 -50,-21 -66,-4 -23,28 -34,61 -46,93z"/>
  <path class="fil0" d="M928 305c-37,4 -71,14 -109,11 -23,-1 -44,-13 -53,-35 -12,-33 8,-64 36,-81 48,-29 92,-64 107,-120 13,-48 45,-77 96,-65 49,12 102,14 149,-7 50,-22 90,3 117,46 27,41 47,86 60,134 2,10 1,20 -5,28 -5,9 -13,15 -23,17l-372 72c-1,0 -2,0 -3,0z"/>
  <path class="fil1" d="M924 270l372 -73c-12,-46 -31,-87 -55,-124 -25,-38 -49,-42 -72,-32 -45,20 -101,26 -172,9 -27,-6 -44,5 -53,39 -16,58 -54,101 -124,142 -30,18 -28,47 2,50 34,2 68,-8 102,-11z"/>
  <path class="fil0" d="M1027 179l35 -7c-5,-30 -18,-63 -50,-73 -27,-8 -50,7 -70,23 -11,10 -2,29 21,25 33,-27 55,-18 64,32z"/>
  <path class="fil2" d="M1010 149c3,6 -3,9 -11,10 -34,5 -60,31 -80,69 6,-38 22,-70 68,-87 10,-3 17,1 23,8z"/>
  <path class="fil0" d="M677 1487c-40,-12 -79,-24 -119,-37 -202,-68 -362,-177 -435,-388 -21,-60 -27,-119 -20,-174 -37,-50 -68,-104 -95,-162 -23,-52 4,-103 58,-118 109,-29 221,-44 335,-47 155,-92 319,-164 496,-208 265,-64 535,-61 789,43 192,79 296,255 327,454 32,198 0,399 -162,532 -36,30 -75,53 -118,72 -86,39 -175,66 -265,84 -186,106 -375,114 -586,57 -79,-21 -147,-59 -205,-108z"/>
  <path class="fil1" d="M607 1415c-2,-2 -4,-5 -6,-8 -45,-54 -82,-116 -112,-182 -21,-3 -42,-11 -62,-25 -103,-74 -199,-157 -279,-253 2,32 9,65 20,100 72,206 233,299 406,357 9,3 18,6 27,9 2,1 4,1 6,2z"/>
  <path class="fil1" d="M1632 811c75,67 159,130 104,358 -25,105 -114,211 -242,297 -214,143 -415,132 -600,83 -157,-42 -273,-160 -354,-329 14,-4 29,-11 43,-20 76,-47 147,-96 215,-154 98,-84 184,-181 263,-283 39,-50 19,-111 -43,-127 -167,-42 -343,-71 -520,-75 127,-69 263,-125 411,-161 275,-67 531,-53 759,41 174,71 269,232 298,417 48,297 -72,472 -252,552 -42,19 -86,36 -130,49 90,-72 172,-168 199,-279 21,-88 32,-188 -8,-273 -22,-48 -54,-80 -91,-113 21,-3 43,-2 67,3 15,4 30,-42 10,-46 -92,-22 -177,4 -231,81 -10,15 23,46 37,30 21,-21 42,-38 65,-51z"/>
  <path class="fil2" d="M1316 1532c-266,39 -447,-80 -461,-512 -80,89 -172,161 -287,202 137,294 412,395 748,310z"/>
  <path class="fil2" d="M489 1225c-129,-27 -228,-138 -326,-252 54,212 201,346 417,424 -41,-54 -73,-111 -91,-172z"/>
  <path class="fil4" d="M1006 683c-342,-86 -659,-101 -927,-29 -28,8 -37,30 -27,52 66,146 182,296 403,455 33,23 65,21 103,-2 129,-80 272,-177 465,-425 20,-26 9,-45 -17,-51z"/>
  <path class="fil0" d="M280 871c-94,-95 -91,-164 -57,-215 -48,4 -94,12 -132,34 -12,7 -24,18 -12,39 88,156 208,288 351,394 42,31 89,30 126,3 44,-31 83,-68 124,-101 -147,-6 -289,-42 -400,-154z"/>
  <path class="fil0" d="M845 666c25,2 81,14 77,49 -3,34 -60,35 -85,33 -25,-3 -80,-15 -77,-49 3,-34 60,-35 85,-33z"/>
  <ellipse class="fil5" transform="matrix(0.995392 0.0958862 -0.0958862 0.995392 841.19 706.811)" rx="64" ry="23"/>
  <circle class="fil0" cx="717" cy="695" r="40"/>
  <circle class="fil5" cx="717" cy="695" r="22"/>
  <circle class="fil0" cx="753" cy="1311" r="23"/>
  <circle class="fil0" cx="699" cy="1234" r="23"/>
  <circle class="fil0" cx="807" cy="1222" r="23"/>
  <ellipse class="fil0" cx="472" cy="1304" rx="19" ry="23"/>
  <ellipse class="fil0" cx="446" cy="1240" rx="17" ry="20"/>
  <ellipse class="fil0" cx="401" cy="1263" rx="20" ry="23"/>
  <path class="fil0" d="M929 225c19,-23 38,-42 65,-58 37,-22 80,-31 123,-34 87,-6 188,25 231,106 55,100 25,196 -69,255 -98,62 -225,75 -321,2 -47,-35 -74,-86 -74,-145 0,-44 16,-92 45,-126z"/>
  <path class="fil5" d="M957 248c27,-33 65,-72 163,-79 93,-7 167,33 197,87 50,93 11,165 -57,208 -103,65 -210,57 -281,3 -87,-65 -63,-171 -22,-219z"/>
  <path class="fil0" d="M989 406c-33,-59 5,-111 73,-130 55,-15 117,12 140,53 23,41 -20,106 -69,121 -51,16 -127,-12 -144,-44z"/>
  <ellipse class="fil5" transform="matrix(0.945133 -0.326686 0.326686 0.945133 1132.38 351.888)" rx="38" ry="24"/>
  <path class="fil0" d="M1189 263c19,-23 39,-42 65,-58 37,-22 80,-31 124,-34 86,-6 187,25 231,106 54,100 24,196 -70,255 -98,62 -225,75 -321,2 -47,-35 -74,-86 -74,-145 1,-44 17,-92 45,-126z"/>
  <path class="fil5" d="M1217 286c27,-33 65,-72 163,-79 93,-7 168,33 197,87 50,93 11,164 -57,208 -102,65 -210,57 -280,3 -88,-65 -63,-171 -23,-219z"/>
  <path class="fil0" d="M1268 448c-33,-61 5,-114 73,-134 55,-15 117,12 140,55 23,42 -8,97 -65,119 -51,19 -131,-7 -148,-40z"/>
  <ellipse class="fil5" transform="matrix(0.927155 -0.374679 0.374679 0.927155 1413 394.063)" rx="42" ry="26"/>
  <circle class="fil0" cx="753" cy="1311" r="23"/>
  <path class="fil2" d="M1909 329c-65,17 -188,-52 -284,-152 185,131 262,141 261,63 36,40 55,81 23,89z"/>
  <path class="fil0" d="M1796 2241l-45 2c8,-62 3,-114 -4,-163 24,31 45,71 49,161zm50 -14l-38 6c13,-92 3,-140 -5,-192 31,41 57,89 43,186zm241 -53l-36 11c7,-71 -3,-109 -16,-140 27,23 53,49 52,129zm49 -10l-36 7c2,-67 -15,-116 -37,-161 34,28 62,68 73,154zm-1478 20l-27 -14c17,-103 49,-113 79,-132 -26,28 -47,68 -52,146zm43 6l-21 -12c5,-77 28,-95 52,-111 -21,33 -30,76 -31,123zm267 40l-35 -4c-4,-137 31,-151 60,-183 -18,43 -32,95 -25,187zm64 10l-36 1c-6,-98 14,-140 36,-175 -7,55 -13,110 0,174z"/>
  <path class="fil0" d="M2367 618l838 705 -909 523 -616 -519 15 -22c62,-92 86,-214 76,-324l-2 -19 598 -344z"/>
  <path class="fil6" d="M2364 654l789 664 -853 492 -580 -488c67,-99 91,-229 81,-344l563 -324z"/>
  <g id="_858243616">
   <path class="fil7" d="M2392 1142l5 0 156 -209 -25 -10c0,7 -27,46 -32,53 -13,19 -24,37 -36,55 -12,18 -23,34 -35,53l-16 28c-6,9 -14,18 -17,30z"/>
   <path class="fil7" d="M2355 1131l8 2c3,-27 45,-141 52,-178l17 -60c-7,-3 -13,-4 -20,-3 -6,4 -13,44 -16,58l-35 151c-2,11 -5,19 -6,30z"/>
  </g>
  <g id="_858244448">
   <path class="fil8" d="M1858 1299l7 17c14,0 104,-17 125,-21 15,-3 26,-6 41,-8l142 -26c6,-1 12,-3 20,-3l-2 -6c-17,-1 -32,5 -42,6l-125 17c-28,5 -55,8 -82,12l-84 12z"/>
   <path class="fil8" d="M2387 1331c3,7 4,8 7,14 4,7 4,9 9,16 6,9 11,19 16,29l12 22c2,3 3,5 5,8l84 148c7,-1 11,-2 17,-5 -7,-9 -12,-19 -18,-28 -24,-39 -67,-111 -91,-146 -13,-20 -11,-21 -17,-31 -2,-4 -16,-23 -17,-28l-7 1z"/>
  </g>
  <g id="_858244192">
   <path class="fil9" d="M2382 1136c1,2 0,2 4,4 2,0 4,1 6,2 3,-12 11,-21 17,-30l16 -28c12,-19 23,-35 35,-53 12,-18 23,-36 36,-55 5,-7 32,-46 32,-53l-24 -9 -62 113c-5,10 -55,105 -60,109z"/>
   <path class="fil9" d="M2363 1133l10 2c-2,-7 4,-20 8,-32 4,-10 8,-19 12,-28 19,-45 26,-81 43,-117 8,-18 14,-37 22,-56 -5,-4 -18,-6 -26,-7l-17 60c-7,37 -49,151 -52,178z"/>
  </g>
  <g id="_858242272">
   <path class="fil10" d="M2397 1142c4,5 3,4 9,6l8 -11c14,-19 20,-22 35,-41 7,-8 16,-18 23,-26l89 -99c8,-9 18,-18 19,-26l-27 -12 -156 209z"/>
   <path class="fil10" d="M2352 1131l3 0c1,-11 4,-19 6,-30l35 -151c3,-14 10,-54 16,-58 -5,-4 -17,-5 -24,-4l-5 1c-1,11 -3,21 -5,31 -2,12 -2,19 -4,31 -1,8 -3,21 -5,29l-22 147 5 4z"/>
  </g>
  <g id="_858241056">
   <path class="fil11" d="M1959 1438c3,5 7,6 11,10 6,6 8,7 15,11l0 -4c19,-8 229,-152 242,-155 -2,-3 0,-2 -3,-4 -3,-2 -1,-1 -4,-2 -5,0 -6,1 -10,3l-55 32c-60,32 -122,68 -181,99 -8,4 -10,4 -15,10z"/>
   <path class="fil11" d="M2376 1585l12 0 13 -4 -12 -63c-8,-27 -32,-170 -36,-179l-8 -1 31 247z"/>
  </g>
  <g id="_858240832">
   <path class="fil12" d="M1936 1415l23 23c5,-6 7,-6 15,-10 59,-31 121,-67 181,-99l55 -32c4,-2 5,-3 10,-3 -2,-4 1,0 -3,-5 -3,-3 0,6 -2,-2 0,0 -1,0 -1,0 -26,9 -47,21 -71,32l-193 88c-4,2 -12,4 -14,8z"/>
   <path class="fil12" d="M2388 1585l24 0 13 -2c1,-11 -10,-36 -11,-46 -4,-30 -45,-166 -54,-198l-7 0c4,9 28,152 36,179l12 63 -13 4z"/>
  </g>
  <g id="_853831584">
   <path class="fil13" d="M1916 1392c3,8 3,7 8,12 2,2 3,3 5,5 4,5 1,3 7,6 2,-4 10,-6 14,-8l193 -88c24,-11 45,-23 71,-32 -4,-4 -5,-5 -7,-8 -8,1 -22,7 -30,10l-227 89c-9,3 -29,9 -34,14z"/>
   <path class="fil13" d="M2338 1337l7 1 8 1 7 0c9,32 50,168 54,198 1,10 12,35 11,46l29 -3 -32 -91c-2,-5 -4,-9 -6,-14 -2,-6 -2,-12 -4,-18l-22 -60c-3,-9 -20,-55 -20,-62l-42 0 10 2z"/>
  </g>
  <g id="_853833344">
   <path class="fil14" d="M1893 1363c3,6 6,11 10,16 2,3 4,4 6,7 3,4 3,4 7,6 5,-5 25,-11 34,-14l227 -89c8,-3 22,-9 30,-10l-4 -6c-11,-2 -98,26 -117,33 -13,4 -26,8 -39,11 -24,6 -53,16 -77,23 -26,8 -51,15 -77,23z"/>
   <path class="fil14" d="M2454 1580l23 -3c-1,-11 -19,-49 -24,-60 -9,-20 -17,-40 -26,-60 -9,-20 -16,-42 -24,-62 -8,-18 -19,-39 -26,-59l-7 -1c0,7 17,53 20,62l22 60c2,6 2,12 4,18 2,5 4,9 6,14l32 91z"/>
  </g>
  <g id="_853832288">
   <path class="fil15" d="M2406 1148l14 8c3,-10 4,-8 11,-16l56 -53c22,-24 124,-113 130,-123l-37 -19c-1,8 -11,17 -19,26l-89 99c-7,8 -16,18 -23,26 -15,19 -21,22 -35,41l-8 11z"/>
   <path class="fil15" d="M2339 1129l13 2 -5 -4 22 -147c2,-8 4,-21 5,-29 2,-12 2,-19 4,-31 2,-10 4,-20 5,-31l5 -1c-3,-5 -26,-5 -32,-5 0,12 0,23 -2,32 -3,24 -1,35 -5,61l-3 63c0,7 -2,22 -3,29 -4,28 -3,32 -4,61z"/>
  </g>
  <g id="_853830944">
   <path class="fil16" d="M1923 1012c7,3 12,6 18,9l267 146c6,-3 5,-2 9,-7l-259 -168c-4,-3 -3,-3 -8,-4 -9,3 -8,5 -15,11 -2,2 -4,3 -6,6 -5,4 -3,2 -6,7z"/>
   <path class="fil16" d="M2462 1286l43 17c26,13 256,97 269,107 0,-1 1,-2 1,-1l7 -10c3,-4 5,-7 7,-12 -7,-5 -146,-50 -160,-55l-121 -41c-12,-3 -32,-12 -42,-13l-4 8z"/>
  </g>
  <g id="_853830688">
   <path class="fil17" d="M1847 1264l11 35 84 -12c27,-4 54,-7 82,-12l125 -17c10,-1 25,-7 42,-6 -1,-5 -2,-8 -5,-12l-1 2c-42,3 -131,7 -169,12l-169 10z"/>
   <path class="fil17" d="M2394 1330c1,5 15,24 17,28 6,10 4,11 17,31 24,35 67,107 91,146 6,9 11,19 18,28 8,0 20,-4 27,-8l-144 -198c-4,-5 -5,-10 -9,-15 -3,-5 -8,-8 -8,-15l-9 3z"/>
  </g>
  <g id="_853830112">
   <path class="fil18" d="M1841 1229l6 35 169 -10c38,-5 127,-9 169,-12l1 -2 0 -28c-4,7 -5,11 -1,19l-344 -2z"/>
   <path class="fil18" d="M2403 1327c0,7 5,10 8,15 4,5 5,10 9,15l144 198 33 -12c-7,0 -9,-7 -13,-11l-169 -199c-4,-7 -4,-3 -2,-9l-10 3z"/>
  </g>
  <g id="_858732304">
   <path class="fil19" d="M2420 1156l6 3c9,-3 49,-34 59,-42l57 -43c8,-6 110,-78 113,-85 -4,-5 -30,-21 -38,-25 -6,10 -108,99 -130,123l-56 53c-7,8 -8,6 -11,16z"/>
   <path class="fil19" d="M2325 1128l6 0 8 1c1,-29 0,-33 4,-61 1,-7 3,-22 3,-29l3 -63c4,-26 2,-37 5,-61 2,-9 2,-20 2,-32 -12,-2 -25,-4 -37,-2l-8 1c0,41 6,80 6,123l5 59c2,18 3,46 3,64z"/>
  </g>
  <g id="_858732208">
   <path class="fil20" d="M2472 1265c8,0 13,2 20,4l317 73c4,-7 7,-20 7,-29l0 -7 -342 -52 -2 11z"/>
   <path class="fil20" d="M1977 967c9,1 6,1 17,9l108 82c21,15 41,30 62,46 10,8 19,16 30,24 9,6 26,17 31,26l8 -5c-1,-7 2,-3 -5,-9l-217 -192 -6 2c-6,1 -1,-1 -8,3l-15 9c-2,2 -2,2 -3,3 -1,0 -1,1 -1,1 -1,0 -1,1 -1,1z"/>
  </g>
  <g id="_858731792">
   <path class="fil21" d="M2466 1278c10,1 30,10 42,13l121 41c14,5 153,50 160,55 6,-6 17,-33 20,-45l-317 -73c-7,-2 -12,-4 -20,-4l-6 13z"/>
   <path class="fil21" d="M1950 988c5,1 4,1 8,4l259 168 8 -6c-5,-9 -22,-20 -31,-26 -11,-8 -20,-16 -30,-24 -21,-16 -41,-31 -62,-46l-108 -82c-11,-8 -8,-8 -17,-9 -8,3 -24,14 -27,21z"/>
  </g>
  <g id="_858731600">
   <path class="fil22" d="M1865 1316c5,8 8,16 13,24 5,9 9,17 15,23 26,-8 51,-15 77,-23 24,-7 53,-17 77,-23 13,-3 26,-7 39,-11 19,-7 106,-35 117,-33l-10 -15c-8,0 -14,2 -20,3l-142 26c-15,2 -26,5 -41,8 -21,4 -111,21 -125,21z"/>
   <path class="fil22" d="M2370 1335l7 1c7,20 18,41 26,59 8,20 15,42 24,62 9,20 17,40 26,60 5,11 23,49 24,60l43 -9 -84 -148c-2,-3 -3,-5 -5,-8l-12 -22c-5,-10 -10,-20 -16,-29 -5,-7 -5,-9 -9,-16 -3,-6 -4,-7 -7,-14l-17 4z"/>
  </g>
  <g id="_858731120">
   <path class="fil23" d="M2466 1202l5 14c14,-2 31,-1 46,-1 30,-1 130,-14 167,-16l62 -6c9,-1 15,-2 22,-2 15,-1 30,-3 43,-4 -4,-14 -15,-46 -24,-53 -1,2 0,2 -2,4l-238 49c-14,3 -28,3 -40,8 -8,4 -30,7 -41,7z"/>
   <path class="fil23" d="M2120 901l36 59c7,10 12,19 19,29l47 73c1,2 2,4 4,7l38 59c4,7 0,3 6,6l8 -2c-2,-11 -85,-159 -95,-179 -6,-11 -30,-52 -30,-59l-33 7z"/>
  </g>
  <g id="_858730896">
   <path class="fil24" d="M2471 1216c5,9 5,24 4,36 5,-6 3,-8 4,-16l339 5c1,16 1,6 4,10l0 -12c-4,-10 -5,-37 -11,-52 -13,1 -28,3 -43,4 -7,0 -13,1 -22,2l-62 6c-37,2 -137,15 -167,16 -15,0 -32,-1 -46,1z"/>
   <path class="fil24" d="M2062 921c4,9 4,7 11,14l143 163c22,19 10,9 18,20 2,3 -1,-1 3,3l13 13c2,3 0,-2 2,5l18 -5c-6,-3 -2,1 -6,-6l-38 -59c-2,-3 -3,-5 -4,-7l-47 -73c-7,-10 -12,-19 -19,-29l-36 -59c-10,3 -20,7 -30,9l-28 11z"/>
  </g>
  <g id="_868383120">
   <path class="fil25" d="M2145 1547l81 22c0,-12 4,-18 9,-32 3,-10 6,-19 9,-29l37 -114c3,-12 5,-19 8,-30 3,-11 8,-19 9,-30l5 -1c-5,-2 -5,-2 -11,-4 -6,-1 -5,-1 -11,-3 -11,4 -16,22 -24,31 -1,2 -1,1 -2,4 -12,18 0,9 -14,24 -6,7 -1,0 -6,10 -2,4 -1,2 -2,4l-6 7c-6,10 -9,16 -20,25l3 15c-10,6 -6,5 -17,23 -5,10 -10,18 -15,27 -8,13 -24,45 -33,51z"/>
   <path class="fil25" d="M2009 1477c7,8 35,22 46,29 10,-5 92,-90 110,-108 6,-5 7,-8 12,-13l60 -59c6,-6 6,-9 14,-11l-16 -10c-10,4 -58,44 -72,54l-99 75c-8,6 -49,35 -55,43z"/>
   <path class="fil25" d="M2302 1581c12,1 24,4 35,1l12 -1c-1,-83 -8,-159 -11,-244l-10 -2 -9 0c0,22 -1,44 -2,64l-15 182z"/>
  </g>
  <g id="_868383568">
   <path class="fil26" d="M2475 1252l-1 2 342 52 0 7c1,-2 1,-1 2,-4 0,-2 1,-6 1,-8 1,-5 1,-7 3,-13l0 -37c-3,-4 -3,6 -4,-10l-339 -5c-1,8 1,10 -4,16z"/>
   <path class="fil26" d="M2005 950l6 -2 217 192c7,6 4,2 5,9l19 -10c-2,-7 0,-2 -2,-5l-13 -13c-4,-4 -1,0 -3,-3 -8,-11 4,-1 -18,-20l-143 -163c-7,-7 -7,-5 -11,-14 -11,6 -21,9 -30,13 -6,3 -10,6 -15,8 -6,3 -8,3 -12,8z"/>
  </g>
  <g id="_868381008">
   <path class="fil27" d="M1848 1142c2,6 9,6 15,7l170 30c7,2 15,3 22,4 14,3 30,6 42,8l88 14c2,-6 0,0 3,-3l8 -17c-8,0 -12,1 -17,-2 -1,0 -1,-1 -1,-1 -1,0 -1,0 -2,-1 -17,-9 -60,-23 -83,-30 -6,-2 -14,-4 -20,-6 -14,-4 -27,-8 -41,-13l-111 -39c-5,-1 -5,-1 -10,-2 -7,-3 -32,-9 -38,-14 -8,8 -11,19 -16,30 -4,13 -9,22 -9,35z"/>
   <path class="fil27" d="M2432 1313c6,16 4,5 14,14l26 24c5,5 11,7 16,12l14 13c5,6 4,1 8,5l138 117c5,5 10,7 14,13 11,-4 52,-32 59,-42l-222 -135c-4,-2 -4,0 -9,-4 -2,-1 -3,-3 -4,-3l-31 -19c-6,-3 -5,0 -6,-7 -5,2 -11,8 -17,12z"/>
  </g>
  <g id="_868381168">
   <path class="fil28" d="M2055 1506c16,7 27,14 44,21 6,3 44,18 46,20 9,-6 25,-38 33,-51 5,-9 10,-17 15,-27 11,-18 7,-17 17,-23l-3 -15c11,-9 14,-15 20,-25l6 -7c1,-2 0,0 2,-4 5,-10 0,-3 6,-10 14,-15 2,-6 14,-24 1,-3 1,-2 2,-4 8,-9 13,-27 24,-31 -6,-1 -10,-3 -16,-5 -3,-2 -4,-2 -6,-3 -7,-4 0,-2 -8,-3 -8,2 -8,5 -14,11l-60 59c-5,5 -6,8 -12,13 -18,18 -100,103 -110,108z"/>
   <path class="fil28" d="M2226 1569l76 12 15 -182c1,-20 2,-42 2,-64 -7,-1 0,0 -5,-1 0,0 -2,0 -3,-1 -7,0 -3,0 -8,0l-5 1c-1,11 -6,19 -9,30 -3,11 -5,18 -8,30l-37 114c-3,10 -6,19 -9,29 -5,14 -9,20 -9,32z"/>
  </g>
  <g id="_868381712">
   <path class="fil29" d="M1873 1077c6,5 31,11 38,14 5,1 5,1 10,2l111 39c14,5 27,9 41,13 6,2 14,4 20,6 23,7 66,21 83,30 1,1 1,1 2,1 0,0 0,1 1,1 5,3 9,2 17,2 1,-3 3,-6 6,-9 3,-3 2,-1 4,-4 3,-5 1,-1 2,-5l-267 -146c-6,-3 -11,-6 -18,-9 -3,1 0,-1 -4,3 -10,8 -42,48 -46,62z"/>
   <path class="fil29" d="M2449 1301c1,7 0,4 6,7l31 19c1,0 2,2 4,3 5,4 5,2 9,4l222 135c12,-10 18,-16 28,-27 7,-8 22,-22 25,-32 -13,-10 -243,-94 -269,-107l-43 -17c-5,4 -10,10 -13,15z"/>
   <path class="fil29" d="M1985 1459c1,3 0,1 4,4 3,3 4,3 7,5 5,4 7,6 13,9 6,-8 47,-37 55,-43l99 -75c14,-10 62,-50 72,-54 0,0 -1,-1 -1,-1l-3 -3c-4,-3 1,0 -4,-1 -13,3 -223,147 -242,155l0 4z"/>
   <path class="fil29" d="M2337 1582l0 3 39 0 -31 -247 -7 -1c3,85 10,161 11,244l-12 1z"/>
  </g>
  <g id="_858826048">
   <path class="fil30" d="M2426 1159c4,4 6,6 11,9 6,4 6,7 11,10 14,-2 42,-18 55,-24 6,-3 45,-15 54,-22l171 -81c-8,-12 -56,-54 -73,-62 -3,7 -105,79 -113,85l-57 43c-10,8 -50,39 -59,42z"/>
   <path class="fil30" d="M2233 881l-8 4c2,5 8,25 10,30l45 151c5,16 0,10 8,32 2,8 6,21 9,28l28 2c0,-18 -1,-46 -3,-64l-5 -59c0,-43 -6,-82 -6,-123l8 -1 0 -2 -70 0 -16 2z"/>
  </g>
  <g id="_858827520">
   <path class="fil31" d="M1839 1174l0 44 2 11 344 2c-4,-8 -3,-12 1,-19l2 -10c-3,3 -1,-3 -3,3l-88 -14c-12,-2 -28,-5 -42,-8 -7,-1 -15,-2 -22,-4l-170 -30c-6,-1 -13,-1 -15,-7 -6,7 -4,21 -9,32z"/>
   <path class="fil31" d="M2413 1324c-2,6 -2,2 2,9l169 199c4,4 6,11 13,11 15,-3 57,-23 65,-32 -4,-6 -9,-8 -14,-13l-138 -117c-4,-4 -3,1 -8,-5l-14 -13c-5,-5 -11,-7 -16,-12l-26 -24c-10,-9 -8,2 -14,-14 -5,2 -15,8 -19,11z"/>
  </g>
  <g id="_858826432">
   <path class="fil32" d="M2448 1178c7,7 11,17 18,24 11,0 33,-3 41,-7 12,-5 26,-5 40,-8l238 -49c2,-2 1,-2 2,-4 0,-8 -5,-15 -11,-23 -4,-6 -9,-14 -14,-21 -8,-11 -24,-31 -34,-39l-171 81c-9,7 -48,19 -54,22 -13,6 -41,22 -55,24z"/>
   <path class="fil32" d="M2153 894c0,7 24,48 30,59 10,20 93,168 95,179 17,-3 34,-4 53,-4l-6 0 -28 -2c-3,-7 -7,-20 -9,-28 -8,-22 -3,-16 -8,-32l-45 -151c-2,-5 -8,-25 -10,-30l8 -4c-24,2 -58,6 -80,13z"/>
  </g>
  <path class="fil33" d="M2373 1135l9 1c5,-4 55,-99 60,-109l62 -113c-6,-2 -14,-5 -22,-7 -3,-1 -7,-2 -10,-3 -9,-2 -6,-2 -14,-2 -8,19 -14,38 -22,56 -17,36 -24,72 -43,117 -4,9 -8,18 -12,28 -4,12 -10,25 -8,32z"/>
  <circle class="fil5" transform="matrix(0.291194 0.0369089 -0.026183 0.206572 2330.65 1232)" r="496"/>
  <circle class="fil6 str0" transform="matrix(0.119391 0.0151328 -0.0107352 0.0846956 2330.65 1232)" r="496"/>
  <path class="fil0" d="M2058 1882c-18,18 13,31 20,23 49,-50 51,-93 34,-132 -12,-25 -44,0 -35,18 19,38 7,65 -19,91zm61 1c12,-12 23,-25 19,-51 -2,-17 30,-26 34,0 3,24 -1,54 -32,72 -18,11 -35,-7 -21,-21z"/>
 </g>
</svg>
