<?xml version="1.0" standalone="yes"?>
<svg width="100%" height="100%" version="1.1" xmlns = "http://www.w3.org/2000/svg">
  <defs>
    <font id="font" horiz-adv-x="0">
      <font-face
        font-family="Vga Unicode"
        font-weight="Medium"
        font-style="normal"
        units-per-em="512"
        cap-height="512"
        x-height="512"
        ascent="512"
        descent="0">
        <font-face-src>
          <font-face-name name="Vga Unicode"/>
        </font-face-src>
      </font-face>
      <missing-glyph horiz-adv-x='256' d='M0,448 L63,448 L64,447 L64,417 L63,416 L0,416 ZM97,448 L159,448 L160,447 L160,417 L159,416 L97,416 L96,417 L96,447 ZM193,448 L223,448 L224,447 L224,385 L223,384 L193,384 L192,385 L192,447 ZM0,384 L31,384 L32,383 L32,321 L31,320 L0,320 ZM193,352 L223,352 L224,351 L224,289 L223,288 L193,288 L192,289 L192,351 ZM0,288 L31,288 L32,287 L32,225 L31,224 L0,224 ZM193,256 L223,256 L224,255 L224,193 L223,192 L193,192 L192,193 L192,255 ZM0,192 L31,192 L32,191 L32,129 L31,128 L0,128 ZM65,160 L127,160 L128,159 L128,129 L127,128 L65,128 L64,129 L64,159 ZM161,160 L223,160 L224,159 L224,129 L223,128 L161,128 L160,129 L160,159 Z'></missing-glyph>
      <glyph unicode='&#x20;' horiz-adv-x='256' d=''></glyph>
      <glyph unicode='&#x21;' horiz-adv-x='256' d='M97,448 L159,448 L160,447 L160,416 L191,416 L192,415 L192,321 L191,320 L160,320 L160,225 L159,224 L97,224 L96,225 L96,320 L65,320 L64,321 L64,415 L65,416 L96,416 L96,447 ZM97,192 L159,192 L160,191 L160,129 L159,128 L97,128 L96,129 L96,191 Z'></glyph>
      <glyph unicode='&#x22;' horiz-adv-x='256' d='M33,480 L95,480 L96,479 L96,353 L95,352 L65,352 L64,353 L64,384 L33,384 L32,385 L32,479 ZM161,480 L223,480 L224,479 L224,385 L223,384 L192,384 L192,353 L191,352 L161,352 L160,353 L160,479 Z'></glyph>
      <glyph unicode='&#x23;' horiz-adv-x='256' d='M33,416 L95,416 L96,415 L96,352 L128,352 L128,415 L129,416 L191,416 L192,415 L192,352 L223,352 L224,351 L224,321 L223,320 L192,320 L192,224 L223,224 L224,223 L224,193 L223,192 L192,192 L192,129 L191,128 L129,128 L128,129 L128,192 L96,192 L96,129 L95,128 L33,128 L32,129 L32,192 L0,192 L0,224 L32,224 L32,320 L0,320 L0,352 L32,352 L32,415 ZM128,320 L96,320 L96,224 L128,224 Z'></glyph>
      <glyph unicode='&#x24;' horiz-adv-x='256' d='M96,512 L160,512 L160,448 L191,448 L192,447 L192,416 L223,416 L224,415 L224,353 L223,352 L193,352 L192,353 L192,384 L161,384 L160,385 L160,416 L64,416 L64,320 L191,320 L192,319 L192,288 L223,288 L224,287 L224,161 L223,160 L192,160 L192,129 L191,128 L160,128 L160,65 L159,64 L97,64 L96,65 L96,128 L33,128 L32,129 L32,160 L0,160 L0,224 L31,224 L32,223 L32,192 L63,192 L64,191 L64,160 L160,160 L160,288 L33,288 L32,289 L32,320 L0,320 L0,416 L32,416 L32,447 L33,448 L96,448 Z'></glyph>
      <glyph unicode='&#x25;' horiz-adv-x='256' d='M0,384 L63,384 L64,383 L64,321 L63,320 L0,320 ZM193,384 L223,384 L224,383 L224,321 L223,320 L192,320 L192,289 L191,288 L160,288 L160,257 L159,256 L128,256 L128,225 L127,224 L96,224 L96,193 L95,192 L64,192 L64,161 L63,160 L32,160 L32,129 L31,128 L0,128 L0,192 L32,192 L32,223 L33,224 L64,224 L64,255 L65,256 L96,256 L96,287 L97,288 L128,288 L128,319 L129,320 L160,320 L160,351 L161,352 L192,352 L192,383 ZM161,192 L223,192 L224,191 L224,129 L223,128 L161,128 L160,129 L160,191 Z'></glyph>
      <glyph unicode='&#x26;' horiz-adv-x='256' d='M65,448 L159,448 L160,447 L160,416 L191,416 L192,415 L192,353 L191,352 L160,352 L160,321 L159,320 L128,320 L128,288 L160,288 L160,319 L161,320 L223,320 L224,319 L224,289 L223,288 L192,288 L192,160 L223,160 L224,159 L224,129 L223,128 L161,128 L160,129 L160,160 L129,160 L128,161 L128,256 L97,256 L96,257 L96,288 L64,288 L64,160 L127,160 L128,159 L128,129 L127,128 L33,128 L32,129 L32,160 L0,160 L0,288 L32,288 L32,319 L33,320 L64,320 L64,352 L33,352 L32,353 L32,415 L33,416 L64,416 L64,447 ZM128,416 L96,416 L96,352 L128,352 Z'></glyph>
      <glyph unicode='&#x27;' horiz-adv-x='256' d='M65,480 L127,480 L128,479 L128,385 L127,384 L96,384 L96,353 L95,352 L65,352 L64,353 L64,479 Z'></glyph>
      <glyph unicode='&#x28;' horiz-adv-x='256' d='M129,448 L191,448 L192,447 L192,417 L191,416 L160,416 L160,385 L159,384 L128,384 L128,192 L159,192 L160,191 L160,160 L191,160 L192,159 L192,129 L191,128 L129,128 L128,129 L128,160 L97,160 L96,161 L96,192 L65,192 L64,193 L64,383 L65,384 L96,384 L96,415 L97,416 L128,416 L128,447 Z'></glyph>
      <glyph unicode='&#x29;' horiz-adv-x='256' d='M65,448 L127,448 L128,447 L128,416 L159,416 L160,415 L160,384 L191,384 L192,383 L192,193 L191,192 L160,192 L160,161 L159,160 L128,160 L128,129 L127,128 L65,128 L64,129 L64,159 L65,160 L96,160 L96,191 L97,192 L128,192 L128,384 L97,384 L96,385 L96,416 L65,416 L64,417 L64,447 Z'></glyph>
      <glyph unicode='&#x2A;' horiz-adv-x='256' d='M33,352 L95,352 L96,351 L96,320 L160,320 L160,351 L161,352 L223,352 L224,351 L224,321 L223,320 L192,320 L192,288 L256,288 L256,256 L192,256 L192,224 L223,224 L224,223 L224,193 L223,192 L161,192 L160,193 L160,224 L96,224 L96,193 L95,192 L33,192 L32,193 L32,223 L33,224 L64,224 L64,256 L0,256 L0,288 L64,288 L64,320 L33,320 L32,321 L32,351 Z'></glyph>
      <glyph unicode='&#x2B;' horiz-adv-x='256' d='M97,352 L159,352 L160,351 L160,288 L223,288 L224,287 L224,257 L223,256 L160,256 L160,193 L159,192 L97,192 L96,193 L96,256 L33,256 L32,257 L32,287 L33,288 L96,288 L96,351 Z'></glyph>
      <glyph unicode='&#x2C;' horiz-adv-x='256' d='M97,224 L159,224 L160,223 L160,129 L159,128 L128,128 L128,97 L127,96 L65,96 L64,97 L64,127 L65,128 L96,128 L96,223 Z'></glyph>
      <glyph unicode='&#x2D;' horiz-adv-x='256' d='M0,288 L223,288 L224,287 L224,257 L223,256 L0,256 Z'></glyph>
      <glyph unicode='&#x2E;' horiz-adv-x='256' d='M97,192 L159,192 L160,191 L160,129 L159,128 L97,128 L96,129 L96,191 Z'></glyph>
      <glyph unicode='&#x2F;' horiz-adv-x='256' d='M193,384 L223,384 L224,383 L224,321 L223,320 L192,320 L192,289 L191,288 L160,288 L160,257 L159,256 L128,256 L128,225 L127,224 L96,224 L96,193 L95,192 L64,192 L64,161 L63,160 L32,160 L32,129 L31,128 L0,128 L0,192 L32,192 L32,223 L33,224 L64,224 L64,255 L65,256 L96,256 L96,287 L97,288 L128,288 L128,319 L129,320 L160,320 L160,351 L161,352 L192,352 L192,383 Z'></glyph>
      <glyph unicode='&#x30;' horiz-adv-x='256' d='M65,448 L159,448 L160,447 L160,416 L191,416 L192,415 L192,384 L223,384 L224,383 L224,193 L223,192 L192,192 L192,161 L191,160 L160,160 L160,129 L159,128 L65,128 L64,129 L64,160 L33,160 L32,161 L32,192 L0,192 L0,384 L32,384 L32,415 L33,416 L64,416 L64,447 ZM128,416 L96,416 L96,385 L95,384 L64,384 L64,192 L95,192 L96,191 L96,160 L128,160 L128,191 L129,192 L160,192 L160,384 L129,384 L128,385 ZM97,320 L127,320 L128,319 L128,257 L127,256 L97,256 L96,257 L96,319 Z'></glyph>
      <glyph unicode='&#x31;' horiz-adv-x='256' d='M97,448 L159,448 L160,447 L160,160 L223,160 L224,159 L224,129 L223,128 L33,128 L32,129 L32,159 L33,160 L96,160 L96,352 L33,352 L32,353 L32,383 L33,384 L64,384 L64,415 L65,416 L96,416 L96,447 Z'></glyph>
      <glyph unicode='&#x32;' horiz-adv-x='256' d='M33,448 L191,448 L192,447 L192,416 L223,416 L224,415 L224,353 L223,352 L192,352 L192,321 L191,320 L160,320 L160,289 L159,288 L128,288 L128,257 L127,256 L96,256 L96,225 L95,224 L64,224 L64,160 L160,160 L160,191 L161,192 L223,192 L224,191 L224,129 L223,128 L0,128 L0,224 L32,224 L32,255 L33,256 L64,256 L64,287 L65,288 L96,288 L96,319 L97,320 L128,320 L128,351 L129,352 L160,352 L160,416 L64,416 L64,385 L63,384 L0,384 L0,416 L32,416 L32,447 Z'></glyph>
      <glyph unicode='&#x33;' horiz-adv-x='256' d='M33,448 L191,448 L192,447 L192,416 L223,416 L224,415 L224,321 L223,320 L192,320 L192,288 L223,288 L224,287 L224,161 L223,160 L192,160 L192,129 L191,128 L33,128 L32,129 L32,160 L0,160 L0,192 L63,192 L64,191 L64,160 L160,160 L160,288 L65,288 L64,289 L64,319 L65,320 L160,320 L160,416 L64,416 L64,385 L63,384 L0,384 L0,416 L32,416 L32,447 Z'></glyph>
      <glyph unicode='&#x34;' horiz-adv-x='256' d='M129,448 L191,448 L192,447 L192,288 L223,288 L224,287 L224,257 L223,256 L192,256 L192,160 L223,160 L224,159 L224,129 L223,128 L97,128 L96,129 L96,159 L97,160 L128,160 L128,256 L0,256 L0,320 L32,320 L32,351 L33,352 L64,352 L64,383 L65,384 L96,384 L96,415 L97,416 L128,416 L128,447 ZM128,352 L96,352 L96,321 L95,320 L64,320 L64,288 L128,288 Z'></glyph>
      <glyph unicode='&#x35;' horiz-adv-x='256' d='M0,448 L223,448 L224,447 L224,417 L223,416 L64,416 L64,320 L191,320 L192,319 L192,288 L223,288 L224,287 L224,161 L223,160 L192,160 L192,129 L191,128 L33,128 L32,129 L32,160 L0,160 L0,192 L63,192 L64,191 L64,160 L160,160 L160,288 L0,288 Z'></glyph>
      <glyph unicode='&#x36;' horiz-adv-x='256' d='M65,448 L159,448 L160,447 L160,417 L159,416 L96,416 L96,385 L95,384 L64,384 L64,320 L191,320 L192,319 L192,288 L223,288 L224,287 L224,161 L223,160 L192,160 L192,129 L191,128 L33,128 L32,129 L32,160 L0,160 L0,384 L32,384 L32,415 L33,416 L64,416 L64,447 ZM96,288 L64,288 L64,160 L160,160 L160,288 Z'></glyph>
      <glyph unicode='&#x37;' horiz-adv-x='256' d='M0,448 L223,448 L224,447 L224,321 L223,320 L192,320 L192,289 L191,288 L160,288 L160,257 L159,256 L128,256 L128,129 L127,128 L65,128 L64,129 L64,255 L65,256 L96,256 L96,287 L97,288 L128,288 L128,319 L129,320 L160,320 L160,416 L64,416 L64,385 L63,384 L0,384 Z'></glyph>
      <glyph unicode='&#x38;' horiz-adv-x='256' d='M33,448 L191,448 L192,447 L192,416 L223,416 L224,415 L224,321 L223,320 L192,320 L192,288 L223,288 L224,287 L224,161 L223,160 L192,160 L192,129 L191,128 L33,128 L32,129 L32,160 L0,160 L0,288 L32,288 L32,320 L0,320 L0,416 L32,416 L32,447 ZM96,416 L64,416 L64,320 L160,320 L160,416 ZM96,288 L64,288 L64,160 L160,160 L160,288 Z'></glyph>
      <glyph unicode='&#x39;' horiz-adv-x='256' d='M33,448 L191,448 L192,447 L192,416 L223,416 L224,415 L224,193 L223,192 L192,192 L192,161 L191,160 L160,160 L160,129 L159,128 L33,128 L32,129 L32,159 L33,160 L128,160 L128,191 L129,192 L160,192 L160,288 L33,288 L32,289 L32,320 L0,320 L0,416 L32,416 L32,447 ZM96,416 L64,416 L64,320 L160,320 L160,416 Z'></glyph>
      <glyph unicode='&#x3A;' horiz-adv-x='256' d='M97,384 L159,384 L160,383 L160,321 L159,320 L97,320 L96,321 L96,383 ZM97,224 L159,224 L160,223 L160,161 L159,160 L97,160 L96,161 L96,223 Z'></glyph>
      <glyph unicode='&#x3B;' horiz-adv-x='256' d='M97,384 L159,384 L160,383 L160,321 L159,320 L97,320 L96,321 L96,383 ZM97,224 L159,224 L160,223 L160,161 L159,160 L128,160 L128,129 L127,128 L65,128 L64,129 L64,159 L65,160 L96,160 L96,223 Z'></glyph>
      <glyph unicode='&#x3C;' horiz-adv-x='256' d='M161,416 L223,416 L224,415 L224,385 L223,384 L192,384 L192,353 L191,352 L160,352 L160,321 L159,320 L128,320 L128,289 L127,288 L96,288 L96,256 L127,256 L128,255 L128,224 L159,224 L160,223 L160,192 L191,192 L192,191 L192,160 L223,160 L224,159 L224,129 L223,128 L161,128 L160,129 L160,160 L129,160 L128,161 L128,192 L97,192 L96,193 L96,224 L65,224 L64,225 L64,256 L33,256 L32,257 L32,287 L33,288 L64,288 L64,319 L65,320 L96,320 L96,351 L97,352 L128,352 L128,383 L129,384 L160,384 L160,415 Z'></glyph>
      <glyph unicode='&#x3D;' horiz-adv-x='256' d='M33,352 L223,352 L224,351 L224,321 L223,320 L33,320 L32,321 L32,351 ZM33,256 L223,256 L224,255 L224,225 L223,224 L33,224 L32,225 L32,255 Z'></glyph>
      <glyph unicode='&#x3E;' horiz-adv-x='256' d='M33,416 L95,416 L96,415 L96,384 L127,384 L128,383 L128,352 L159,352 L160,351 L160,320 L191,320 L192,319 L192,288 L223,288 L224,287 L224,257 L223,256 L192,256 L192,225 L191,224 L160,224 L160,193 L159,192 L128,192 L128,161 L127,160 L96,160 L96,129 L95,128 L33,128 L32,129 L32,159 L33,160 L64,160 L64,191 L65,192 L96,192 L96,223 L97,224 L128,224 L128,255 L129,256 L160,256 L160,288 L129,288 L128,289 L128,320 L97,320 L96,321 L96,352 L65,352 L64,353 L64,384 L33,384 L32,385 L32,415 Z'></glyph>
      <glyph unicode='&#x3F;' horiz-adv-x='256' d='M33,448 L191,448 L192,447 L192,416 L223,416 L224,415 L224,353 L223,352 L192,352 L192,321 L191,320 L160,320 L160,225 L159,224 L97,224 L96,225 L96,319 L97,320 L128,320 L128,351 L129,352 L160,352 L160,416 L64,416 L64,353 L63,352 L0,352 L0,416 L32,416 L32,447 ZM97,192 L159,192 L160,191 L160,129 L159,128 L97,128 L96,129 L96,191 Z'></glyph>
      <glyph unicode='&#x40;' horiz-adv-x='256' d='M33,416 L191,416 L192,415 L192,384 L223,384 L224,383 L224,225 L223,224 L192,224 L192,193 L191,192 L97,192 L96,193 L96,319 L97,320 L160,320 L160,384 L64,384 L64,160 L191,160 L192,159 L192,129 L191,128 L33,128 L32,129 L32,160 L0,160 L0,384 L32,384 L32,415 Z'></glyph>
      <glyph unicode='&#x41;' horiz-adv-x='256' d='M97,448 L127,448 L128,447 L128,416 L159,416 L160,415 L160,384 L191,384 L192,383 L192,352 L223,352 L224,351 L224,129 L223,128 L161,128 L160,129 L160,256 L64,256 L64,129 L63,128 L0,128 L0,352 L32,352 L32,383 L33,384 L64,384 L64,415 L65,416 L96,416 L96,447 ZM128,384 L96,384 L96,353 L95,352 L64,352 L64,288 L160,288 L160,352 L129,352 L128,353 Z'></glyph>
      <glyph unicode='&#x42;' horiz-adv-x='256' d='M0,448 L191,448 L192,447 L192,416 L223,416 L224,415 L224,321 L223,320 L192,320 L192,288 L223,288 L224,287 L224,161 L223,160 L192,160 L192,129 L191,128 L0,128 L0,160 L32,160 L32,416 L0,416 ZM128,416 L96,416 L96,320 L160,320 L160,416 ZM128,288 L96,288 L96,160 L160,160 L160,288 Z'></glyph>
      <glyph unicode='&#x43;' horiz-adv-x='256' d='M65,448 L191,448 L192,447 L192,416 L223,416 L224,415 L224,353 L223,352 L193,352 L192,353 L192,384 L161,384 L160,385 L160,416 L96,416 L96,385 L95,384 L64,384 L64,192 L95,192 L96,191 L96,160 L160,160 L160,191 L161,192 L192,192 L192,223 L193,224 L223,224 L224,223 L224,161 L223,160 L192,160 L192,129 L191,128 L65,128 L64,129 L64,160 L33,160 L32,161 L32,192 L0,192 L0,384 L32,384 L32,415 L33,416 L64,416 L64,447 Z'></glyph>
      <glyph unicode='&#x44;' horiz-adv-x='256' d='M0,448 L159,448 L160,447 L160,416 L191,416 L192,415 L192,384 L223,384 L224,383 L224,193 L223,192 L192,192 L192,161 L191,160 L160,160 L160,129 L159,128 L0,128 L0,160 L32,160 L32,416 L0,416 ZM128,416 L96,416 L96,160 L128,160 L128,191 L129,192 L160,192 L160,384 L129,384 L128,385 Z'></glyph>
      <glyph unicode='&#x45;' horiz-adv-x='256' d='M0,448 L223,448 L224,447 L224,353 L223,352 L193,352 L192,353 L192,384 L161,384 L160,385 L160,416 L96,416 L96,320 L128,320 L128,351 L129,352 L159,352 L160,351 L160,257 L159,256 L129,256 L128,257 L128,288 L96,288 L96,160 L160,160 L160,191 L161,192 L192,192 L192,223 L193,224 L223,224 L224,223 L224,129 L223,128 L0,128 L0,160 L32,160 L32,416 L0,416 Z'></glyph>
      <glyph unicode='&#x46;' horiz-adv-x='256' d='M0,448 L223,448 L224,447 L224,353 L223,352 L193,352 L192,353 L192,384 L161,384 L160,385 L160,416 L96,416 L96,320 L128,320 L128,351 L129,352 L159,352 L160,351 L160,257 L159,256 L129,256 L128,257 L128,288 L96,288 L96,160 L127,160 L128,159 L128,129 L127,128 L0,128 L0,160 L32,160 L32,416 L0,416 Z'></glyph>
      <glyph unicode='&#x47;' horiz-adv-x='256' d='M65,448 L191,448 L192,447 L192,416 L223,416 L224,415 L224,353 L223,352 L193,352 L192,353 L192,384 L161,384 L160,385 L160,416 L96,416 L96,385 L95,384 L64,384 L64,192 L95,192 L96,191 L96,160 L159,160 L160,159 L160,129 L159,128 L65,128 L64,129 L64,160 L33,160 L32,161 L32,192 L0,192 L0,384 L32,384 L32,415 L33,416 L64,416 L64,447 ZM97,288 L223,288 L224,287 L224,129 L223,128 L193,128 L192,129 L192,160 L161,160 L160,161 L160,256 L97,256 L96,257 L96,287 Z'></glyph>
      <glyph unicode='&#x48;' horiz-adv-x='256' d='M0,448 L63,448 L64,447 L64,320 L160,320 L160,447 L161,448 L223,448 L224,447 L224,129 L223,128 L161,128 L160,129 L160,288 L64,288 L64,129 L63,128 L0,128 Z'></glyph>
      <glyph unicode='&#x49;' horiz-adv-x='256' d='M65,448 L191,448 L192,447 L192,417 L191,416 L160,416 L160,160 L191,160 L192,159 L192,129 L191,128 L65,128 L64,129 L64,159 L65,160 L96,160 L96,416 L65,416 L64,417 L64,447 Z'></glyph>
      <glyph unicode='&#x4A;' horiz-adv-x='256' d='M97,448 L223,448 L224,447 L224,417 L223,416 L192,416 L192,161 L191,160 L160,160 L160,129 L159,128 L33,128 L32,129 L32,160 L0,160 L0,256 L63,256 L64,255 L64,160 L128,160 L128,416 L97,416 L96,417 L96,447 Z'></glyph>
      <glyph unicode='&#x4B;' horiz-adv-x='256' d='M0,448 L95,448 L96,447 L96,320 L128,320 L128,351 L129,352 L160,352 L160,447 L161,448 L223,448 L224,447 L224,353 L223,352 L192,352 L192,321 L191,320 L160,320 L160,256 L191,256 L192,255 L192,224 L223,224 L224,223 L224,129 L223,128 L161,128 L160,129 L160,224 L129,224 L128,225 L128,256 L96,256 L96,129 L95,128 L0,128 L0,160 L32,160 L32,416 L0,416 Z'></glyph>
      <glyph unicode='&#x4C;' horiz-adv-x='256' d='M0,448 L127,448 L128,447 L128,417 L127,416 L96,416 L96,160 L160,160 L160,191 L161,192 L192,192 L192,223 L193,224 L223,224 L224,223 L224,129 L223,128 L0,128 L0,160 L32,160 L32,416 L0,416 Z'></glyph>
      <glyph unicode='&#x4D;' horiz-adv-x='256' d='M0,448 L63,448 L64,447 L64,416 L95,416 L96,415 L96,384 L128,384 L128,415 L129,416 L160,416 L160,447 L161,448 L223,448 L224,447 L224,129 L223,128 L161,128 L160,129 L160,320 L128,320 L128,289 L127,288 L97,288 L96,289 L96,320 L64,320 L64,129 L63,128 L0,128 Z'></glyph>
      <glyph unicode='&#x4E;' horiz-adv-x='256' d='M0,448 L63,448 L64,447 L64,416 L95,416 L96,415 L96,384 L127,384 L128,383 L128,352 L160,352 L160,447 L161,448 L223,448 L224,447 L224,129 L223,128 L161,128 L160,129 L160,256 L129,256 L128,257 L128,288 L97,288 L96,289 L96,320 L64,320 L64,129 L63,128 L0,128 Z'></glyph>
      <glyph unicode='&#x4F;' horiz-adv-x='256' d='M33,448 L191,448 L192,447 L192,416 L223,416 L224,415 L224,161 L223,160 L192,160 L192,129 L191,128 L33,128 L32,129 L32,160 L0,160 L0,416 L32,416 L32,447 ZM96,416 L64,416 L64,160 L160,160 L160,416 Z'></glyph>
      <glyph unicode='&#x50;' horiz-adv-x='256' d='M0,448 L191,448 L192,447 L192,416 L223,416 L224,415 L224,321 L223,320 L192,320 L192,289 L191,288 L96,288 L96,160 L127,160 L128,159 L128,129 L127,128 L0,128 L0,160 L32,160 L32,416 L0,416 ZM128,416 L96,416 L96,320 L160,320 L160,416 Z'></glyph>
      <glyph unicode='&#x51;' horiz-adv-x='256' d='M33,448 L191,448 L192,447 L192,416 L223,416 L224,415 L224,161 L223,160 L192,160 L192,96 L223,96 L224,95 L224,65 L223,64 L129,64 L128,65 L128,128 L33,128 L32,129 L32,160 L0,160 L0,416 L32,416 L32,447 ZM96,416 L64,416 L64,160 L96,160 L96,223 L97,224 L127,224 L128,223 L128,192 L160,192 L160,416 Z'></glyph>
      <glyph unicode='&#x52;' horiz-adv-x='256' d='M0,448 L191,448 L192,447 L192,416 L223,416 L224,415 L224,321 L223,320 L192,320 L192,256 L223,256 L224,255 L224,129 L223,128 L161,128 L160,129 L160,256 L129,256 L128,257 L128,288 L96,288 L96,129 L95,128 L0,128 L0,160 L32,160 L32,416 L0,416 ZM128,416 L96,416 L96,320 L160,320 L160,416 Z'></glyph>
      <glyph unicode='&#x53;' horiz-adv-x='256' d='M33,448 L191,448 L192,447 L192,416 L223,416 L224,415 L224,353 L223,352 L161,352 L160,353 L160,416 L64,416 L64,352 L95,352 L96,351 L96,320 L159,320 L160,319 L160,288 L191,288 L192,287 L192,256 L223,256 L224,255 L224,161 L223,160 L192,160 L192,129 L191,128 L33,128 L32,129 L32,160 L0,160 L0,224 L63,224 L64,223 L64,160 L160,160 L160,256 L129,256 L128,257 L128,288 L65,288 L64,289 L64,320 L33,320 L32,321 L32,352 L0,352 L0,416 L32,416 L32,447 Z'></glyph>
      <glyph unicode='&#x54;' horiz-adv-x='256' d='M33,448 L223,448 L224,447 L224,353 L223,352 L193,352 L192,353 L192,384 L160,384 L160,160 L191,160 L192,159 L192,129 L191,128 L65,128 L64,129 L64,159 L65,160 L96,160 L96,384 L64,384 L64,353 L63,352 L33,352 L32,353 L32,447 Z'></glyph>
      <glyph unicode='&#x55;' horiz-adv-x='256' d='M0,448 L63,448 L64,447 L64,160 L160,160 L160,447 L161,448 L223,448 L224,447 L224,161 L223,160 L192,160 L192,129 L191,128 L33,128 L32,129 L32,160 L0,160 Z'></glyph>
      <glyph unicode='&#x56;' horiz-adv-x='256' d='M0,448 L63,448 L64,447 L64,224 L95,224 L96,223 L96,192 L128,192 L128,223 L129,224 L160,224 L160,447 L161,448 L223,448 L224,447 L224,225 L223,224 L192,224 L192,193 L191,192 L160,192 L160,161 L159,160 L128,160 L128,129 L127,128 L97,128 L96,129 L96,160 L65,160 L64,161 L64,192 L33,192 L32,193 L32,224 L0,224 Z'></glyph>
      <glyph unicode='&#x57;' horiz-adv-x='256' d='M0,448 L63,448 L64,447 L64,224 L96,224 L96,319 L97,320 L127,320 L128,319 L128,224 L160,224 L160,447 L161,448 L223,448 L224,447 L224,161 L223,160 L192,160 L192,129 L191,128 L129,128 L128,129 L128,192 L96,192 L96,129 L95,128 L33,128 L32,129 L32,160 L0,160 Z'></glyph>
      <glyph unicode='&#x58;' horiz-adv-x='256' d='M0,448 L63,448 L64,447 L64,384 L95,384 L96,383 L96,352 L128,352 L128,383 L129,384 L160,384 L160,447 L161,448 L223,448 L224,447 L224,385 L223,384 L192,384 L192,321 L191,320 L160,320 L160,256 L191,256 L192,255 L192,192 L223,192 L224,191 L224,129 L223,128 L161,128 L160,129 L160,192 L129,192 L128,193 L128,224 L96,224 L96,193 L95,192 L64,192 L64,129 L63,128 L0,128 L0,192 L32,192 L32,255 L33,256 L64,256 L64,320 L33,320 L32,321 L32,384 L0,384 Z'></glyph>
      <glyph unicode='&#x59;' horiz-adv-x='256' d='M33,448 L95,448 L96,447 L96,320 L160,320 L160,447 L161,448 L223,448 L224,447 L224,321 L223,320 L192,320 L192,289 L191,288 L160,288 L160,160 L191,160 L192,159 L192,129 L191,128 L65,128 L64,129 L64,159 L65,160 L96,160 L96,288 L65,288 L64,289 L64,320 L33,320 L32,321 L32,447 Z'></glyph>
      <glyph unicode='&#x5A;' horiz-adv-x='256' d='M0,448 L223,448 L224,447 L224,353 L223,352 L192,352 L192,321 L191,320 L160,320 L160,289 L159,288 L128,288 L128,257 L127,256 L96,256 L96,225 L95,224 L64,224 L64,160 L160,160 L160,191 L161,192 L192,192 L192,223 L193,224 L223,224 L224,223 L224,129 L223,128 L0,128 L0,224 L32,224 L32,255 L33,256 L64,256 L64,287 L65,288 L96,288 L96,319 L97,320 L128,320 L128,351 L129,352 L160,352 L160,416 L64,416 L64,385 L63,384 L32,384 L32,353 L31,352 L0,352 Z'></glyph>
      <glyph unicode='&#x5B;' horiz-adv-x='256' d='M65,448 L191,448 L192,447 L192,417 L191,416 L128,416 L128,160 L191,160 L192,159 L192,129 L191,128 L65,128 L64,129 L64,447 Z'></glyph>
      <glyph unicode='&#x5C;' horiz-adv-x='256' d='M0,416 L31,416 L32,415 L32,384 L63,384 L64,383 L64,352 L95,352 L96,351 L96,320 L127,320 L128,319 L128,288 L159,288 L160,287 L160,256 L191,256 L192,255 L192,224 L223,224 L224,223 L224,129 L223,128 L193,128 L192,129 L192,160 L161,160 L160,161 L160,192 L129,192 L128,193 L128,224 L97,224 L96,225 L96,256 L65,256 L64,257 L64,288 L33,288 L32,289 L32,320 L0,320 Z'></glyph>
      <glyph unicode='&#x5D;' horiz-adv-x='256' d='M65,448 L191,448 L192,447 L192,129 L191,128 L65,128 L64,129 L64,159 L65,160 L128,160 L128,416 L65,416 L64,417 L64,447 Z'></glyph>
      <glyph unicode='&#x5E;' horiz-adv-x='256' d='M96,512 L128,512 L128,480 L159,480 L160,479 L160,448 L191,448 L192,447 L192,416 L223,416 L224,415 L224,385 L223,384 L161,384 L160,385 L160,416 L129,416 L128,417 L128,448 L96,448 L96,417 L95,416 L64,416 L64,385 L63,384 L0,384 L0,416 L32,416 L32,447 L33,448 L64,448 L64,479 L65,480 L96,480 Z'></glyph>
      <glyph unicode='&#x5F;' horiz-adv-x='256' d='M0,96 L256,96 L256,64 L0,64 Z'></glyph>
      <glyph unicode='&#x60;' horiz-adv-x='256' d='M64,512 L128,512 L128,448 L159,448 L160,447 L160,417 L159,416 L97,416 L96,417 L96,448 L65,448 L64,449 Z'></glyph>
      <glyph unicode='&#x61;' horiz-adv-x='256' d='M33,352 L159,352 L160,351 L160,320 L191,320 L192,319 L192,160 L223,160 L224,159 L224,129 L223,128 L161,128 L160,129 L160,160 L129,160 L128,161 L128,256 L64,256 L64,160 L127,160 L128,159 L128,129 L127,128 L33,128 L32,129 L32,160 L0,160 L0,256 L32,256 L32,287 L33,288 L128,288 L128,320 L33,320 L32,321 L32,351 Z'></glyph>
      <glyph unicode='&#x62;' horiz-adv-x='256' d='M0,448 L95,448 L96,447 L96,352 L159,352 L160,351 L160,320 L191,320 L192,319 L192,288 L223,288 L224,287 L224,161 L223,160 L192,160 L192,129 L191,128 L33,128 L32,129 L32,416 L0,416 ZM128,320 L96,320 L96,160 L160,160 L160,288 L129,288 L128,289 Z'></glyph>
      <glyph unicode='&#x63;' horiz-adv-x='256' d='M33,352 L191,352 L192,351 L192,320 L223,320 L224,319 L224,289 L223,288 L161,288 L160,289 L160,320 L64,320 L64,160 L160,160 L160,191 L161,192 L223,192 L224,191 L224,161 L223,160 L192,160 L192,129 L191,128 L33,128 L32,129 L32,160 L0,160 L0,320 L32,320 L32,351 Z'></glyph>
      <glyph unicode='&#x64;' horiz-adv-x='256' d='M97,448 L191,448 L192,447 L192,160 L223,160 L224,159 L224,129 L223,128 L161,128 L160,129 L160,160 L129,160 L128,161 L128,320 L96,320 L96,289 L95,288 L64,288 L64,160 L127,160 L128,159 L128,129 L127,128 L33,128 L32,129 L32,160 L0,160 L0,288 L32,288 L32,319 L33,320 L64,320 L64,351 L65,352 L128,352 L128,416 L97,416 L96,417 L96,447 Z'></glyph>
      <glyph unicode='&#x65;' horiz-adv-x='256' d='M33,352 L191,352 L192,351 L192,320 L223,320 L224,319 L224,257 L223,256 L64,256 L64,160 L160,160 L160,191 L161,192 L223,192 L224,191 L224,161 L223,160 L192,160 L192,129 L191,128 L33,128 L32,129 L32,160 L0,160 L0,320 L32,320 L32,351 ZM96,320 L64,320 L64,288 L160,288 L160,320 Z'></glyph>
      <glyph unicode='&#x66;' horiz-adv-x='256' d='M65,448 L159,448 L160,447 L160,416 L191,416 L192,415 L192,353 L191,352 L161,352 L160,353 L160,384 L129,384 L128,385 L128,416 L96,416 L96,320 L127,320 L128,319 L128,289 L127,288 L96,288 L96,160 L127,160 L128,159 L128,129 L127,128 L0,128 L0,160 L32,160 L32,288 L0,288 L0,320 L32,320 L32,415 L33,416 L64,416 L64,447 Z'></glyph>
      <glyph unicode='&#x67;' horiz-adv-x='256' d='M33,352 L127,352 L128,351 L128,321 L127,320 L64,320 L64,160 L128,160 L128,319 L129,320 L160,320 L160,351 L161,352 L223,352 L224,351 L224,321 L223,320 L192,320 L192,65 L191,64 L160,64 L160,33 L159,32 L33,32 L32,33 L32,64 L0,64 L0,96 L63,96 L64,95 L64,64 L128,64 L128,128 L33,128 L32,129 L32,160 L0,160 L0,320 L32,320 L32,351 Z'></glyph>
      <glyph unicode='&#x68;' horiz-adv-x='256' d='M0,448 L95,448 L96,447 L96,320 L127,320 L128,319 L128,289 L127,288 L96,288 L96,129 L95,128 L0,128 L0,160 L32,160 L32,416 L0,416 ZM129,352 L191,352 L192,351 L192,320 L223,320 L224,319 L224,129 L223,128 L161,128 L160,129 L160,320 L129,320 L128,321 L128,351 Z'></glyph>
      <glyph unicode='&#x69;' horiz-adv-x='256' d='M97,448 L159,448 L160,447 L160,385 L159,384 L97,384 L96,385 L96,447 ZM65,352 L159,352 L160,351 L160,160 L191,160 L192,159 L192,129 L191,128 L65,128 L64,129 L64,159 L65,160 L96,160 L96,320 L65,320 L64,321 L64,351 Z'></glyph>
      <glyph unicode='&#x6A;' horiz-adv-x='256' d='M161,448 L223,448 L224,447 L224,385 L223,384 L161,384 L160,385 L160,447 ZM129,352 L223,352 L224,351 L224,65 L223,64 L192,64 L192,33 L191,32 L65,32 L64,33 L64,64 L33,64 L32,65 L32,127 L33,128 L95,128 L96,127 L96,64 L160,64 L160,320 L129,320 L128,321 L128,351 Z'></glyph>
      <glyph unicode='&#x6B;' horiz-adv-x='256' d='M0,448 L95,448 L96,447 L96,288 L128,288 L128,319 L129,320 L160,320 L160,351 L161,352 L223,352 L224,351 L224,321 L223,320 L192,320 L192,289 L191,288 L160,288 L160,224 L191,224 L192,223 L192,192 L223,192 L224,191 L224,129 L223,128 L161,128 L160,129 L160,192 L129,192 L128,193 L128,224 L96,224 L96,129 L95,128 L0,128 L0,160 L32,160 L32,416 L0,416 Z'></glyph>
      <glyph unicode='&#x6C;' horiz-adv-x='256' d='M65,448 L159,448 L160,447 L160,160 L191,160 L192,159 L192,129 L191,128 L65,128 L64,129 L64,159 L65,160 L96,160 L96,416 L65,416 L64,417 L64,447 Z'></glyph>
      <glyph unicode='&#x6D;' horiz-adv-x='256' d='M0,352 L95,352 L96,351 L96,320 L128,320 L128,351 L129,352 L191,352 L192,351 L192,320 L223,320 L224,319 L224,129 L223,128 L161,128 L160,129 L160,288 L128,288 L128,161 L127,160 L97,160 L96,161 L96,288 L64,288 L64,129 L63,128 L0,128 Z'></glyph>
      <glyph unicode='&#x6E;' horiz-adv-x='256' d='M0,352 L63,352 L64,351 L64,320 L95,320 L96,319 L96,129 L95,128 L33,128 L32,129 L32,320 L0,320 ZM97,352 L191,352 L192,351 L192,320 L223,320 L224,319 L224,129 L223,128 L161,128 L160,129 L160,320 L97,320 L96,321 L96,351 Z'></glyph>
      <glyph unicode='&#x6F;' horiz-adv-x='256' d='M33,352 L191,352 L192,351 L192,320 L223,320 L224,319 L224,161 L223,160 L192,160 L192,129 L191,128 L33,128 L32,129 L32,160 L0,160 L0,320 L32,320 L32,351 ZM96,320 L64,320 L64,160 L160,160 L160,320 Z'></glyph>
      <glyph unicode='&#x70;' horiz-adv-x='256' d='M0,352 L63,352 L64,351 L64,320 L95,320 L96,319 L96,160 L160,160 L160,320 L97,320 L96,321 L96,351 L97,352 L191,352 L192,351 L192,320 L223,320 L224,319 L224,161 L223,160 L192,160 L192,129 L191,128 L96,128 L96,64 L127,64 L128,63 L128,33 L127,32 L0,32 L0,64 L32,64 L32,320 L0,320 Z'></glyph>
      <glyph unicode='&#x71;' horiz-adv-x='256' d='M33,352 L127,352 L128,351 L128,321 L127,320 L64,320 L64,160 L128,160 L128,319 L129,320 L160,320 L160,351 L161,352 L223,352 L224,351 L224,321 L223,320 L192,320 L192,64 L223,64 L224,63 L224,33 L223,32 L97,32 L96,33 L96,63 L97,64 L128,64 L128,128 L33,128 L32,129 L32,160 L0,160 L0,320 L32,320 L32,351 Z'></glyph>
      <glyph unicode='&#x72;' horiz-adv-x='256' d='M0,352 L63,352 L64,351 L64,320 L96,320 L96,351 L97,352 L191,352 L192,351 L192,320 L223,320 L224,319 L224,257 L223,256 L161,256 L160,257 L160,320 L128,320 L128,289 L127,288 L96,288 L96,160 L127,160 L128,159 L128,129 L127,128 L0,128 L0,160 L32,160 L32,320 L0,320 Z'></glyph>
      <glyph unicode='&#x73;' horiz-adv-x='256' d='M33,352 L191,352 L192,351 L192,320 L223,320 L224,319 L224,289 L223,288 L161,288 L160,289 L160,320 L64,320 L64,288 L95,288 L96,287 L96,256 L159,256 L160,255 L160,224 L191,224 L192,223 L192,192 L223,192 L224,191 L224,161 L223,160 L192,160 L192,129 L191,128 L33,128 L32,129 L32,160 L0,160 L0,192 L63,192 L64,191 L64,160 L160,160 L160,192 L129,192 L128,193 L128,224 L65,224 L64,225 L64,256 L33,256 L32,257 L32,288 L0,288 L0,320 L32,320 L32,351 Z'></glyph>
      <glyph unicode='&#x74;' horiz-adv-x='256' d='M97,448 L127,448 L128,447 L128,352 L191,352 L192,351 L192,321 L191,320 L128,320 L128,160 L160,160 L160,191 L161,192 L223,192 L224,191 L224,161 L223,160 L192,160 L192,129 L191,128 L97,128 L96,129 L96,160 L65,160 L64,161 L64,320 L0,320 L0,352 L64,352 L64,415 L65,416 L96,416 L96,447 Z'></glyph>
      <glyph unicode='&#x75;' horiz-adv-x='256' d='M0,352 L63,352 L64,351 L64,160 L127,160 L128,159 L128,129 L127,128 L33,128 L32,129 L32,160 L0,160 ZM129,352 L191,352 L192,351 L192,160 L223,160 L224,159 L224,129 L223,128 L161,128 L160,129 L160,160 L129,160 L128,161 L128,351 Z'></glyph>
      <glyph unicode='&#x76;' horiz-adv-x='256' d='M33,352 L95,352 L96,351 L96,192 L160,192 L160,351 L161,352 L223,352 L224,351 L224,193 L223,192 L192,192 L192,161 L191,160 L160,160 L160,129 L159,128 L97,128 L96,129 L96,160 L65,160 L64,161 L64,192 L33,192 L32,193 L32,351 Z'></glyph>
      <glyph unicode='&#x77;' horiz-adv-x='256' d='M0,352 L63,352 L64,351 L64,192 L96,192 L96,287 L97,288 L127,288 L128,287 L128,192 L160,192 L160,351 L161,352 L223,352 L224,351 L224,161 L223,160 L192,160 L192,129 L191,128 L129,128 L128,129 L128,160 L96,160 L96,129 L95,128 L33,128 L32,129 L32,160 L0,160 Z'></glyph>
      <glyph unicode='&#x78;' horiz-adv-x='256' d='M0,352 L63,352 L64,351 L64,320 L95,320 L96,319 L96,288 L128,288 L128,319 L129,320 L160,320 L160,351 L161,352 L223,352 L224,351 L224,321 L223,320 L192,320 L192,289 L191,288 L160,288 L160,192 L191,192 L192,191 L192,160 L223,160 L224,159 L224,129 L223,128 L161,128 L160,129 L160,160 L129,160 L128,161 L128,192 L96,192 L96,161 L95,160 L64,160 L64,129 L63,128 L0,128 L0,160 L32,160 L32,191 L33,192 L64,192 L64,288 L33,288 L32,289 L32,320 L0,320 Z'></glyph>
      <glyph unicode='&#x79;' horiz-adv-x='256' d='M0,352 L63,352 L64,351 L64,160 L160,160 L160,351 L161,352 L223,352 L224,351 L224,97 L223,96 L192,96 L192,65 L191,64 L160,64 L160,33 L159,32 L0,32 L0,64 L128,64 L128,95 L129,96 L160,96 L160,128 L33,128 L32,129 L32,160 L0,160 Z'></glyph>
      <glyph unicode='&#x7A;' horiz-adv-x='256' d='M0,352 L223,352 L224,351 L224,321 L223,320 L192,320 L192,289 L191,288 L160,288 L160,257 L159,256 L128,256 L128,225 L127,224 L96,224 L96,193 L95,192 L64,192 L64,160 L160,160 L160,191 L161,192 L223,192 L224,191 L224,129 L223,128 L0,128 L0,192 L32,192 L32,223 L33,224 L64,224 L64,255 L65,256 L96,256 L96,287 L97,288 L128,288 L128,320 L64,320 L64,289 L63,288 L0,288 Z'></glyph>
      <glyph unicode='&#x7B;' horiz-adv-x='256' d='M129,448 L223,448 L224,447 L224,417 L223,416 L160,416 L160,321 L159,320 L128,320 L128,288 L159,288 L160,287 L160,160 L223,160 L224,159 L224,129 L223,128 L129,128 L128,129 L128,160 L97,160 L96,161 L96,288 L33,288 L32,289 L32,319 L33,320 L96,320 L96,415 L97,416 L128,416 L128,447 Z'></glyph>
      <glyph unicode='&#x7C;' horiz-adv-x='256' d='M97,448 L159,448 L160,447 L160,321 L159,320 L97,320 L96,321 L96,447 ZM97,288 L159,288 L160,287 L160,129 L159,128 L97,128 L96,129 L96,287 Z'></glyph>
      <glyph unicode='&#x7D;' horiz-adv-x='256' d='M33,448 L127,448 L128,447 L128,416 L159,416 L160,415 L160,320 L223,320 L224,319 L224,289 L223,288 L160,288 L160,161 L159,160 L128,160 L128,129 L127,128 L33,128 L32,129 L32,159 L33,160 L96,160 L96,287 L97,288 L128,288 L128,320 L97,320 L96,321 L96,416 L33,416 L32,417 L32,447 Z'></glyph>
      <glyph unicode='&#x7E;' horiz-adv-x='256' d='M33,448 L127,448 L128,447 L128,416 L160,416 L160,447 L161,448 L223,448 L224,447 L224,417 L223,416 L192,416 L192,385 L191,384 L97,384 L96,385 L96,416 L64,416 L64,385 L63,384 L0,384 L0,416 L32,416 L32,447 Z'></glyph>
      <glyph unicode='&#x7F;' horiz-adv-x='256' d='M97,384 L127,384 L128,383 L128,352 L159,352 L160,351 L160,320 L191,320 L192,319 L192,288 L223,288 L224,287 L224,161 L223,160 L0,160 L0,288 L32,288 L32,319 L33,320 L64,320 L64,351 L65,352 L96,352 L96,383 ZM128,320 L96,320 L96,289 L95,288 L64,288 L64,192 L160,192 L160,288 L129,288 L128,289 Z'></glyph>
      <glyph unicode='&#xA0;' horiz-adv-x='256' d=''></glyph>
      <glyph unicode='&#xA1;' horiz-adv-x='256' d='M97,448 L159,448 L160,447 L160,385 L159,384 L97,384 L96,385 L96,447 ZM97,352 L159,352 L160,351 L160,256 L191,256 L192,255 L192,161 L191,160 L160,160 L160,129 L159,128 L97,128 L96,129 L96,160 L65,160 L64,161 L64,255 L65,256 L96,256 L96,351 Z'></glyph>
      <glyph unicode='&#xA2;' horiz-adv-x='256' d='M97,480 L159,480 L160,479 L160,416 L191,416 L192,415 L192,384 L223,384 L224,383 L224,353 L223,352 L161,352 L160,353 L160,384 L96,384 L96,224 L160,224 L160,255 L161,256 L223,256 L224,255 L224,225 L223,224 L192,224 L192,193 L191,192 L160,192 L160,129 L159,128 L97,128 L96,129 L96,192 L65,192 L64,193 L64,224 L33,224 L32,225 L32,383 L33,384 L64,384 L64,415 L65,416 L96,416 L96,479 Z'></glyph>
      <glyph unicode='&#xA3;' horiz-adv-x='256' d='M65,480 L159,480 L160,479 L160,448 L191,448 L192,447 L192,385 L191,384 L161,384 L160,385 L160,416 L129,416 L128,417 L128,448 L96,448 L96,352 L127,352 L128,351 L128,321 L127,320 L96,320 L96,160 L160,160 L160,191 L161,192 L223,192 L224,191 L224,161 L223,160 L192,160 L192,129 L191,128 L0,128 L0,192 L32,192 L32,320 L0,320 L0,352 L32,352 L32,447 L33,448 L64,448 L64,479 Z'></glyph>
      <glyph unicode='&#xA4;' horiz-adv-x='256' d='M33,384 L95,384 L96,383 L96,352 L160,352 L160,383 L161,384 L223,384 L224,383 L224,353 L223,352 L192,352 L192,320 L223,320 L224,319 L224,225 L223,224 L192,224 L192,192 L223,192 L224,191 L224,161 L223,160 L161,160 L160,161 L160,192 L96,192 L96,161 L95,160 L33,160 L32,161 L32,191 L33,192 L64,192 L64,224 L33,224 L32,225 L32,319 L33,320 L64,320 L64,352 L33,352 L32,353 L32,383 ZM128,320 L96,320 L96,224 L160,224 L160,320 Z'></glyph>
      <glyph unicode='&#xA5;' horiz-adv-x='256' d='M33,448 L95,448 L96,447 L96,384 L160,384 L160,447 L161,448 L223,448 L224,447 L224,385 L223,384 L192,384 L192,353 L191,352 L160,352 L160,320 L223,320 L224,319 L224,289 L223,288 L160,288 L160,256 L223,256 L224,255 L224,225 L223,224 L160,224 L160,129 L159,128 L97,128 L96,129 L96,224 L33,224 L32,225 L32,255 L33,256 L96,256 L96,288 L33,288 L32,289 L32,319 L33,320 L96,320 L96,352 L65,352 L64,353 L64,384 L33,384 L32,385 L32,447 Z'></glyph>
      <glyph unicode='&#xA6;' horiz-adv-x='256' d='M97,448 L159,448 L160,447 L160,321 L159,320 L97,320 L96,321 L96,447 ZM97,288 L159,288 L160,287 L160,129 L159,128 L97,128 L96,129 L96,287 Z'></glyph>
      <glyph unicode='&#xA7;' horiz-adv-x='256' d='M33,480 L191,480 L192,479 L192,448 L223,448 L224,447 L224,417 L223,416 L161,416 L160,417 L160,448 L64,448 L64,416 L95,416 L96,415 L96,384 L159,384 L160,383 L160,352 L191,352 L192,351 L192,320 L223,320 L224,319 L224,257 L223,256 L192,256 L192,225 L191,224 L160,224 L160,192 L191,192 L192,191 L192,160 L223,160 L224,159 L224,129 L223,128 L192,128 L192,97 L191,96 L33,96 L32,97 L32,128 L0,128 L0,160 L63,160 L64,159 L64,128 L160,128 L160,160 L129,160 L128,161 L128,192 L65,192 L64,193 L64,224 L33,224 L32,225 L32,256 L0,256 L0,320 L32,320 L32,351 L33,352 L64,352 L64,384 L33,384 L32,385 L32,416 L0,416 L0,448 L32,448 L32,479 ZM128,352 L96,352 L96,321 L95,320 L64,320 L64,256 L95,256 L96,255 L96,224 L128,224 L128,255 L129,256 L160,256 L160,320 L129,320 L128,321 Z'></glyph>
      <glyph unicode='&#xA8;' horiz-adv-x='256' d='M33,448 L95,448 L96,447 L96,385 L95,384 L33,384 L32,385 L32,447 ZM129,448 L191,448 L192,447 L192,385 L191,384 L129,384 L128,385 L128,447 Z'></glyph>
      <glyph unicode='&#xA9;' horiz-adv-x='256' d='M65,448 L191,448 L192,447 L192,417 L191,416 L65,416 L64,417 L64,447 ZM33,416 L63,416 L64,415 L64,385 L63,384 L33,384 L32,385 L32,415 ZM193,416 L223,416 L224,415 L224,385 L223,384 L193,384 L192,385 L192,415 ZM0,384 L31,384 L32,383 L32,193 L31,192 L0,192 ZM97,384 L159,384 L160,383 L160,353 L159,352 L97,352 L96,353 L96,383 ZM225,384 L256,384 L256,192 L225,192 L224,193 L224,383 ZM65,352 L95,352 L96,351 L96,225 L95,224 L65,224 L64,225 L64,351 ZM161,352 L191,352 L192,351 L192,321 L191,320 L161,320 L160,321 L160,351 ZM161,256 L191,256 L192,255 L192,225 L191,224 L161,224 L160,225 L160,255 ZM97,224 L159,224 L160,223 L160,193 L159,192 L97,192 L96,193 L96,223 ZM33,192 L63,192 L64,191 L64,161 L63,160 L33,160 L32,161 L32,191 ZM193,192 L223,192 L224,191 L224,161 L223,160 L193,160 L192,161 L192,191 ZM65,160 L191,160 L192,159 L192,129 L191,128 L65,128 L64,129 L64,159 Z'></glyph>
      <glyph unicode='&#xAA;' horiz-adv-x='256' d='M65,480 L191,480 L192,479 L192,384 L223,384 L224,383 L224,353 L223,352 L65,352 L64,353 L64,384 L33,384 L32,385 L32,447 L33,448 L64,448 L64,479 ZM128,448 L96,448 L96,384 L128,384 ZM33,320 L223,320 L224,319 L224,289 L223,288 L33,288 L32,289 L32,319 Z'></glyph>
      <glyph unicode='&#xAB;' horiz-adv-x='256' d='M65,352 L127,352 L128,351 L128,321 L127,320 L96,320 L96,289 L95,288 L64,288 L64,256 L95,256 L96,255 L96,224 L127,224 L128,223 L128,193 L127,192 L65,192 L64,193 L64,224 L33,224 L32,225 L32,256 L0,256 L0,288 L32,288 L32,319 L33,320 L64,320 L64,351 ZM161,352 L223,352 L224,351 L224,321 L223,320 L192,320 L192,289 L191,288 L160,288 L160,256 L191,256 L192,255 L192,224 L223,224 L224,223 L224,193 L223,192 L161,192 L160,193 L160,224 L129,224 L128,225 L128,256 L97,256 L96,257 L96,287 L97,288 L128,288 L128,319 L129,320 L160,320 L160,351 Z'></glyph>
      <glyph unicode='&#xAC;' horiz-adv-x='256' d='M0,320 L223,320 L224,319 L224,161 L223,160 L161,160 L160,161 L160,288 L0,288 Z'></glyph>
      <glyph unicode='&#xAD;' horiz-adv-x='256' d='M65,288 L191,288 L192,287 L192,257 L191,256 L65,256 L64,257 L64,287 Z'></glyph>
      <glyph unicode='&#xAE;' horiz-adv-x='256' d='M65,448 L159,448 L160,447 L160,417 L159,416 L65,416 L64,417 L64,447 ZM33,416 L63,416 L64,415 L64,385 L63,384 L33,384 L32,385 L32,415 ZM161,416 L191,416 L192,415 L192,385 L191,384 L161,384 L160,385 L160,415 ZM0,384 L31,384 L32,383 L32,289 L31,288 L0,288 ZM65,384 L159,384 L160,383 L160,353 L159,352 L128,352 L128,321 L127,320 L96,320 L96,289 L95,288 L65,288 L64,289 L64,383 ZM193,384 L223,384 L224,383 L224,289 L223,288 L193,288 L192,289 L192,383 ZM129,320 L159,320 L160,319 L160,289 L159,288 L129,288 L128,289 L128,319 ZM33,288 L63,288 L64,287 L64,257 L63,256 L33,256 L32,257 L32,287 ZM161,288 L191,288 L192,287 L192,257 L191,256 L161,256 L160,257 L160,287 ZM65,256 L159,256 L160,255 L160,225 L159,224 L65,224 L64,225 L64,255 Z'></glyph>
      <glyph unicode='&#xAF;' horiz-adv-x='256' d='M33,416 L191,416 L192,415 L192,385 L191,384 L33,384 L32,385 L32,415 Z'></glyph>
      <glyph unicode='&#xB0;' horiz-adv-x='256' d='M65,480 L159,480 L160,479 L160,448 L191,448 L192,447 L192,385 L191,384 L160,384 L160,353 L159,352 L65,352 L64,353 L64,384 L33,384 L32,385 L32,447 L33,448 L64,448 L64,479 ZM128,448 L96,448 L96,384 L128,384 Z'></glyph>
      <glyph unicode='&#xB1;' horiz-adv-x='256' d='M97,384 L159,384 L160,383 L160,320 L223,320 L224,319 L224,289 L223,288 L160,288 L160,225 L159,224 L97,224 L96,225 L96,288 L33,288 L32,289 L32,319 L33,320 L96,320 L96,383 ZM33,192 L223,192 L224,191 L224,161 L223,160 L33,160 L32,161 L32,191 Z'></glyph>
      <glyph unicode='&#xB2;' horiz-adv-x='256' d='M33,480 L127,480 L128,479 L128,448 L159,448 L160,447 L160,417 L159,416 L128,416 L128,385 L127,384 L96,384 L96,353 L95,352 L64,352 L64,320 L128,320 L128,351 L129,352 L159,352 L160,351 L160,289 L159,288 L0,288 L0,352 L32,352 L32,383 L33,384 L64,384 L64,415 L65,416 L96,416 L96,448 L64,448 L64,417 L63,416 L0,416 L0,448 L32,448 L32,479 Z'></glyph>
      <glyph unicode='&#xB3;' horiz-adv-x='256' d='M33,480 L127,480 L128,479 L128,448 L159,448 L160,447 L160,417 L159,416 L128,416 L128,384 L159,384 L160,383 L160,321 L159,320 L128,320 L128,289 L127,288 L33,288 L32,289 L32,320 L0,320 L0,352 L63,352 L64,351 L64,320 L96,320 L96,384 L65,384 L64,385 L64,415 L65,416 L96,416 L96,448 L64,448 L64,417 L63,416 L0,416 L0,448 L32,448 L32,479 Z'></glyph>
      <glyph unicode='&#xB4;' horiz-adv-x='256' d='M129,448 L191,448 L192,447 L192,417 L191,416 L160,416 L160,385 L159,384 L97,384 L96,385 L96,415 L97,416 L128,416 L128,447 Z'></glyph>
      <glyph unicode='&#xB5;' horiz-adv-x='256' d='M0,352 L63,352 L64,351 L64,160 L127,160 L128,159 L128,129 L127,128 L64,128 L64,33 L63,32 L0,32 ZM129,352 L191,352 L192,351 L192,160 L223,160 L224,159 L224,129 L223,128 L161,128 L160,129 L160,160 L129,160 L128,161 L128,351 Z'></glyph>
      <glyph unicode='&#xB6;' horiz-adv-x='256' d='M33,448 L256,448 L256,128 L193,128 L192,129 L192,416 L160,416 L160,129 L159,128 L97,128 L96,129 L96,288 L33,288 L32,289 L32,320 L0,320 L0,416 L32,416 L32,447 ZM96,416 L64,416 L64,320 L96,320 Z'></glyph>
      <glyph unicode='&#xB7;' horiz-adv-x='256' d='M97,256 L159,256 L160,255 L160,225 L159,224 L97,224 L96,225 L96,255 Z'></glyph>
      <glyph unicode='&#xB8;' horiz-adv-x='256' d='M97,128 L159,128 L160,127 L160,96 L191,96 L192,95 L192,65 L191,64 L160,64 L160,33 L159,32 L65,32 L64,33 L64,63 L65,64 L128,64 L128,96 L97,96 L96,97 L96,127 Z'></glyph>
      <glyph unicode='&#xB9;' horiz-adv-x='256' d='M65,480 L127,480 L128,479 L128,320 L159,320 L160,319 L160,289 L159,288 L33,288 L32,289 L32,319 L33,320 L64,320 L64,416 L33,416 L32,417 L32,447 L33,448 L64,448 L64,479 Z'></glyph>
      <glyph unicode='&#xBA;' horiz-adv-x='256' d='M65,480 L159,480 L160,479 L160,448 L191,448 L192,447 L192,385 L191,384 L160,384 L160,353 L159,352 L65,352 L64,353 L64,384 L33,384 L32,385 L32,447 L33,448 L64,448 L64,479 ZM128,448 L96,448 L96,384 L128,384 ZM33,320 L191,320 L192,319 L192,289 L191,288 L33,288 L32,289 L32,319 Z'></glyph>
      <glyph unicode='&#xBB;' horiz-adv-x='256' d='M0,352 L63,352 L64,351 L64,320 L95,320 L96,319 L96,288 L127,288 L128,287 L128,257 L127,256 L96,256 L96,225 L95,224 L64,224 L64,193 L63,192 L0,192 L0,224 L32,224 L32,255 L33,256 L64,256 L64,288 L33,288 L32,289 L32,320 L0,320 ZM97,352 L159,352 L160,351 L160,320 L191,320 L192,319 L192,288 L223,288 L224,287 L224,257 L223,256 L192,256 L192,225 L191,224 L160,224 L160,193 L159,192 L97,192 L96,193 L96,223 L97,224 L128,224 L128,255 L129,256 L160,256 L160,288 L129,288 L128,289 L128,320 L97,320 L96,321 L96,351 Z'></glyph>
      <glyph unicode='&#xBC;' horiz-adv-x='256' d='M0,480 L63,480 L64,479 L64,321 L63,320 L0,320 ZM193,416 L223,416 L224,415 L224,353 L223,352 L192,352 L192,321 L191,320 L160,320 L160,289 L159,288 L128,288 L128,257 L127,256 L96,256 L96,225 L95,224 L64,224 L64,193 L63,192 L32,192 L32,161 L31,160 L0,160 L0,224 L32,224 L32,255 L33,256 L64,256 L64,287 L65,288 L96,288 L96,319 L97,320 L128,320 L128,351 L129,352 L160,352 L160,383 L161,384 L192,384 L192,415 ZM161,256 L223,256 L224,255 L224,65 L223,64 L161,64 L160,65 L160,128 L65,128 L64,129 L64,159 L65,160 L96,160 L96,191 L97,192 L128,192 L128,223 L129,224 L160,224 L160,255 Z'></glyph>
      <glyph unicode='&#xBD;' horiz-adv-x='256' d='M0,480 L63,480 L64,479 L64,321 L63,320 L0,320 ZM193,416 L223,416 L224,415 L224,353 L223,352 L192,352 L192,321 L191,320 L160,320 L160,289 L159,288 L128,288 L128,257 L127,256 L96,256 L96,225 L95,224 L64,224 L64,193 L63,192 L32,192 L32,161 L31,160 L0,160 L0,224 L32,224 L32,255 L33,256 L64,256 L64,287 L65,288 L96,288 L96,319 L97,320 L128,320 L128,351 L129,352 L160,352 L160,383 L161,384 L192,384 L192,415 ZM97,224 L191,224 L192,223 L192,192 L223,192 L224,191 L224,161 L223,160 L192,160 L192,129 L191,128 L160,128 L160,96 L223,96 L224,95 L224,65 L223,64 L65,64 L64,65 L64,95 L65,96 L96,96 L96,127 L97,128 L128,128 L128,159 L129,160 L160,160 L160,192 L97,192 L96,193 L96,223 Z'></glyph>
      <glyph unicode='&#xBE;' horiz-adv-x='256' d='M0,480 L95,480 L96,479 L96,448 L127,448 L128,447 L128,417 L127,416 L96,416 L96,384 L127,384 L128,383 L128,353 L127,352 L96,352 L96,321 L95,320 L0,320 L0,352 L64,352 L64,384 L33,384 L32,385 L32,415 L33,416 L64,416 L64,448 L0,448 ZM193,416 L223,416 L224,415 L224,353 L223,352 L192,352 L192,321 L191,320 L160,320 L160,289 L159,288 L128,288 L128,257 L127,256 L96,256 L96,225 L95,224 L64,224 L64,193 L63,192 L32,192 L32,161 L31,160 L0,160 L0,224 L32,224 L32,255 L33,256 L64,256 L64,287 L65,288 L96,288 L96,319 L97,320 L128,320 L128,351 L129,352 L160,352 L160,383 L161,384 L192,384 L192,415 ZM161,256 L223,256 L224,255 L224,65 L223,64 L161,64 L160,65 L160,128 L65,128 L64,129 L64,159 L65,160 L96,160 L96,191 L97,192 L128,192 L128,223 L129,224 L160,224 L160,255 Z'></glyph>
      <glyph unicode='&#xBF;' horiz-adv-x='256' d='M65,448 L127,448 L128,447 L128,385 L127,384 L65,384 L64,385 L64,447 ZM65,352 L127,352 L128,351 L128,289 L127,288 L96,288 L96,257 L95,256 L64,256 L64,160 L160,160 L160,223 L161,224 L223,224 L224,223 L224,161 L223,160 L192,160 L192,129 L191,128 L33,128 L32,129 L32,160 L0,160 L0,256 L32,256 L32,287 L33,288 L64,288 L64,351 Z'></glyph>
      <glyph unicode='&#xC0;' horiz-adv-x='256' d='M32,512 L96,512 L96,480 L127,480 L128,479 L128,449 L127,448 L65,448 L64,449 L64,480 L33,480 L32,481 ZM97,416 L127,416 L128,415 L128,384 L159,384 L160,383 L160,352 L191,352 L192,351 L192,320 L223,320 L224,319 L224,129 L223,128 L161,128 L160,129 L160,224 L64,224 L64,129 L63,128 L0,128 L0,320 L32,320 L32,351 L33,352 L64,352 L64,383 L65,384 L96,384 L96,415 ZM128,352 L96,352 L96,321 L95,320 L64,320 L64,256 L160,256 L160,320 L129,320 L128,321 Z'></glyph>
      <glyph unicode='&#xC1;' horiz-adv-x='256' d='M128,512 L192,512 L192,481 L191,480 L160,480 L160,449 L159,448 L97,448 L96,449 L96,479 L97,480 L128,480 ZM97,416 L127,416 L128,415 L128,384 L159,384 L160,383 L160,352 L191,352 L192,351 L192,320 L223,320 L224,319 L224,129 L223,128 L161,128 L160,129 L160,224 L64,224 L64,129 L63,128 L0,128 L0,320 L32,320 L32,351 L33,352 L64,352 L64,383 L65,384 L96,384 L96,415 ZM128,352 L96,352 L96,321 L95,320 L64,320 L64,256 L160,256 L160,320 L129,320 L128,321 Z'></glyph>
      <glyph unicode='&#xC2;' horiz-adv-x='256' d='M96,512 L128,512 L128,480 L159,480 L160,479 L160,448 L191,448 L192,447 L192,417 L191,416 L129,416 L128,417 L128,448 L96,448 L96,417 L95,416 L33,416 L32,417 L32,447 L33,448 L64,448 L64,479 L65,480 L96,480 ZM97,416 L127,416 L128,415 L128,384 L159,384 L160,383 L160,352 L191,352 L192,351 L192,320 L223,320 L224,319 L224,129 L223,128 L161,128 L160,129 L160,224 L64,224 L64,129 L63,128 L0,128 L0,320 L32,320 L32,351 L33,352 L64,352 L64,383 L65,384 L96,384 L96,415 ZM128,352 L96,352 L96,321 L95,320 L64,320 L64,256 L160,256 L160,320 L129,320 L128,321 Z'></glyph>
      <glyph unicode='&#xC3;' horiz-adv-x='256' d='M32,512 L128,512 L128,480 L160,480 L160,512 L224,512 L224,481 L223,480 L192,480 L192,449 L191,448 L97,448 L96,449 L96,480 L64,480 L64,449 L63,448 L0,448 L0,480 L32,480 ZM97,416 L127,416 L128,415 L128,384 L159,384 L160,383 L160,352 L191,352 L192,351 L192,320 L223,320 L224,319 L224,129 L223,128 L161,128 L160,129 L160,224 L64,224 L64,129 L63,128 L0,128 L0,320 L32,320 L32,351 L33,352 L64,352 L64,383 L65,384 L96,384 L96,415 ZM128,352 L96,352 L96,321 L95,320 L64,320 L64,256 L160,256 L160,320 L129,320 L128,321 Z'></glyph>
      <glyph unicode='&#xC4;' horiz-adv-x='256' d='M32,512 L96,512 L96,449 L95,448 L33,448 L32,449 ZM128,512 L192,512 L192,449 L191,448 L129,448 L128,449 ZM97,416 L127,416 L128,415 L128,384 L159,384 L160,383 L160,352 L191,352 L192,351 L192,320 L223,320 L224,319 L224,129 L223,128 L161,128 L160,129 L160,224 L64,224 L64,129 L63,128 L0,128 L0,320 L32,320 L32,351 L33,352 L64,352 L64,383 L65,384 L96,384 L96,415 ZM128,352 L96,352 L96,321 L95,320 L64,320 L64,256 L160,256 L160,320 L129,320 L128,321 Z'></glyph>
      <glyph unicode='&#xC5;' horiz-adv-x='256' d='M64,512 L160,512 L160,480 L191,480 L192,479 L192,449 L191,448 L160,448 L160,417 L159,416 L128,416 L128,384 L159,384 L160,383 L160,352 L191,352 L192,351 L192,320 L223,320 L224,319 L224,129 L223,128 L161,128 L160,129 L160,224 L64,224 L64,129 L63,128 L0,128 L0,320 L32,320 L32,351 L33,352 L64,352 L64,383 L65,384 L96,384 L96,416 L65,416 L64,417 L64,448 L33,448 L32,449 L32,479 L33,480 L64,480 ZM128,480 L96,480 L96,448 L128,448 ZM128,352 L96,352 L96,321 L95,320 L64,320 L64,256 L160,256 L160,320 L129,320 L128,321 Z'></glyph>
      <glyph unicode='&#xC6;' horiz-adv-x='256' d='M65,448 L223,448 L224,447 L224,417 L223,416 L192,416 L192,320 L223,320 L224,319 L224,289 L223,288 L192,288 L192,160 L223,160 L224,159 L224,129 L223,128 L129,128 L128,129 L128,288 L64,288 L64,129 L63,128 L0,128 L0,384 L32,384 L32,415 L33,416 L64,416 L64,447 ZM128,416 L96,416 L96,385 L95,384 L64,384 L64,320 L128,320 Z'></glyph>
      <glyph unicode='&#xC7;' horiz-adv-x='256' d='M65,448 L191,448 L192,447 L192,416 L223,416 L224,415 L224,353 L223,352 L193,352 L192,353 L192,384 L161,384 L160,385 L160,416 L96,416 L96,385 L95,384 L64,384 L64,192 L95,192 L96,191 L96,160 L160,160 L160,191 L161,192 L192,192 L192,223 L193,224 L223,224 L224,223 L224,161 L223,160 L192,160 L192,129 L191,128 L160,128 L160,96 L191,96 L192,95 L192,65 L191,64 L160,64 L160,33 L159,32 L65,32 L64,33 L64,63 L65,64 L128,64 L128,96 L97,96 L96,97 L96,128 L65,128 L64,129 L64,160 L33,160 L32,161 L32,192 L0,192 L0,384 L32,384 L32,415 L33,416 L64,416 L64,447 Z'></glyph>
      <glyph unicode='&#xC8;' horiz-adv-x='256' d='M64,512 L128,512 L128,480 L159,480 L160,479 L160,449 L159,448 L97,448 L96,449 L96,480 L65,480 L64,481 ZM0,416 L223,416 L224,415 L224,321 L223,320 L193,320 L192,321 L192,352 L161,352 L160,353 L160,384 L96,384 L96,288 L128,288 L128,319 L129,320 L159,320 L160,319 L160,225 L159,224 L129,224 L128,225 L128,256 L96,256 L96,160 L160,160 L160,191 L161,192 L192,192 L192,223 L193,224 L223,224 L224,223 L224,129 L223,128 L0,128 L0,160 L32,160 L32,384 L0,384 Z'></glyph>
      <glyph unicode='&#xC9;' horiz-adv-x='256' d='M128,512 L192,512 L192,481 L191,480 L160,480 L160,449 L159,448 L97,448 L96,449 L96,479 L97,480 L128,480 ZM0,416 L223,416 L224,415 L224,321 L223,320 L193,320 L192,321 L192,352 L161,352 L160,353 L160,384 L96,384 L96,288 L128,288 L128,319 L129,320 L159,320 L160,319 L160,225 L159,224 L129,224 L128,225 L128,256 L96,256 L96,160 L160,160 L160,191 L161,192 L192,192 L192,223 L193,224 L223,224 L224,223 L224,129 L223,128 L0,128 L0,160 L32,160 L32,384 L0,384 Z'></glyph>
      <glyph unicode='&#xCA;' horiz-adv-x='256' d='M96,512 L128,512 L128,480 L159,480 L160,479 L160,449 L159,448 L65,448 L64,449 L64,479 L65,480 L96,480 ZM33,448 L63,448 L64,447 L64,416 L160,416 L160,447 L161,448 L191,448 L192,447 L192,416 L223,416 L224,415 L224,321 L223,320 L193,320 L192,321 L192,352 L161,352 L160,353 L160,384 L96,384 L96,288 L128,288 L128,319 L129,320 L159,320 L160,319 L160,225 L159,224 L129,224 L128,225 L128,256 L96,256 L96,160 L160,160 L160,191 L161,192 L192,192 L192,223 L193,224 L223,224 L224,223 L224,129 L223,128 L0,128 L0,160 L32,160 L32,384 L0,384 L0,416 L32,416 L32,447 Z'></glyph>
      <glyph unicode='&#xCB;' horiz-adv-x='256' d='M32,512 L96,512 L96,449 L95,448 L33,448 L32,449 ZM128,512 L192,512 L192,449 L191,448 L129,448 L128,449 ZM0,416 L223,416 L224,415 L224,321 L223,320 L193,320 L192,321 L192,352 L161,352 L160,353 L160,384 L96,384 L96,288 L128,288 L128,319 L129,320 L159,320 L160,319 L160,225 L159,224 L129,224 L128,225 L128,256 L96,256 L96,160 L160,160 L160,191 L161,192 L192,192 L192,223 L193,224 L223,224 L224,223 L224,129 L223,128 L0,128 L0,160 L32,160 L32,384 L0,384 Z'></glyph>
      <glyph unicode='&#xCC;' horiz-adv-x='256' d='M64,512 L128,512 L128,480 L159,480 L160,479 L160,449 L159,448 L97,448 L96,449 L96,480 L65,480 L64,481 ZM65,416 L191,416 L192,415 L192,385 L191,384 L160,384 L160,160 L191,160 L192,159 L192,129 L191,128 L65,128 L64,129 L64,159 L65,160 L96,160 L96,384 L65,384 L64,385 L64,415 Z'></glyph>
      <glyph unicode='&#xCD;' horiz-adv-x='256' d='M128,512 L192,512 L192,481 L191,480 L160,480 L160,449 L159,448 L97,448 L96,449 L96,479 L97,480 L128,480 ZM65,416 L191,416 L192,415 L192,385 L191,384 L160,384 L160,160 L191,160 L192,159 L192,129 L191,128 L65,128 L64,129 L64,159 L65,160 L96,160 L96,384 L65,384 L64,385 L64,415 Z'></glyph>
      <glyph unicode='&#xCE;' horiz-adv-x='256' d='M96,512 L160,512 L160,480 L191,480 L192,479 L192,449 L191,448 L65,448 L64,449 L64,479 L65,480 L96,480 ZM33,448 L63,448 L64,447 L64,417 L63,416 L33,416 L32,417 L32,447 ZM193,448 L223,448 L224,447 L224,417 L223,416 L193,416 L192,417 L192,447 ZM65,416 L191,416 L192,415 L192,385 L191,384 L160,384 L160,160 L191,160 L192,159 L192,129 L191,128 L65,128 L64,129 L64,159 L65,160 L96,160 L96,384 L65,384 L64,385 L64,415 Z'></glyph>
      <glyph unicode='&#xCF;' horiz-adv-x='256' d='M32,512 L96,512 L96,449 L95,448 L33,448 L32,449 ZM160,512 L224,512 L224,449 L223,448 L161,448 L160,449 ZM65,416 L191,416 L192,415 L192,385 L191,384 L160,384 L160,160 L191,160 L192,159 L192,129 L191,128 L65,128 L64,129 L64,159 L65,160 L96,160 L96,384 L65,384 L64,385 L64,415 Z'></glyph>
      <glyph unicode='&#xD0;' horiz-adv-x='256' d='M0,448 L159,448 L160,447 L160,416 L191,416 L192,415 L192,384 L223,384 L224,383 L224,193 L223,192 L192,192 L192,161 L191,160 L160,160 L160,129 L159,128 L0,128 L0,160 L32,160 L32,288 L0,288 L0,320 L32,320 L32,416 L0,416 ZM128,416 L96,416 L96,320 L127,320 L128,319 L128,289 L127,288 L96,288 L96,160 L128,160 L128,191 L129,192 L160,192 L160,384 L129,384 L128,385 Z'></glyph>
      <glyph unicode='&#xD1;' horiz-adv-x='256' d='M32,512 L128,512 L128,480 L160,480 L160,512 L224,512 L224,481 L223,480 L192,480 L192,449 L191,448 L97,448 L96,449 L96,480 L64,480 L64,449 L63,448 L0,448 L0,480 L32,480 ZM0,416 L63,416 L64,415 L64,384 L95,384 L96,383 L96,352 L127,352 L128,351 L128,320 L160,320 L160,415 L161,416 L223,416 L224,415 L224,129 L223,128 L161,128 L160,129 L160,224 L129,224 L128,225 L128,256 L97,256 L96,257 L96,288 L64,288 L64,129 L63,128 L0,128 Z'></glyph>
      <glyph unicode='&#xD2;' horiz-adv-x='256' d='M32,512 L96,512 L96,480 L127,480 L128,479 L128,449 L127,448 L65,448 L64,449 L64,480 L33,480 L32,481 ZM33,416 L191,416 L192,415 L192,384 L223,384 L224,383 L224,161 L223,160 L192,160 L192,129 L191,128 L33,128 L32,129 L32,160 L0,160 L0,384 L32,384 L32,415 ZM96,384 L64,384 L64,160 L160,160 L160,384 Z'></glyph>
      <glyph unicode='&#xD3;' horiz-adv-x='256' d='M128,512 L192,512 L192,481 L191,480 L160,480 L160,449 L159,448 L97,448 L96,449 L96,479 L97,480 L128,480 ZM33,416 L191,416 L192,415 L192,384 L223,384 L224,383 L224,161 L223,160 L192,160 L192,129 L191,128 L33,128 L32,129 L32,160 L0,160 L0,384 L32,384 L32,415 ZM96,384 L64,384 L64,160 L160,160 L160,384 Z'></glyph>
      <glyph unicode='&#xD4;' horiz-adv-x='256' d='M96,512 L128,512 L128,480 L159,480 L160,479 L160,449 L159,448 L65,448 L64,449 L64,479 L65,480 L96,480 ZM33,448 L63,448 L64,447 L64,416 L160,416 L160,447 L161,448 L191,448 L192,447 L192,384 L223,384 L224,383 L224,161 L223,160 L192,160 L192,129 L191,128 L33,128 L32,129 L32,160 L0,160 L0,384 L32,384 L32,447 ZM96,384 L64,384 L64,160 L160,160 L160,384 Z'></glyph>
      <glyph unicode='&#xD5;' horiz-adv-x='256' d='M32,512 L128,512 L128,480 L160,480 L160,512 L224,512 L224,481 L223,480 L192,480 L192,449 L191,448 L97,448 L96,449 L96,480 L64,480 L64,449 L63,448 L0,448 L0,480 L32,480 ZM33,416 L191,416 L192,415 L192,384 L223,384 L224,383 L224,161 L223,160 L192,160 L192,129 L191,128 L33,128 L32,129 L32,160 L0,160 L0,384 L32,384 L32,415 ZM96,384 L64,384 L64,160 L160,160 L160,384 Z'></glyph>
      <glyph unicode='&#xD6;' horiz-adv-x='256' d='M32,512 L96,512 L96,449 L95,448 L33,448 L32,449 ZM128,512 L192,512 L192,449 L191,448 L129,448 L128,449 ZM33,416 L191,416 L192,415 L192,384 L223,384 L224,383 L224,161 L223,160 L192,160 L192,129 L191,128 L33,128 L32,129 L32,160 L0,160 L0,384 L32,384 L32,415 ZM96,384 L64,384 L64,160 L160,160 L160,384 Z'></glyph>
      <glyph unicode='&#xD7;' horiz-adv-x='256' d='M33,352 L95,352 L96,351 L96,320 L160,320 L160,351 L161,352 L223,352 L224,351 L224,321 L223,320 L192,320 L192,289 L191,288 L160,288 L160,256 L191,256 L192,255 L192,224 L223,224 L224,223 L224,193 L223,192 L161,192 L160,193 L160,224 L96,224 L96,193 L95,192 L33,192 L32,193 L32,223 L33,224 L64,224 L64,255 L65,256 L96,256 L96,288 L65,288 L64,289 L64,320 L33,320 L32,321 L32,351 Z'></glyph>
      <glyph unicode='&#xD8;' horiz-adv-x='256' d='M33,448 L159,448 L160,447 L160,417 L159,416 L64,416 L64,256 L95,256 L96,255 L96,193 L95,192 L64,192 L64,161 L63,160 L33,160 L32,161 L32,192 L0,192 L0,416 L32,416 L32,447 ZM193,448 L223,448 L224,447 L224,417 L223,416 L193,416 L192,417 L192,447 ZM161,416 L191,416 L192,415 L192,384 L223,384 L224,383 L224,161 L223,160 L192,160 L192,129 L191,128 L65,128 L64,129 L64,159 L65,160 L160,160 L160,320 L129,320 L128,321 L128,383 L129,384 L160,384 L160,415 ZM97,320 L127,320 L128,319 L128,257 L127,256 L97,256 L96,257 L96,319 ZM0,160 L31,160 L32,159 L32,129 L31,128 L0,128 Z'></glyph>
      <glyph unicode='&#xD9;' horiz-adv-x='256' d='M32,512 L96,512 L96,480 L127,480 L128,479 L128,449 L127,448 L65,448 L64,449 L64,480 L33,480 L32,481 ZM0,416 L63,416 L64,415 L64,160 L160,160 L160,415 L161,416 L223,416 L224,415 L224,161 L223,160 L192,160 L192,129 L191,128 L33,128 L32,129 L32,160 L0,160 Z'></glyph>
      <glyph unicode='&#xDA;' horiz-adv-x='256' d='M128,512 L192,512 L192,481 L191,480 L160,480 L160,449 L159,448 L97,448 L96,449 L96,479 L97,480 L128,480 ZM0,416 L63,416 L64,415 L64,160 L160,160 L160,415 L161,416 L223,416 L224,415 L224,161 L223,160 L192,160 L192,129 L191,128 L33,128 L32,129 L32,160 L0,160 Z'></glyph>
      <glyph unicode='&#xDB;' horiz-adv-x='256' d='M96,512 L128,512 L128,480 L159,480 L160,479 L160,449 L159,448 L65,448 L64,449 L64,479 L65,480 L96,480 ZM33,448 L63,448 L64,447 L64,160 L160,160 L160,447 L161,448 L191,448 L192,447 L192,416 L223,416 L224,415 L224,161 L223,160 L192,160 L192,129 L191,128 L33,128 L32,129 L32,160 L0,160 L0,416 L32,416 L32,447 Z'></glyph>
      <glyph unicode='&#xDC;' horiz-adv-x='256' d='M32,512 L96,512 L96,449 L95,448 L33,448 L32,449 ZM128,512 L192,512 L192,449 L191,448 L129,448 L128,449 ZM0,416 L63,416 L64,415 L64,160 L160,160 L160,415 L161,416 L223,416 L224,415 L224,161 L223,160 L192,160 L192,129 L191,128 L33,128 L32,129 L32,160 L0,160 Z'></glyph>
      <glyph unicode='&#xDD;' horiz-adv-x='256' d='M128,512 L192,512 L192,481 L191,480 L160,480 L160,449 L159,448 L97,448 L96,449 L96,479 L97,480 L128,480 ZM33,416 L95,416 L96,415 L96,320 L160,320 L160,415 L161,416 L223,416 L224,415 L224,321 L223,320 L192,320 L192,289 L191,288 L160,288 L160,160 L191,160 L192,159 L192,129 L191,128 L65,128 L64,129 L64,159 L65,160 L96,160 L96,288 L65,288 L64,289 L64,320 L33,320 L32,321 L32,415 Z'></glyph>
      <glyph unicode='&#xDE;' horiz-adv-x='256' d='M0,448 L127,448 L128,447 L128,417 L127,416 L96,416 L96,384 L191,384 L192,383 L192,352 L223,352 L224,351 L224,225 L223,224 L192,224 L192,193 L191,192 L96,192 L96,160 L127,160 L128,159 L128,129 L127,128 L0,128 L0,160 L32,160 L32,416 L0,416 ZM128,352 L96,352 L96,224 L160,224 L160,352 Z'></glyph>
      <glyph unicode='&#xDF;' horiz-adv-x='256' d='M65,448 L191,448 L192,447 L192,416 L223,416 L224,415 L224,321 L223,320 L192,320 L192,288 L223,288 L224,287 L224,161 L223,160 L192,160 L192,129 L191,128 L129,128 L128,129 L128,159 L129,160 L160,160 L160,288 L129,288 L128,289 L128,319 L129,320 L160,320 L160,416 L96,416 L96,129 L95,128 L0,128 L0,160 L32,160 L32,415 L33,416 L64,416 L64,447 Z'></glyph>
      <glyph unicode='&#xE0;' horiz-adv-x='256' d='M33,448 L95,448 L96,447 L96,416 L127,416 L128,415 L128,385 L127,384 L65,384 L64,385 L64,416 L33,416 L32,417 L32,447 ZM33,352 L159,352 L160,351 L160,320 L191,320 L192,319 L192,160 L223,160 L224,159 L224,129 L223,128 L161,128 L160,129 L160,160 L129,160 L128,161 L128,256 L64,256 L64,160 L127,160 L128,159 L128,129 L127,128 L33,128 L32,129 L32,160 L0,160 L0,256 L32,256 L32,287 L33,288 L128,288 L128,320 L33,320 L32,321 L32,351 Z'></glyph>
      <glyph unicode='&#xE1;' horiz-adv-x='256' d='M97,448 L159,448 L160,447 L160,417 L159,416 L128,416 L128,385 L127,384 L65,384 L64,385 L64,415 L65,416 L96,416 L96,447 ZM33,352 L159,352 L160,351 L160,320 L191,320 L192,319 L192,160 L223,160 L224,159 L224,129 L223,128 L161,128 L160,129 L160,160 L129,160 L128,161 L128,256 L64,256 L64,160 L127,160 L128,159 L128,129 L127,128 L33,128 L32,129 L32,160 L0,160 L0,256 L32,256 L32,287 L33,288 L128,288 L128,320 L33,320 L32,321 L32,351 Z'></glyph>
      <glyph unicode='&#xE2;' horiz-adv-x='256' d='M97,480 L127,480 L128,479 L128,448 L159,448 L160,447 L160,416 L191,416 L192,415 L192,385 L191,384 L129,384 L128,385 L128,416 L96,416 L96,385 L95,384 L33,384 L32,385 L32,415 L33,416 L64,416 L64,447 L65,448 L96,448 L96,479 ZM33,352 L159,352 L160,351 L160,320 L191,320 L192,319 L192,160 L223,160 L224,159 L224,129 L223,128 L161,128 L160,129 L160,160 L129,160 L128,161 L128,256 L64,256 L64,160 L127,160 L128,159 L128,129 L127,128 L33,128 L32,129 L32,160 L0,160 L0,256 L32,256 L32,287 L33,288 L128,288 L128,320 L33,320 L32,321 L32,351 Z'></glyph>
      <glyph unicode='&#xE3;' horiz-adv-x='256' d='M33,448 L127,448 L128,447 L128,416 L160,416 L160,447 L161,448 L223,448 L224,447 L224,417 L223,416 L192,416 L192,385 L191,384 L97,384 L96,385 L96,416 L64,416 L64,385 L63,384 L0,384 L0,416 L32,416 L32,447 ZM33,352 L159,352 L160,351 L160,320 L191,320 L192,319 L192,160 L223,160 L224,159 L224,129 L223,128 L161,128 L160,129 L160,160 L129,160 L128,161 L128,256 L64,256 L64,160 L127,160 L128,159 L128,129 L127,128 L33,128 L32,129 L32,160 L0,160 L0,256 L32,256 L32,287 L33,288 L128,288 L128,320 L33,320 L32,321 L32,351 Z'></glyph>
      <glyph unicode='&#xE4;' horiz-adv-x='256' d='M33,448 L95,448 L96,447 L96,385 L95,384 L33,384 L32,385 L32,447 ZM129,448 L191,448 L192,447 L192,385 L191,384 L129,384 L128,385 L128,447 ZM33,352 L159,352 L160,351 L160,320 L191,320 L192,319 L192,160 L223,160 L224,159 L224,129 L223,128 L161,128 L160,129 L160,160 L129,160 L128,161 L128,256 L64,256 L64,160 L127,160 L128,159 L128,129 L127,128 L33,128 L32,129 L32,160 L0,160 L0,256 L32,256 L32,287 L33,288 L128,288 L128,320 L33,320 L32,321 L32,351 Z'></glyph>
      <glyph unicode='&#xE5;' horiz-adv-x='256' d='M65,480 L159,480 L160,479 L160,448 L191,448 L192,447 L192,417 L191,416 L160,416 L160,385 L159,384 L65,384 L64,385 L64,416 L33,416 L32,417 L32,447 L33,448 L64,448 L64,479 ZM128,448 L96,448 L96,416 L128,416 ZM33,352 L159,352 L160,351 L160,320 L191,320 L192,319 L192,160 L223,160 L224,159 L224,129 L223,128 L161,128 L160,129 L160,160 L129,160 L128,161 L128,256 L64,256 L64,160 L127,160 L128,159 L128,129 L127,128 L33,128 L32,129 L32,160 L0,160 L0,256 L32,256 L32,287 L33,288 L128,288 L128,320 L33,320 L32,321 L32,351 Z'></glyph>
      <glyph unicode='&#xE6;' horiz-adv-x='256' d='M0,352 L63,352 L64,351 L64,320 L127,320 L128,319 L128,256 L160,256 L160,320 L129,320 L128,321 L128,351 L129,352 L191,352 L192,351 L192,320 L223,320 L224,319 L224,225 L223,224 L160,224 L160,160 L223,160 L224,159 L224,129 L223,128 L129,128 L128,129 L128,160 L97,160 L96,161 L96,224 L64,224 L64,160 L95,160 L96,159 L96,129 L95,128 L33,128 L32,129 L32,160 L0,160 L0,224 L32,224 L32,255 L33,256 L64,256 L64,288 L33,288 L32,289 L32,320 L0,320 Z'></glyph>
      <glyph unicode='&#xE7;' horiz-adv-x='256' d='M33,352 L191,352 L192,351 L192,320 L223,320 L224,319 L224,289 L223,288 L161,288 L160,289 L160,320 L64,320 L64,160 L160,160 L160,191 L161,192 L223,192 L224,191 L224,161 L223,160 L192,160 L192,129 L191,128 L160,128 L160,96 L191,96 L192,95 L192,65 L191,64 L160,64 L160,33 L159,32 L65,32 L64,33 L64,63 L65,64 L128,64 L128,96 L97,96 L96,97 L96,128 L33,128 L32,129 L32,160 L0,160 L0,320 L32,320 L32,351 Z'></glyph>
      <glyph unicode='&#xE8;' horiz-adv-x='256' d='M33,448 L95,448 L96,447 L96,416 L127,416 L128,415 L128,385 L127,384 L65,384 L64,385 L64,416 L33,416 L32,417 L32,447 ZM33,352 L191,352 L192,351 L192,320 L223,320 L224,319 L224,257 L223,256 L64,256 L64,160 L160,160 L160,191 L161,192 L223,192 L224,191 L224,161 L223,160 L192,160 L192,129 L191,128 L33,128 L32,129 L32,160 L0,160 L0,320 L32,320 L32,351 ZM96,320 L64,320 L64,288 L160,288 L160,320 Z'></glyph>
      <glyph unicode='&#xE9;' horiz-adv-x='256' d='M129,448 L191,448 L192,447 L192,417 L191,416 L160,416 L160,385 L159,384 L97,384 L96,385 L96,415 L97,416 L128,416 L128,447 ZM33,352 L191,352 L192,351 L192,320 L223,320 L224,319 L224,257 L223,256 L64,256 L64,160 L160,160 L160,191 L161,192 L223,192 L224,191 L224,161 L223,160 L192,160 L192,129 L191,128 L33,128 L32,129 L32,160 L0,160 L0,320 L32,320 L32,351 ZM96,320 L64,320 L64,288 L160,288 L160,320 Z'></glyph>
      <glyph unicode='&#xEA;' horiz-adv-x='256' d='M97,480 L127,480 L128,479 L128,448 L159,448 L160,447 L160,416 L191,416 L192,415 L192,385 L191,384 L129,384 L128,385 L128,416 L96,416 L96,385 L95,384 L33,384 L32,385 L32,415 L33,416 L64,416 L64,447 L65,448 L96,448 L96,479 ZM33,352 L191,352 L192,351 L192,320 L223,320 L224,319 L224,257 L223,256 L64,256 L64,160 L160,160 L160,191 L161,192 L223,192 L224,191 L224,161 L223,160 L192,160 L192,129 L191,128 L33,128 L32,129 L32,160 L0,160 L0,320 L32,320 L32,351 ZM96,320 L64,320 L64,288 L160,288 L160,320 Z'></glyph>
      <glyph unicode='&#xEB;' horiz-adv-x='256' d='M33,448 L95,448 L96,447 L96,385 L95,384 L33,384 L32,385 L32,447 ZM129,448 L191,448 L192,447 L192,385 L191,384 L129,384 L128,385 L128,447 ZM33,352 L191,352 L192,351 L192,320 L223,320 L224,319 L224,257 L223,256 L64,256 L64,160 L160,160 L160,191 L161,192 L223,192 L224,191 L224,161 L223,160 L192,160 L192,129 L191,128 L33,128 L32,129 L32,160 L0,160 L0,320 L32,320 L32,351 ZM96,320 L64,320 L64,288 L160,288 L160,320 Z'></glyph>
      <glyph unicode='&#xEC;' horiz-adv-x='256' d='M65,448 L127,448 L128,447 L128,416 L159,416 L160,415 L160,385 L159,384 L97,384 L96,385 L96,416 L65,416 L64,417 L64,447 ZM65,352 L159,352 L160,351 L160,160 L191,160 L192,159 L192,129 L191,128 L65,128 L64,129 L64,159 L65,160 L96,160 L96,320 L65,320 L64,321 L64,351 Z'></glyph>
      <glyph unicode='&#xED;' horiz-adv-x='256' d='M129,448 L191,448 L192,447 L192,417 L191,416 L160,416 L160,385 L159,384 L97,384 L96,385 L96,415 L97,416 L128,416 L128,447 ZM65,352 L159,352 L160,351 L160,160 L191,160 L192,159 L192,129 L191,128 L65,128 L64,129 L64,159 L65,160 L96,160 L96,320 L65,320 L64,321 L64,351 Z'></glyph>
      <glyph unicode='&#xEE;' horiz-adv-x='256' d='M97,480 L127,480 L128,479 L128,448 L159,448 L160,447 L160,416 L191,416 L192,415 L192,385 L191,384 L129,384 L128,385 L128,416 L96,416 L96,385 L95,384 L33,384 L32,385 L32,415 L33,416 L64,416 L64,447 L65,448 L96,448 L96,479 ZM65,352 L159,352 L160,351 L160,160 L191,160 L192,159 L192,129 L191,128 L65,128 L64,129 L64,159 L65,160 L96,160 L96,320 L65,320 L64,321 L64,351 Z'></glyph>
      <glyph unicode='&#xEF;' horiz-adv-x='256' d='M33,448 L95,448 L96,447 L96,385 L95,384 L33,384 L32,385 L32,447 ZM161,448 L223,448 L224,447 L224,385 L223,384 L161,384 L160,385 L160,447 ZM65,352 L159,352 L160,351 L160,160 L191,160 L192,159 L192,129 L191,128 L65,128 L64,129 L64,159 L65,160 L96,160 L96,320 L65,320 L64,321 L64,351 Z'></glyph>
      <glyph unicode='&#xF0;' horiz-adv-x='256' d='M33,448 L127,448 L128,447 L128,416 L160,416 L160,447 L161,448 L223,448 L224,447 L224,417 L223,416 L192,416 L192,352 L223,352 L224,351 L224,161 L223,160 L192,160 L192,129 L191,128 L33,128 L32,129 L32,160 L0,160 L0,288 L32,288 L32,319 L33,320 L160,320 L160,352 L65,352 L64,353 L64,383 L65,384 L96,384 L96,416 L33,416 L32,417 L32,447 ZM96,288 L64,288 L64,160 L160,160 L160,288 Z'></glyph>
      <glyph unicode='&#xF1;' horiz-adv-x='256' d='M33,448 L127,448 L128,447 L128,416 L160,416 L160,447 L161,448 L223,448 L224,447 L224,417 L223,416 L192,416 L192,385 L191,384 L97,384 L96,385 L96,416 L64,416 L64,385 L63,384 L0,384 L0,416 L32,416 L32,447 ZM0,352 L63,352 L64,351 L64,320 L95,320 L96,319 L96,129 L95,128 L33,128 L32,129 L32,320 L0,320 ZM97,352 L191,352 L192,351 L192,320 L223,320 L224,319 L224,129 L223,128 L161,128 L160,129 L160,320 L97,320 L96,321 L96,351 Z'></glyph>
      <glyph unicode='&#xF2;' horiz-adv-x='256' d='M33,448 L95,448 L96,447 L96,416 L127,416 L128,415 L128,385 L127,384 L65,384 L64,385 L64,416 L33,416 L32,417 L32,447 ZM33,352 L191,352 L192,351 L192,320 L223,320 L224,319 L224,161 L223,160 L192,160 L192,129 L191,128 L33,128 L32,129 L32,160 L0,160 L0,320 L32,320 L32,351 ZM96,320 L64,320 L64,160 L160,160 L160,320 Z'></glyph>
      <glyph unicode='&#xF3;' horiz-adv-x='256' d='M129,448 L191,448 L192,447 L192,417 L191,416 L160,416 L160,385 L159,384 L97,384 L96,385 L96,415 L97,416 L128,416 L128,447 ZM33,352 L191,352 L192,351 L192,320 L223,320 L224,319 L224,161 L223,160 L192,160 L192,129 L191,128 L33,128 L32,129 L32,160 L0,160 L0,320 L32,320 L32,351 ZM96,320 L64,320 L64,160 L160,160 L160,320 Z'></glyph>
      <glyph unicode='&#xF4;' horiz-adv-x='256' d='M97,480 L127,480 L128,479 L128,448 L159,448 L160,447 L160,416 L191,416 L192,415 L192,385 L191,384 L129,384 L128,385 L128,416 L96,416 L96,385 L95,384 L33,384 L32,385 L32,415 L33,416 L64,416 L64,447 L65,448 L96,448 L96,479 ZM33,352 L191,352 L192,351 L192,320 L223,320 L224,319 L224,161 L223,160 L192,160 L192,129 L191,128 L33,128 L32,129 L32,160 L0,160 L0,320 L32,320 L32,351 ZM96,320 L64,320 L64,160 L160,160 L160,320 Z'></glyph>
      <glyph unicode='&#xF5;' horiz-adv-x='256' d='M33,448 L127,448 L128,447 L128,416 L160,416 L160,447 L161,448 L223,448 L224,447 L224,417 L223,416 L192,416 L192,385 L191,384 L97,384 L96,385 L96,416 L64,416 L64,385 L63,384 L0,384 L0,416 L32,416 L32,447 ZM33,352 L191,352 L192,351 L192,320 L223,320 L224,319 L224,161 L223,160 L192,160 L192,129 L191,128 L33,128 L32,129 L32,160 L0,160 L0,320 L32,320 L32,351 ZM96,320 L64,320 L64,160 L160,160 L160,320 Z'></glyph>
      <glyph unicode='&#xF6;' horiz-adv-x='256' d='M33,448 L95,448 L96,447 L96,385 L95,384 L33,384 L32,385 L32,447 ZM129,448 L191,448 L192,447 L192,385 L191,384 L129,384 L128,385 L128,447 ZM33,352 L191,352 L192,351 L192,320 L223,320 L224,319 L224,161 L223,160 L192,160 L192,129 L191,128 L33,128 L32,129 L32,160 L0,160 L0,320 L32,320 L32,351 ZM96,320 L64,320 L64,160 L160,160 L160,320 Z'></glyph>
      <glyph unicode='&#xF7;' horiz-adv-x='256' d='M97,384 L159,384 L160,383 L160,321 L159,320 L97,320 L96,321 L96,383 ZM33,288 L223,288 L224,287 L224,257 L223,256 L33,256 L32,257 L32,287 ZM97,224 L159,224 L160,223 L160,161 L159,160 L97,160 L96,161 L96,223 Z'></glyph>
      <glyph unicode='&#xF8;' horiz-adv-x='256' d='M33,352 L159,352 L160,351 L160,321 L159,320 L64,320 L64,224 L95,224 L96,223 L96,193 L95,192 L64,192 L64,161 L63,160 L33,160 L32,161 L32,192 L0,192 L0,320 L32,320 L32,351 ZM193,352 L223,352 L224,351 L224,321 L223,320 L193,320 L192,321 L192,351 ZM161,320 L191,320 L192,319 L192,288 L223,288 L224,287 L224,161 L223,160 L192,160 L192,129 L191,128 L65,128 L64,129 L64,159 L65,160 L160,160 L160,256 L129,256 L128,257 L128,287 L129,288 L160,288 L160,319 ZM97,256 L127,256 L128,255 L128,225 L127,224 L97,224 L96,225 L96,255 ZM0,160 L31,160 L32,159 L32,129 L31,128 L0,128 Z'></glyph>
      <glyph unicode='&#xF9;' horiz-adv-x='256' d='M33,448 L95,448 L96,447 L96,416 L127,416 L128,415 L128,385 L127,384 L65,384 L64,385 L64,416 L33,416 L32,417 L32,447 ZM0,352 L63,352 L64,351 L64,160 L127,160 L128,159 L128,129 L127,128 L33,128 L32,129 L32,160 L0,160 ZM129,352 L191,352 L192,351 L192,160 L223,160 L224,159 L224,129 L223,128 L161,128 L160,129 L160,160 L129,160 L128,161 L128,351 Z'></glyph>
      <glyph unicode='&#xFA;' horiz-adv-x='256' d='M97,448 L159,448 L160,447 L160,417 L159,416 L128,416 L128,385 L127,384 L65,384 L64,385 L64,415 L65,416 L96,416 L96,447 ZM0,352 L63,352 L64,351 L64,160 L127,160 L128,159 L128,129 L127,128 L33,128 L32,129 L32,160 L0,160 ZM129,352 L191,352 L192,351 L192,160 L223,160 L224,159 L224,129 L223,128 L161,128 L160,129 L160,160 L129,160 L128,161 L128,351 Z'></glyph>
      <glyph unicode='&#xFB;' horiz-adv-x='256' d='M97,480 L127,480 L128,479 L128,448 L159,448 L160,447 L160,416 L191,416 L192,415 L192,385 L191,384 L129,384 L128,385 L128,416 L96,416 L96,385 L95,384 L33,384 L32,385 L32,415 L33,416 L64,416 L64,447 L65,448 L96,448 L96,479 ZM0,352 L63,352 L64,351 L64,160 L127,160 L128,159 L128,129 L127,128 L33,128 L32,129 L32,160 L0,160 ZM129,352 L191,352 L192,351 L192,160 L223,160 L224,159 L224,129 L223,128 L161,128 L160,129 L160,160 L129,160 L128,161 L128,351 Z'></glyph>
      <glyph unicode='&#xFC;' horiz-adv-x='256' d='M0,448 L63,448 L64,447 L64,385 L63,384 L0,384 ZM129,448 L191,448 L192,447 L192,385 L191,384 L129,384 L128,385 L128,447 ZM0,352 L63,352 L64,351 L64,160 L127,160 L128,159 L128,129 L127,128 L33,128 L32,129 L32,160 L0,160 ZM129,352 L191,352 L192,351 L192,160 L223,160 L224,159 L224,129 L223,128 L161,128 L160,129 L160,160 L129,160 L128,161 L128,351 Z'></glyph>
      <glyph unicode='&#xFD;' horiz-adv-x='256' d='M129,448 L191,448 L192,447 L192,417 L191,416 L160,416 L160,385 L159,384 L97,384 L96,385 L96,415 L97,416 L128,416 L128,447 ZM0,352 L63,352 L64,351 L64,160 L160,160 L160,351 L161,352 L223,352 L224,351 L224,97 L223,96 L192,96 L192,65 L191,64 L160,64 L160,33 L159,32 L0,32 L0,64 L128,64 L128,95 L129,96 L160,96 L160,128 L33,128 L32,129 L32,160 L0,160 Z'></glyph>
      <glyph unicode='&#xFE;' horiz-adv-x='256' d='M0,448 L95,448 L96,447 L96,352 L191,352 L192,351 L192,320 L223,320 L224,319 L224,161 L223,160 L192,160 L192,129 L191,128 L96,128 L96,64 L127,64 L128,63 L128,33 L127,32 L0,32 L0,64 L32,64 L32,416 L0,416 ZM128,320 L96,320 L96,160 L160,160 L160,320 Z'></glyph>
      <glyph unicode='&#xFF;' horiz-adv-x='256' d='M33,448 L95,448 L96,447 L96,385 L95,384 L33,384 L32,385 L32,447 ZM129,448 L191,448 L192,447 L192,385 L191,384 L129,384 L128,385 L128,447 ZM0,352 L63,352 L64,351 L64,160 L160,160 L160,351 L161,352 L223,352 L224,351 L224,97 L223,96 L192,96 L192,65 L191,64 L160,64 L160,33 L159,32 L0,32 L0,64 L128,64 L128,95 L129,96 L160,96 L160,128 L33,128 L32,129 L32,160 L0,160 Z'></glyph>
      <glyph unicode='&#x0100;' horiz-adv-x='256' d='M33,480 L191,480 L192,479 L192,449 L191,448 L33,448 L32,449 L32,479 ZM97,416 L127,416 L128,415 L128,384 L159,384 L160,383 L160,352 L191,352 L192,351 L192,320 L223,320 L224,319 L224,129 L223,128 L161,128 L160,129 L160,224 L64,224 L64,129 L63,128 L0,128 L0,320 L32,320 L32,351 L33,352 L64,352 L64,383 L65,384 L96,384 L96,415 ZM128,352 L96,352 L96,321 L95,320 L64,320 L64,256 L160,256 L160,320 L129,320 L128,321 Z'></glyph>
      <glyph unicode='&#x0101;' horiz-adv-x='256' d='M33,416 L191,416 L192,415 L192,385 L191,384 L33,384 L32,385 L32,415 ZM33,352 L159,352 L160,351 L160,320 L191,320 L192,319 L192,160 L223,160 L224,159 L224,129 L223,128 L161,128 L160,129 L160,160 L129,160 L128,161 L128,256 L64,256 L64,160 L127,160 L128,159 L128,129 L127,128 L33,128 L32,129 L32,160 L0,160 L0,256 L32,256 L32,287 L33,288 L128,288 L128,320 L33,320 L32,321 L32,351 Z'></glyph>
      <glyph unicode='&#x0102;' horiz-adv-x='256' d='M32,512 L96,512 L96,480 L128,480 L128,512 L192,512 L192,481 L191,480 L160,480 L160,449 L159,448 L65,448 L64,449 L64,480 L33,480 L32,481 ZM97,416 L127,416 L128,415 L128,384 L159,384 L160,383 L160,352 L191,352 L192,351 L192,320 L223,320 L224,319 L224,129 L223,128 L161,128 L160,129 L160,224 L64,224 L64,129 L63,128 L0,128 L0,320 L32,320 L32,351 L33,352 L64,352 L64,383 L65,384 L96,384 L96,415 ZM128,352 L96,352 L96,321 L95,320 L64,320 L64,256 L160,256 L160,320 L129,320 L128,321 Z'></glyph>
      <glyph unicode='&#x0103;' horiz-adv-x='256' d='M33,448 L95,448 L96,447 L96,416 L128,416 L128,447 L129,448 L191,448 L192,447 L192,417 L191,416 L160,416 L160,385 L159,384 L65,384 L64,385 L64,416 L33,416 L32,417 L32,447 ZM33,352 L159,352 L160,351 L160,320 L191,320 L192,319 L192,160 L223,160 L224,159 L224,129 L223,128 L161,128 L160,129 L160,160 L129,160 L128,161 L128,256 L64,256 L64,160 L127,160 L128,159 L128,129 L127,128 L33,128 L32,129 L32,160 L0,160 L0,256 L32,256 L32,287 L33,288 L128,288 L128,320 L33,320 L32,321 L32,351 Z'></glyph>
      <glyph unicode='&#x0104;' horiz-adv-x='256' d='M97,448 L127,448 L128,447 L128,416 L159,416 L160,415 L160,384 L191,384 L192,383 L192,352 L223,352 L224,351 L224,129 L223,128 L192,128 L192,97 L191,96 L160,96 L160,64 L223,64 L224,63 L224,33 L223,32 L129,32 L128,33 L128,64 L97,64 L96,65 L96,95 L97,96 L128,96 L128,127 L129,128 L160,128 L160,256 L64,256 L64,129 L63,128 L0,128 L0,352 L32,352 L32,383 L33,384 L64,384 L64,415 L65,416 L96,416 L96,447 ZM128,384 L96,384 L96,353 L95,352 L64,352 L64,288 L160,288 L160,352 L129,352 L128,353 Z'></glyph>
      <glyph unicode='&#x0105;' horiz-adv-x='256' d='M33,352 L159,352 L160,351 L160,320 L191,320 L192,319 L192,160 L223,160 L224,159 L224,129 L223,128 L192,128 L192,97 L191,96 L160,96 L160,64 L223,64 L224,63 L224,33 L223,32 L129,32 L128,33 L128,64 L97,64 L96,65 L96,95 L97,96 L128,96 L128,127 L129,128 L160,128 L160,160 L129,160 L128,161 L128,256 L64,256 L64,160 L127,160 L128,159 L128,129 L127,128 L33,128 L32,129 L32,160 L0,160 L0,256 L32,256 L32,287 L33,288 L128,288 L128,320 L33,320 L32,321 L32,351 Z'></glyph>
      <glyph unicode='&#x0106;' horiz-adv-x='256' d='M128,512 L192,512 L192,481 L191,480 L160,480 L160,449 L159,448 L97,448 L96,449 L96,479 L97,480 L128,480 ZM65,416 L191,416 L192,415 L192,384 L223,384 L224,383 L224,321 L223,320 L193,320 L192,321 L192,352 L161,352 L160,353 L160,384 L96,384 L96,353 L95,352 L64,352 L64,192 L95,192 L96,191 L96,160 L160,160 L160,191 L161,192 L192,192 L192,223 L193,224 L223,224 L224,223 L224,161 L223,160 L192,160 L192,129 L191,128 L65,128 L64,129 L64,160 L33,160 L32,161 L32,192 L0,192 L0,352 L32,352 L32,383 L33,384 L64,384 L64,415 Z'></glyph>
      <glyph unicode='&#x0107;' horiz-adv-x='256' d='M129,448 L191,448 L192,447 L192,417 L191,416 L160,416 L160,385 L159,384 L97,384 L96,385 L96,415 L97,416 L128,416 L128,447 ZM33,352 L191,352 L192,351 L192,320 L223,320 L224,319 L224,289 L223,288 L161,288 L160,289 L160,320 L64,320 L64,160 L160,160 L160,191 L161,192 L223,192 L224,191 L224,161 L223,160 L192,160 L192,129 L191,128 L33,128 L32,129 L32,160 L0,160 L0,320 L32,320 L32,351 Z'></glyph>
      <glyph unicode='&#x0108;' horiz-adv-x='256' d='M96,512 L128,512 L128,480 L159,480 L160,479 L160,449 L159,448 L65,448 L64,449 L64,479 L65,480 L96,480 ZM33,448 L63,448 L64,447 L64,417 L63,416 L33,416 L32,417 L32,447 ZM161,448 L191,448 L192,447 L192,384 L223,384 L224,383 L224,321 L223,320 L193,320 L192,321 L192,352 L161,352 L160,353 L160,384 L96,384 L96,353 L95,352 L64,352 L64,192 L95,192 L96,191 L96,160 L160,160 L160,191 L161,192 L192,192 L192,223 L193,224 L223,224 L224,223 L224,161 L223,160 L192,160 L192,129 L191,128 L65,128 L64,129 L64,160 L33,160 L32,161 L32,192 L0,192 L0,352 L32,352 L32,383 L33,384 L64,384 L64,415 L65,416 L160,416 L160,447 Z'></glyph>
      <glyph unicode='&#x0109;' horiz-adv-x='256' d='M97,480 L127,480 L128,479 L128,448 L159,448 L160,447 L160,416 L191,416 L192,415 L192,385 L191,384 L129,384 L128,385 L128,416 L96,416 L96,385 L95,384 L33,384 L32,385 L32,415 L33,416 L64,416 L64,447 L65,448 L96,448 L96,479 ZM33,352 L191,352 L192,351 L192,320 L223,320 L224,319 L224,289 L223,288 L161,288 L160,289 L160,320 L64,320 L64,160 L160,160 L160,191 L161,192 L223,192 L224,191 L224,161 L223,160 L192,160 L192,129 L191,128 L33,128 L32,129 L32,160 L0,160 L0,320 L32,320 L32,351 Z'></glyph>
      <glyph unicode='&#x010A;' horiz-adv-x='256' d='M96,512 L160,512 L160,449 L159,448 L97,448 L96,449 ZM65,416 L191,416 L192,415 L192,384 L223,384 L224,383 L224,321 L223,320 L193,320 L192,321 L192,352 L161,352 L160,353 L160,384 L96,384 L96,353 L95,352 L64,352 L64,192 L95,192 L96,191 L96,160 L160,160 L160,191 L161,192 L192,192 L192,223 L193,224 L223,224 L224,223 L224,161 L223,160 L192,160 L192,129 L191,128 L65,128 L64,129 L64,160 L33,160 L32,161 L32,192 L0,192 L0,352 L32,352 L32,383 L33,384 L64,384 L64,415 Z'></glyph>
      <glyph unicode='&#x010B;' horiz-adv-x='256' d='M65,448 L127,448 L128,447 L128,385 L127,384 L65,384 L64,385 L64,447 ZM33,352 L191,352 L192,351 L192,320 L223,320 L224,319 L224,289 L223,288 L161,288 L160,289 L160,320 L64,320 L64,160 L160,160 L160,191 L161,192 L223,192 L224,191 L224,161 L223,160 L192,160 L192,129 L191,128 L33,128 L32,129 L32,160 L0,160 L0,320 L32,320 L32,351 Z'></glyph>
      <glyph unicode='&#x010C;' horiz-adv-x='256' d='M32,512 L96,512 L96,480 L128,480 L128,512 L192,512 L192,481 L191,480 L160,480 L160,449 L159,448 L128,448 L128,416 L191,416 L192,415 L192,384 L223,384 L224,383 L224,321 L223,320 L193,320 L192,321 L192,352 L161,352 L160,353 L160,384 L96,384 L96,353 L95,352 L64,352 L64,192 L95,192 L96,191 L96,160 L160,160 L160,191 L161,192 L192,192 L192,223 L193,224 L223,224 L224,223 L224,161 L223,160 L192,160 L192,129 L191,128 L65,128 L64,129 L64,160 L33,160 L32,161 L32,192 L0,192 L0,352 L32,352 L32,383 L33,384 L64,384 L64,415 L65,416 L96,416 L96,448 L65,448 L64,449 L64,480 L33,480 L32,481 Z'></glyph>
      <glyph unicode='&#x010D;' horiz-adv-x='256' d='M33,480 L95,480 L96,479 L96,448 L128,448 L128,479 L129,480 L191,480 L192,479 L192,449 L191,448 L160,448 L160,417 L159,416 L128,416 L128,385 L127,384 L97,384 L96,385 L96,416 L65,416 L64,417 L64,448 L33,448 L32,449 L32,479 ZM33,352 L191,352 L192,351 L192,320 L223,320 L224,319 L224,289 L223,288 L161,288 L160,289 L160,320 L64,320 L64,160 L160,160 L160,191 L161,192 L223,192 L224,191 L224,161 L223,160 L192,160 L192,129 L191,128 L33,128 L32,129 L32,160 L0,160 L0,320 L32,320 L32,351 Z'></glyph>
      <glyph unicode='&#x010E;' horiz-adv-x='256' d='M32,512 L96,512 L96,480 L128,480 L128,512 L192,512 L192,481 L191,480 L160,480 L160,449 L159,448 L128,448 L128,416 L159,416 L160,415 L160,384 L191,384 L192,383 L192,352 L223,352 L224,351 L224,193 L223,192 L192,192 L192,161 L191,160 L160,160 L160,129 L159,128 L0,128 L0,160 L32,160 L32,384 L0,384 L0,416 L96,416 L96,448 L65,448 L64,449 L64,480 L33,480 L32,481 ZM128,384 L96,384 L96,160 L128,160 L128,191 L129,192 L160,192 L160,352 L129,352 L128,353 Z'></glyph>
      <glyph unicode='&#x010F;' horiz-adv-x='256' d='M32,512 L96,512 L96,480 L128,480 L128,512 L192,512 L192,481 L191,480 L160,480 L160,449 L159,448 L128,448 L128,417 L127,416 L97,416 L96,417 L96,448 L65,448 L64,449 L64,480 L33,480 L32,481 ZM129,416 L191,416 L192,415 L192,160 L223,160 L224,159 L224,129 L223,128 L161,128 L160,129 L160,160 L129,160 L128,161 L128,320 L96,320 L96,289 L95,288 L64,288 L64,160 L127,160 L128,159 L128,129 L127,128 L33,128 L32,129 L32,160 L0,160 L0,288 L32,288 L32,319 L33,320 L64,320 L64,351 L65,352 L128,352 L128,415 Z'></glyph>
      <glyph unicode='&#x0110;' horiz-adv-x='256' d='M0,448 L159,448 L160,447 L160,416 L191,416 L192,415 L192,384 L223,384 L224,383 L224,193 L223,192 L192,192 L192,161 L191,160 L160,160 L160,129 L159,128 L0,128 L0,160 L32,160 L32,288 L0,288 L0,320 L32,320 L32,416 L0,416 ZM128,416 L96,416 L96,320 L127,320 L128,319 L128,289 L127,288 L96,288 L96,160 L128,160 L128,191 L129,192 L160,192 L160,384 L129,384 L128,385 Z'></glyph>
      <glyph unicode='&#x0111;' horiz-adv-x='256' d='M129,448 L191,448 L192,447 L192,416 L223,416 L224,415 L224,385 L223,384 L192,384 L192,160 L223,160 L224,159 L224,129 L223,128 L161,128 L160,129 L160,160 L129,160 L128,161 L128,320 L96,320 L96,289 L95,288 L64,288 L64,160 L127,160 L128,159 L128,129 L127,128 L33,128 L32,129 L32,160 L0,160 L0,288 L32,288 L32,319 L33,320 L64,320 L64,351 L65,352 L128,352 L128,384 L65,384 L64,385 L64,415 L65,416 L128,416 L128,447 Z'></glyph>
      <glyph unicode='&#x0112;' horiz-adv-x='256' d='M33,480 L191,480 L192,479 L192,449 L191,448 L33,448 L32,449 L32,479 ZM0,416 L223,416 L224,415 L224,321 L223,320 L193,320 L192,321 L192,352 L161,352 L160,353 L160,384 L96,384 L96,288 L128,288 L128,319 L129,320 L159,320 L160,319 L160,225 L159,224 L129,224 L128,225 L128,256 L96,256 L96,160 L160,160 L160,191 L161,192 L192,192 L192,223 L193,224 L223,224 L224,223 L224,129 L223,128 L0,128 L0,160 L32,160 L32,384 L0,384 Z'></glyph>
      <glyph unicode='&#x0113;' horiz-adv-x='256' d='M33,416 L191,416 L192,415 L192,385 L191,384 L33,384 L32,385 L32,415 ZM33,352 L191,352 L192,351 L192,320 L223,320 L224,319 L224,257 L223,256 L64,256 L64,160 L160,160 L160,191 L161,192 L223,192 L224,191 L224,161 L223,160 L192,160 L192,129 L191,128 L33,128 L32,129 L32,160 L0,160 L0,320 L32,320 L32,351 ZM96,320 L64,320 L64,288 L160,288 L160,320 Z'></glyph>
      <glyph unicode='&#x0114;' horiz-adv-x='256' d='M32,512 L96,512 L96,480 L128,480 L128,512 L192,512 L192,481 L191,480 L160,480 L160,449 L159,448 L65,448 L64,449 L64,480 L33,480 L32,481 ZM0,416 L223,416 L224,415 L224,321 L223,320 L193,320 L192,321 L192,352 L161,352 L160,353 L160,384 L96,384 L96,288 L128,288 L128,319 L129,320 L159,320 L160,319 L160,225 L159,224 L129,224 L128,225 L128,256 L96,256 L96,160 L160,160 L160,191 L161,192 L192,192 L192,223 L193,224 L223,224 L224,223 L224,129 L223,128 L0,128 L0,160 L32,160 L32,384 L0,384 Z'></glyph>
      <glyph unicode='&#x0115;' horiz-adv-x='256' d='M33,448 L95,448 L96,447 L96,416 L128,416 L128,447 L129,448 L191,448 L192,447 L192,417 L191,416 L160,416 L160,385 L159,384 L65,384 L64,385 L64,416 L33,416 L32,417 L32,447 ZM33,352 L191,352 L192,351 L192,320 L223,320 L224,319 L224,257 L223,256 L64,256 L64,160 L160,160 L160,191 L161,192 L223,192 L224,191 L224,161 L223,160 L192,160 L192,129 L191,128 L33,128 L32,129 L32,160 L0,160 L0,320 L32,320 L32,351 ZM96,320 L64,320 L64,288 L160,288 L160,320 Z'></glyph>
      <glyph unicode='&#x0116;' horiz-adv-x='256' d='M96,512 L160,512 L160,449 L159,448 L97,448 L96,449 ZM0,416 L223,416 L224,415 L224,321 L223,320 L193,320 L192,321 L192,352 L161,352 L160,353 L160,384 L96,384 L96,288 L128,288 L128,319 L129,320 L159,320 L160,319 L160,225 L159,224 L129,224 L128,225 L128,256 L96,256 L96,160 L160,160 L160,191 L161,192 L192,192 L192,223 L193,224 L223,224 L224,223 L224,129 L223,128 L0,128 L0,160 L32,160 L32,384 L0,384 Z'></glyph>
      <glyph unicode='&#x0117;' horiz-adv-x='256' d='M65,448 L127,448 L128,447 L128,385 L127,384 L65,384 L64,385 L64,447 ZM33,352 L191,352 L192,351 L192,320 L223,320 L224,319 L224,257 L223,256 L64,256 L64,160 L160,160 L160,191 L161,192 L223,192 L224,191 L224,161 L223,160 L192,160 L192,129 L191,128 L33,128 L32,129 L32,160 L0,160 L0,320 L32,320 L32,351 ZM96,320 L64,320 L64,288 L160,288 L160,320 Z'></glyph>
      <glyph unicode='&#x0118;' horiz-adv-x='256' d='M0,416 L223,416 L224,415 L224,321 L223,320 L193,320 L192,321 L192,352 L161,352 L160,353 L160,384 L96,384 L96,288 L128,288 L128,319 L129,320 L159,320 L160,319 L160,225 L159,224 L129,224 L128,225 L128,256 L96,256 L96,160 L160,160 L160,191 L161,192 L192,192 L192,223 L193,224 L223,224 L224,223 L224,129 L223,128 L160,128 L160,97 L159,96 L128,96 L128,64 L191,64 L192,63 L192,33 L191,32 L97,32 L96,33 L96,64 L65,64 L64,65 L64,95 L65,96 L96,96 L96,128 L0,128 L0,160 L32,160 L32,384 L0,384 Z'></glyph>
      <glyph unicode='&#x0119;' horiz-adv-x='256' d='M33,352 L191,352 L192,351 L192,320 L223,320 L224,319 L224,257 L223,256 L64,256 L64,160 L160,160 L160,191 L161,192 L223,192 L224,191 L224,161 L223,160 L192,160 L192,129 L191,128 L128,128 L128,97 L127,96 L96,96 L96,64 L159,64 L160,63 L160,33 L159,32 L65,32 L64,33 L64,64 L33,64 L32,65 L32,95 L33,96 L64,96 L64,128 L33,128 L32,129 L32,160 L0,160 L0,320 L32,320 L32,351 ZM96,320 L64,320 L64,288 L160,288 L160,320 Z'></glyph>
      <glyph unicode='&#x011A;' horiz-adv-x='256' d='M32,512 L96,512 L96,480 L128,480 L128,512 L192,512 L192,481 L191,480 L160,480 L160,449 L159,448 L128,448 L128,416 L223,416 L224,415 L224,321 L223,320 L193,320 L192,321 L192,352 L161,352 L160,353 L160,384 L96,384 L96,288 L128,288 L128,319 L129,320 L159,320 L160,319 L160,225 L159,224 L129,224 L128,225 L128,256 L96,256 L96,160 L160,160 L160,191 L161,192 L192,192 L192,223 L193,224 L223,224 L224,223 L224,129 L223,128 L0,128 L0,160 L32,160 L32,384 L0,384 L0,416 L96,416 L96,448 L65,448 L64,449 L64,480 L33,480 L32,481 Z'></glyph>
      <glyph unicode='&#x011B;' horiz-adv-x='256' d='M33,480 L95,480 L96,479 L96,448 L128,448 L128,479 L129,480 L191,480 L192,479 L192,449 L191,448 L160,448 L160,417 L159,416 L128,416 L128,385 L127,384 L97,384 L96,385 L96,416 L65,416 L64,417 L64,448 L33,448 L32,449 L32,479 ZM33,352 L191,352 L192,351 L192,320 L223,320 L224,319 L224,257 L223,256 L64,256 L64,160 L160,160 L160,191 L161,192 L223,192 L224,191 L224,161 L223,160 L192,160 L192,129 L191,128 L33,128 L32,129 L32,160 L0,160 L0,320 L32,320 L32,351 ZM96,320 L64,320 L64,288 L160,288 L160,320 Z'></glyph>
      <glyph unicode='&#x011C;' horiz-adv-x='256' d='M96,512 L128,512 L128,480 L159,480 L160,479 L160,449 L159,448 L65,448 L64,449 L64,479 L65,480 L96,480 ZM33,448 L63,448 L64,447 L64,417 L63,416 L33,416 L32,417 L32,447 ZM161,448 L191,448 L192,447 L192,384 L223,384 L224,383 L224,321 L223,320 L193,320 L192,321 L192,352 L161,352 L160,353 L160,384 L96,384 L96,353 L95,352 L64,352 L64,192 L95,192 L96,191 L96,160 L159,160 L160,159 L160,129 L159,128 L65,128 L64,129 L64,160 L33,160 L32,161 L32,192 L0,192 L0,352 L32,352 L32,383 L33,384 L64,384 L64,415 L65,416 L160,416 L160,447 ZM97,288 L223,288 L224,287 L224,129 L223,128 L193,128 L192,129 L192,160 L161,160 L160,161 L160,256 L97,256 L96,257 L96,287 Z'></glyph>
      <glyph unicode='&#x011D;' horiz-adv-x='256' d='M97,480 L127,480 L128,479 L128,448 L159,448 L160,447 L160,416 L191,416 L192,415 L192,385 L191,384 L129,384 L128,385 L128,416 L96,416 L96,385 L95,384 L33,384 L32,385 L32,415 L33,416 L64,416 L64,447 L65,448 L96,448 L96,479 ZM33,352 L127,352 L128,351 L128,321 L127,320 L64,320 L64,160 L128,160 L128,319 L129,320 L160,320 L160,351 L161,352 L223,352 L224,351 L224,321 L223,320 L192,320 L192,65 L191,64 L160,64 L160,33 L159,32 L33,32 L32,33 L32,64 L0,64 L0,96 L63,96 L64,95 L64,64 L128,64 L128,128 L33,128 L32,129 L32,160 L0,160 L0,320 L32,320 L32,351 Z'></glyph>
      <glyph unicode='&#x011E;' horiz-adv-x='256' d='M32,512 L96,512 L96,480 L128,480 L128,512 L192,512 L192,481 L191,480 L160,480 L160,449 L159,448 L65,448 L64,449 L64,480 L33,480 L32,481 ZM65,416 L191,416 L192,415 L192,384 L223,384 L224,383 L224,321 L223,320 L193,320 L192,321 L192,352 L161,352 L160,353 L160,384 L96,384 L96,353 L95,352 L64,352 L64,192 L95,192 L96,191 L96,160 L159,160 L160,159 L160,129 L159,128 L65,128 L64,129 L64,160 L33,160 L32,161 L32,192 L0,192 L0,352 L32,352 L32,383 L33,384 L64,384 L64,415 ZM97,288 L223,288 L224,287 L224,129 L223,128 L193,128 L192,129 L192,160 L161,160 L160,161 L160,256 L97,256 L96,257 L96,287 Z'></glyph>
      <glyph unicode='&#x011F;' horiz-adv-x='256' d='M33,448 L95,448 L96,447 L96,416 L128,416 L128,447 L129,448 L191,448 L192,447 L192,417 L191,416 L160,416 L160,385 L159,384 L65,384 L64,385 L64,416 L33,416 L32,417 L32,447 ZM33,352 L127,352 L128,351 L128,321 L127,320 L64,320 L64,160 L128,160 L128,319 L129,320 L160,320 L160,351 L161,352 L223,352 L224,351 L224,321 L223,320 L192,320 L192,65 L191,64 L160,64 L160,33 L159,32 L33,32 L32,33 L32,64 L0,64 L0,96 L63,96 L64,95 L64,64 L128,64 L128,128 L33,128 L32,129 L32,160 L0,160 L0,320 L32,320 L32,351 Z'></glyph>
      <glyph unicode='&#x0120;' horiz-adv-x='256' d='M96,512 L160,512 L160,449 L159,448 L97,448 L96,449 ZM65,416 L191,416 L192,415 L192,384 L223,384 L224,383 L224,321 L223,320 L193,320 L192,321 L192,352 L161,352 L160,353 L160,384 L96,384 L96,353 L95,352 L64,352 L64,192 L95,192 L96,191 L96,160 L159,160 L160,159 L160,129 L159,128 L65,128 L64,129 L64,160 L33,160 L32,161 L32,192 L0,192 L0,352 L32,352 L32,383 L33,384 L64,384 L64,415 ZM97,288 L223,288 L224,287 L224,129 L223,128 L193,128 L192,129 L192,160 L161,160 L160,161 L160,256 L97,256 L96,257 L96,287 Z'></glyph>
      <glyph unicode='&#x0121;' horiz-adv-x='256' d='M65,448 L127,448 L128,447 L128,385 L127,384 L65,384 L64,385 L64,447 ZM33,352 L127,352 L128,351 L128,321 L127,320 L64,320 L64,160 L128,160 L128,319 L129,320 L160,320 L160,351 L161,352 L223,352 L224,351 L224,321 L223,320 L192,320 L192,65 L191,64 L160,64 L160,33 L159,32 L33,32 L32,33 L32,64 L0,64 L0,96 L63,96 L64,95 L64,64 L128,64 L128,128 L33,128 L32,129 L32,160 L0,160 L0,320 L32,320 L32,351 Z'></glyph>
      <glyph unicode='&#x0122;' horiz-adv-x='256' d='M65,448 L191,448 L192,447 L192,416 L223,416 L224,415 L224,353 L223,352 L193,352 L192,353 L192,384 L161,384 L160,385 L160,416 L96,416 L96,385 L95,384 L64,384 L64,192 L95,192 L96,191 L96,160 L159,160 L160,159 L160,129 L159,128 L65,128 L64,129 L64,160 L33,160 L32,161 L32,192 L0,192 L0,384 L32,384 L32,415 L33,416 L64,416 L64,447 ZM97,288 L223,288 L224,287 L224,129 L223,128 L193,128 L192,129 L192,160 L161,160 L160,161 L160,256 L97,256 L96,257 L96,287 ZM97,96 L159,96 L160,95 L160,33 L159,32 L128,32 L128,0 L64,0 L64,31 L65,32 L96,32 L96,95 Z'></glyph>
      <glyph unicode='&#x0123;' horiz-adv-x='256' d='M97,480 L159,480 L160,479 L160,449 L159,448 L128,448 L128,385 L127,384 L65,384 L64,385 L64,447 L65,448 L96,448 L96,479 ZM33,352 L127,352 L128,351 L128,321 L127,320 L64,320 L64,160 L128,160 L128,319 L129,320 L160,320 L160,351 L161,352 L223,352 L224,351 L224,321 L223,320 L192,320 L192,65 L191,64 L160,64 L160,33 L159,32 L33,32 L32,33 L32,64 L0,64 L0,96 L63,96 L64,95 L64,64 L128,64 L128,128 L33,128 L32,129 L32,160 L0,160 L0,320 L32,320 L32,351 Z'></glyph>
      <glyph unicode='&#x0124;' horiz-adv-x='256' d='M96,512 L128,512 L128,480 L159,480 L160,479 L160,449 L159,448 L65,448 L64,449 L64,479 L65,480 L96,480 ZM0,416 L63,416 L64,415 L64,288 L160,288 L160,415 L161,416 L223,416 L224,415 L224,129 L223,128 L161,128 L160,129 L160,256 L64,256 L64,129 L63,128 L0,128 Z'></glyph>
      <glyph unicode='&#x0125;' horiz-adv-x='256' d='M96,512 L128,512 L128,480 L159,480 L160,479 L160,449 L159,448 L65,448 L64,449 L64,479 L65,480 L96,480 ZM33,448 L63,448 L64,447 L64,416 L95,416 L96,415 L96,320 L127,320 L128,319 L128,289 L127,288 L96,288 L96,129 L95,128 L0,128 L0,160 L32,160 L32,384 L0,384 L0,416 L32,416 L32,447 ZM161,448 L191,448 L192,447 L192,417 L191,416 L161,416 L160,417 L160,447 ZM129,352 L191,352 L192,351 L192,320 L223,320 L224,319 L224,129 L223,128 L161,128 L160,129 L160,320 L129,320 L128,321 L128,351 Z'></glyph>
      <glyph unicode='&#x0126;' horiz-adv-x='256' d='M33,448 L95,448 L96,447 L96,416 L160,416 L160,447 L161,448 L223,448 L224,447 L224,416 L256,416 L256,384 L224,384 L224,129 L223,128 L161,128 L160,129 L160,288 L96,288 L96,129 L95,128 L33,128 L32,129 L32,384 L0,384 L0,416 L32,416 L32,447 ZM128,384 L96,384 L96,320 L160,320 L160,384 Z'></glyph>
      <glyph unicode='&#x0127;' horiz-adv-x='256' d='M33,448 L95,448 L96,447 L96,416 L159,416 L160,415 L160,385 L159,384 L96,384 L96,320 L127,320 L128,319 L128,289 L127,288 L96,288 L96,129 L95,128 L0,128 L0,160 L32,160 L32,384 L0,384 L0,416 L32,416 L32,447 ZM129,352 L191,352 L192,351 L192,320 L223,320 L224,319 L224,129 L223,128 L161,128 L160,129 L160,320 L129,320 L128,321 L128,351 Z'></glyph>
      <glyph unicode='&#x0128;' horiz-adv-x='256' d='M32,512 L128,512 L128,480 L160,480 L160,512 L224,512 L224,481 L223,480 L192,480 L192,449 L191,448 L97,448 L96,449 L96,480 L64,480 L64,449 L63,448 L0,448 L0,480 L32,480 ZM65,416 L191,416 L192,415 L192,385 L191,384 L160,384 L160,160 L191,160 L192,159 L192,129 L191,128 L65,128 L64,129 L64,159 L65,160 L96,160 L96,384 L65,384 L64,385 L64,415 Z'></glyph>
      <glyph unicode='&#x0129;' horiz-adv-x='256' d='M33,448 L127,448 L128,447 L128,416 L160,416 L160,447 L161,448 L223,448 L224,447 L224,417 L223,416 L192,416 L192,385 L191,384 L97,384 L96,385 L96,416 L64,416 L64,385 L63,384 L0,384 L0,416 L32,416 L32,447 ZM65,352 L159,352 L160,351 L160,160 L191,160 L192,159 L192,129 L191,128 L65,128 L64,129 L64,159 L65,160 L96,160 L96,320 L65,320 L64,321 L64,351 Z'></glyph>
      <glyph unicode='&#x012A;' horiz-adv-x='256' d='M33,480 L223,480 L224,479 L224,449 L223,448 L33,448 L32,449 L32,479 ZM65,416 L191,416 L192,415 L192,385 L191,384 L160,384 L160,160 L191,160 L192,159 L192,129 L191,128 L65,128 L64,129 L64,159 L65,160 L96,160 L96,384 L65,384 L64,385 L64,415 Z'></glyph>
      <glyph unicode='&#x012B;' horiz-adv-x='256' d='M33,416 L223,416 L224,415 L224,385 L223,384 L33,384 L32,385 L32,415 ZM65,352 L159,352 L160,351 L160,160 L191,160 L192,159 L192,129 L191,128 L65,128 L64,129 L64,159 L65,160 L96,160 L96,320 L65,320 L64,321 L64,351 Z'></glyph>
      <glyph unicode='&#x012C;' horiz-adv-x='256' d='M32,512 L96,512 L96,480 L160,480 L160,512 L224,512 L224,481 L223,480 L192,480 L192,449 L191,448 L65,448 L64,449 L64,480 L33,480 L32,481 ZM65,416 L191,416 L192,415 L192,385 L191,384 L160,384 L160,160 L191,160 L192,159 L192,129 L191,128 L65,128 L64,129 L64,159 L65,160 L96,160 L96,384 L65,384 L64,385 L64,415 Z'></glyph>
      <glyph unicode='&#x012D;' horiz-adv-x='256' d='M33,448 L95,448 L96,447 L96,416 L160,416 L160,447 L161,448 L223,448 L224,447 L224,417 L223,416 L192,416 L192,385 L191,384 L65,384 L64,385 L64,416 L33,416 L32,417 L32,447 ZM65,352 L159,352 L160,351 L160,160 L191,160 L192,159 L192,129 L191,128 L65,128 L64,129 L64,159 L65,160 L96,160 L96,320 L65,320 L64,321 L64,351 Z'></glyph>
      <glyph unicode='&#x012E;' horiz-adv-x='256' d='M65,416 L191,416 L192,415 L192,385 L191,384 L160,384 L160,160 L191,160 L192,159 L192,129 L191,128 L160,128 L160,97 L159,96 L128,96 L128,64 L191,64 L192,63 L192,33 L191,32 L97,32 L96,33 L96,64 L65,64 L64,65 L64,95 L65,96 L96,96 L96,128 L65,128 L64,129 L64,159 L65,160 L96,160 L96,384 L65,384 L64,385 L64,415 Z'></glyph>
      <glyph unicode='&#x012F;' horiz-adv-x='256' d='M97,448 L159,448 L160,447 L160,385 L159,384 L97,384 L96,385 L96,447 ZM65,352 L159,352 L160,351 L160,160 L191,160 L192,159 L192,129 L191,128 L160,128 L160,97 L159,96 L128,96 L128,64 L191,64 L192,63 L192,33 L191,32 L97,32 L96,33 L96,64 L65,64 L64,65 L64,95 L65,96 L96,96 L96,128 L65,128 L64,129 L64,159 L65,160 L96,160 L96,320 L65,320 L64,321 L64,351 Z'></glyph>
      <glyph unicode='&#x0130;' horiz-adv-x='256' d='M96,512 L160,512 L160,449 L159,448 L97,448 L96,449 ZM65,416 L191,416 L192,415 L192,385 L191,384 L160,384 L160,160 L191,160 L192,159 L192,129 L191,128 L65,128 L64,129 L64,159 L65,160 L96,160 L96,384 L65,384 L64,385 L64,415 Z'></glyph>
      <glyph unicode='&#x0131;' horiz-adv-x='256' d='M65,352 L159,352 L160,351 L160,160 L191,160 L192,159 L192,129 L191,128 L65,128 L64,129 L64,159 L65,160 L96,160 L96,320 L65,320 L64,321 L64,351 Z'></glyph>
      <glyph unicode='&#x0132;' horiz-adv-x='256' d='M0,448 L127,448 L128,447 L128,417 L127,416 L96,416 L96,224 L159,224 L160,223 L160,160 L192,160 L192,416 L161,416 L160,417 L160,447 L161,448 L256,448 L256,160 L224,160 L224,129 L223,128 L129,128 L128,129 L128,160 L96,160 L96,129 L95,128 L0,128 L0,160 L32,160 L32,416 L0,416 Z'></glyph>
      <glyph unicode='&#x0133;' horiz-adv-x='256' d='M33,448 L95,448 L96,447 L96,385 L95,384 L33,384 L32,385 L32,447 ZM161,448 L223,448 L224,447 L224,385 L223,384 L161,384 L160,385 L160,447 ZM0,352 L95,352 L96,351 L96,160 L127,160 L128,159 L128,129 L127,128 L0,128 L0,160 L32,160 L32,320 L0,320 ZM129,352 L223,352 L224,351 L224,65 L223,64 L192,64 L192,33 L191,32 L65,32 L64,33 L64,64 L33,64 L32,65 L32,95 L33,96 L95,96 L96,95 L96,64 L160,64 L160,320 L129,320 L128,321 L128,351 Z'></glyph>
      <glyph unicode='&#x0134;' horiz-adv-x='256' d='M128,512 L160,512 L160,480 L191,480 L192,479 L192,449 L191,448 L97,448 L96,449 L96,479 L97,480 L128,480 ZM65,448 L95,448 L96,447 L96,417 L95,416 L65,416 L64,417 L64,447 ZM193,448 L223,448 L224,447 L224,385 L223,384 L192,384 L192,161 L191,160 L160,160 L160,129 L159,128 L33,128 L32,129 L32,160 L0,160 L0,256 L63,256 L64,255 L64,160 L128,160 L128,384 L97,384 L96,385 L96,415 L97,416 L192,416 L192,447 Z'></glyph>
      </font>
</defs>
</svg>
