<?xml version="1.0" encoding="UTF-8"?>
<!DOCTYPE svg PUBLIC "-//W3C//DTD SVG 1.1//EN" "http://www.w3.org/Graphics/SVG/1.1/DTD/svg11.dtd">
<!-- Creator: CorelDRAW X6 -->
<svg 
	xmlns="http://www.w3.org/2000/svg" 
	xml:space="preserve" 
	width="5.24375in" 
	height="4.14943in" 
	version="1.1" 
	style="shape-rendering:geometricPrecision; text-rendering:geometricPrecision; image-rendering:optimizeQuality; fill-rule:evenodd; clip-rule:evenodd"
	viewBox="0 0 5552 4393"
	xmlns:xlink="http://www.w3.org/1999/xlink">
 <defs>
  <style type="text/css">
   <![CDATA[
    .fil4 {fill:black}
    .fil1 {fill:lime}
    .fil0 {fill:#CC6633}
    .fil3 {fill:#CC9933}
    .fil2 {fill:red}
   ]]>
  </style>
 </defs>
 <g id="Layer_x0020_1">
  <metadata id="CorelCorpID_0Corel-Layer"/>
  <path class="fil0" d="M2310 1737c-11,6 -132,-717 -132,-839 0,-292 -17,-336 120,-587 12,-20 93,-126 94,-133 136,-89 288,-230 452,-159 3,2 232,309 296,352 2,33 -165,-7 -270,96 -17,16 -93,102 -99,104 -17,51 -336,340 -314,657 0,3 -44,276 -44,374 0,260 -31,100 -103,135z"/>
  <path class="fil1" d="M2211 1614c-9,-18 -150,-198 -144,-278 8,-87 -231,-508 -319,-603 -130,-140 -97,-112 -250,-236 -327,-264 -778,-339 -1224,-307 -50,4 -269,89 -274,127 47,34 144,395 203,408 23,67 155,231 156,234 16,5 142,116 273,152 287,78 529,172 847,161 97,-3 364,140 403,216 29,5 296,255 314,170 29,-9 29,-14 15,-44z"/>
  <path class="fil2" d="M2093 1765c-66,31 -512,-369 -906,-201 -600,256 -643,737 -526,1358 61,325 772,1268 1176,1314 46,5 304,116 505,116 127,0 257,26 376,12 48,68 502,15 551,-132 171,-38 753,-706 793,-956 42,-271 188,-502 70,-886 -16,-54 -29,-110 -41,-165 -50,203 -188,348 -351,348 -205,0 -371,-230 -371,-514 0,-285 166,-515 371,-515 41,0 81,9 118,26 -83,-163 -105,-202 -466,-305 -372,-105 -575,407 -754,444 -173,36 -464,17 -545,56z"/>
  <path class="fil3" d="M3541 1787c50,73 267,72 346,38 194,-83 56,-504 365,-663 262,-134 286,-154 607,-83 150,33 485,126 541,279 59,164 272,403 59,511 -89,45 -304,-53 -308,-71 -24,-8 -291,-129 -205,-73 47,29 506,693 54,497 -145,-62 -370,-432 -458,-571 -56,-88 -125,-15 -125,-15 -51,154 -31,144 -125,293 -61,96 -186,93 -295,251 -140,203 -387,174 -488,-19 -54,-102 -111,-337 32,-374z"/>
  <ellipse class="fil4" cx="4802" cy="1321" rx="70" ry="57"/>
  <ellipse class="fil4" cx="5174" cy="1347" rx="81" ry="72"/>
 </g>
</svg>
