<?xml version="1.0" encoding="UTF-8"?>
<!DOCTYPE svg PUBLIC "-//W3C//DTD SVG 1.1//EN" "http://www.w3.org/Graphics/SVG/1.1/DTD/svg11.dtd">
<!-- Creator: CorelDRAW X6 -->
<svg xmlns="http://www.w3.org/2000/svg" xml:space="preserve" width="11in" height="8.5in" version="1.1" style="shape-rendering:geometricPrecision; text-rendering:geometricPrecision; image-rendering:optimizeQuality; fill-rule:evenodd; clip-rule:evenodd"
viewBox="0 0 11000 8500"
 xmlns:xlink="http://www.w3.org/1999/xlink">
 <defs>
  <style type="text/css">
   <![CDATA[
    .fil11 {fill:black}
    .fil14 {fill:#13050A}
    .fil0 {fill:#251516}
    .fil7 {fill:#471715}
    .fil2 {fill:#581B24}
    .fil4 {fill:#6B1B1B}
    .fil15 {fill:#841617}
    .fil6 {fill:#882626}
    .fil17 {fill:#96662F}
    .fil1 {fill:#982934}
    .fil12 {fill:#A92125}
    .fil5 {fill:#B83637}
    .fil3 {fill:#D82628}
    .fil10 {fill:#D93638}
    .fil8 {fill:#E64649}
    .fil9 {fill:#E65B62}
    .fil16 {fill:#F38688}
    .fil13 {fill:#F39420}
   ]]>
  </style>
 </defs>
 <g id="Layer_x0020_1">
  <metadata id="CorelCorpID_0Corel-Layer"/>
  <rect class="fil0" x="2500" y="1750" width="5556" height="5556"/>
  <g id="_735961088">
   <path class="fil1" d="M6383 5583l114 -3c29,-5 -17,-7 44,-7l31 67c-45,42 -16,6 -26,45 62,-13 67,3 78,-52l-108 -107c108,5 48,13 134,38 -1,-123 -41,-91 -147,-100l29 36c-58,50 -48,26 -170,31 12,44 -8,31 21,52z"/>
   <path class="fil1" d="M6139 4811c8,-14 32,19 10,-30 -14,-31 7,-5 -24,-17 -18,39 -22,28 14,47z"/>
  </g>
  <g id="_735958496">
   <path class="fil2" d="M5708 5321l-19 19c-26,20 -5,6 -28,18l30 8c252,-14 143,-37 209,52 14,18 43,31 60,40 79,43 98,59 95,-46 -30,-23 -114,-61 -154,-78 -88,-37 -95,-28 -193,-13z"/>
   <path class="fil2" d="M6277 5598l11 25 63 -8c-22,-14 -8,-18 -14,-32l46 0c-29,-21 -9,-8 -21,-52 122,-5 112,19 170,-31l-29 -36c-89,9 -155,19 -219,50 0,29 30,85 -7,84z"/>
   <path class="fil2" d="M4095 4318c-2,-83 8,-81 -79,-79 12,55 22,63 79,79z"/>
  </g>
  <g id="_740760128">
   <path class="fil3" d="M6887 6593l-39 102c-13,31 -1,8 -21,29l0 72 3 70c46,-18 29,-6 87,1 15,-18 18,16 20,-40 14,70 -15,18 43,48 2,69 -6,174 2,237 12,97 15,1 24,83 7,57 2,61 15,111l97 0 -29 -187c-10,-38 -47,-296 -19,-369 3,-8 6,5 13,-41l-9 -158 -36 14c-40,29 -3,8 -53,27l-34 15c-61,22 -23,-15 -60,33l-4 -47z"/>
   <path class="fil3" d="M4033 7258l19 48 60 0c7,-131 22,-244 124,-317 27,50 -22,101 -32,116 -69,100 22,53 -54,201l235 0c-9,-81 -18,-83 -37,-142 -58,-184 -26,31 -80,-207 -10,-53 -14,-32 -20,-66 -29,-13 -24,-9 -56,-18 -9,44 -35,158 -67,182 -21,-43 10,-125 19,-187 -26,17 -28,-15 -54,84 -40,154 -95,123 -57,306z"/>
   <path class="fil3" d="M2603 7306l42 0c16,-60 60,-188 87,-227 88,-128 253,-169 389,-222 57,-22 122,-110 158,-163 -15,-223 -69,-148 -120,-297 -14,-42 -40,-131 -40,-175 1,-98 53,-91 38,-157l-45 -3 -55 7 48 42c-16,45 -41,11 -28,165 4,58 44,97 17,155 -2,16 11,15 23,34 36,55 14,42 92,101l9 115c-14,12 11,35 -44,5 -8,61 -9,76 -83,116l-80 31c-103,24 -20,-9 -102,48 -44,31 -18,-2 -75,38 -77,53 -55,22 -100,77 -79,95 -58,74 -79,142l-52 168z"/>
   <path class="fil3" d="M7463 4419l3 28c13,86 -28,159 -11,276 81,-1 27,-2 87,-38l54 33c65,-31 41,-24 87,-65 -98,-95 -17,1 -16,-167 18,-9 29,-10 30,-11 15,-8 40,-19 50,-64l-26 -52 -96 -9c-52,45 -88,93 -162,69z"/>
   <path class="fil3" d="M7671 6132l155 -118 5 -46c-103,-68 -24,-117 -108,-150 -3,88 0,51 24,104l12 55c-53,-10 -41,15 -104,-93 -25,-43 -64,-78 -95,-93l19 -96 -44 25c-59,6 15,109 21,127 -31,47 -65,70 -51,153 53,32 29,-15 76,46 24,31 26,50 44,86l46 0z"/>
   <path class="fil3" d="M3694 6625c-14,-204 -13,-131 125,-167 92,95 56,5 142,165 26,48 77,77 87,110 -84,17 -125,0 -202,-22 -72,-21 -83,-46 -152,-86zm-45 110c21,0 16,4 9,-17 -14,-96 -4,-22 23,-51 61,15 38,14 77,46l57 28c3,1 8,3 10,4 3,1 7,3 11,5 24,32 96,17 136,21 62,5 95,20 149,31 -13,-75 -76,-177 -118,-236 -120,-166 -123,-72 -172,-150l-136 -35c13,34 -32,20 25,30 -71,-2 -26,-9 -49,23 -9,12 -17,45 -20,66 -19,133 -84,143 6,194l-8 41z"/>
   <path class="fil3" d="M4116 5495c21,-43 62,-99 51,-161 -8,-48 -29,-37 -28,-84 0,-36 24,-56 34,-80l10 -44c-44,-9 -76,-28 -108,-59l-69 -38 -58 -10c14,57 81,134 131,175 -3,30 0,49 -2,70 -5,65 -79,94 -8,360 33,-32 -2,-59 47,-129z"/>
   <path class="fil3" d="M5391 7001l-53 -4 -71 31c-23,5 -55,7 -79,10 4,47 8,67 13,115 6,66 7,60 35,93l56 -44c33,9 44,37 129,-10 27,-16 14,-9 33,-25l4 -96c-34,-19 -47,-38 -67,-70z"/>
   <path class="fil3" d="M3621 7003l16 78c-22,14 -4,1 -24,19l-119 15c-26,51 -24,119 -25,191l34 0c-3,-105 -25,-149 92,-150 -1,32 5,16 -3,36 -29,76 -21,3 -62,86 151,-26 100,1 147,-22l22 -14 9 -8c30,-126 -13,-173 15,-268l-50 14 -52 23z"/>
   <path class="fil3" d="M3370 6125l-6 29c69,4 56,16 90,34l94 -35 -94 -22c12,-17 5,-25 58,-40 28,-8 61,-9 91,-9l25 29 -4 -42c-63,-36 15,-69 -98,-83 -40,60 -68,47 -147,59 3,61 10,38 -9,80z"/>
   <path class="fil3" d="M3810 7191c4,-3 9,-14 12,-11 23,34 -1,-13 42,-42 10,-7 49,-21 62,-29 4,-69 10,-71 -12,-123 -25,-58 -13,-67 -39,-102 -32,21 -13,-12 -38,52 -20,51 -27,194 -27,255z"/>
  </g>
  <g id="_740757440">
   <path class="fil4" d="M4069 4465c41,54 14,7 20,91 40,31 35,13 47,55 -42,23 -68,0 -98,-28 -1,-80 22,-86 25,-107 1,-6 4,-7 6,-11zm-86 7l54 -4 -30 173 -82 4c45,-66 16,-50 42,-117 -34,-19 -27,-1 -70,-28l22 -13c92,-36 -68,18 25,-7 19,-5 6,6 39,-8zm0 0l-122 -10c20,188 50,220 57,261 6,35 -3,35 10,72 23,63 141,112 183,191l-109 17 4 26 69 38c81,20 74,41 116,16 -51,-34 -27,0 -50,-55 47,-61 41,-9 78,-55l-124 -39c-35,-202 44,-74 152,-139 -166,-5 -107,5 -130,-31l63 -23c14,-2 53,0 70,0 118,-3 90,2 104,28l-7 -52c-49,-2 -128,20 -220,-11 -1,-4 -3,-10 -4,-13 -1,-76 11,-29 66,-98l-79 -53c22,-59 29,-10 36,-111 4,-55 15,-71 14,-127 -78,89 37,50 -152,149 -14,8 -19,14 -25,19z"/>
   <path class="fil4" d="M3398 5654c-24,15 -10,3 -28,20 -2,2 -21,22 -21,23 -16,19 -20,23 -31,53 7,30 -35,43 44,51 92,9 -20,0 63,-18 -9,68 -30,-5 -39,104l56 -33 123 -70c4,-1 8,-2 11,-3l34 -20 -54 15 35 -99c18,-43 6,-44 26,-86 5,-12 33,-50 46,-69l45 -73 0 74c24,-28 20,-29 21,-77 0,-43 -11,-44 7,-76 37,73 40,280 31,371 -67,13 -157,75 -185,134l177 -35 -22 49c25,-10 128,-65 143,-83 -8,-7 41,-58 -105,10 -47,21 -67,26 -122,31 38,-108 44,-36 137,-125 -8,-79 -25,-65 15,-171 1,-3 3,-7 4,-10l9 -18c1,-5 4,-6 7,-9l-50 -97c22,-59 38,-21 30,-109 -68,-1 -18,-7 -50,16 -4,2 -30,26 -30,26 -41,43 -18,43 -40,71 -18,24 -38,22 -70,55 -102,102 -197,254 -283,288l66 -110z"/>
   <path class="fil4" d="M4695 4890l32 55 -44 68c28,36 13,17 28,28l26 15c-28,34 -25,-9 -23,61 2,66 72,64 -33,161 -33,31 -44,50 0,80 73,-27 81,-188 106,-223 21,-29 39,-16 67,-57 -54,11 -19,11 -48,-9 17,-47 20,-16 103,-102 39,-41 14,4 42,-50 -21,-39 -23,-42 -62,-58 -2,3 -5,5 -6,10l-32 52c-2,2 -4,5 -6,8 -36,50 -17,34 -60,48 14,-54 161,-166 18,-240 -38,-19 -7,-9 -58,-19 0,69 14,56 15,102 0,19 -12,63 -15,93l-50 -23z"/>
   <path class="fil4" d="M6316 4496c-37,-36 -41,-54 -102,-36 -10,2 -22,19 -27,12 -4,-4 -10,6 -14,8 -20,-45 -1,-36 -58,-36 -3,33 8,25 17,77l-68 90c-15,45 -6,57 -11,137 63,2 59,12 72,-44 49,-7 45,-1 71,-23 -32,-26 -43,-30 -71,-58 150,-26 176,83 246,-67 -30,-44 -13,-29 -55,-60z"/>
   <path class="fil4" d="M4864 5074l57 -11c-5,91 -20,55 -41,110 -13,34 -15,90 -13,139l45 -9c25,-19 29,-1 29,-44 5,-33 -1,-128 34,-132 33,-4 31,41 81,66 10,-25 34,-87 48,-106 -23,-65 -66,-101 -135,-118 -47,75 -52,46 -105,105z"/>
   <path class="fil4" d="M6085 6412c-17,14 1,10 -30,15 -28,5 -20,-1 -35,-4 -44,-8 -11,-20 -69,-3 -100,21 -67,0 -54,85 -31,11 -39,21 -66,37 1,3 2,5 3,11 0,5 2,8 3,11l11 22c1,3 5,7 7,11 -43,27 -17,5 -39,34l38 -2c44,-8 137,-77 180,-109 102,-76 132,-62 167,-128l-116 20z"/>
   <path class="fil4" d="M4432 5861c59,-27 50,-9 93,-42 -31,-33 -24,-17 -69,-37 9,-49 2,-16 12,-38 0,-1 15,-29 18,-35 -117,13 -145,-32 -269,36 0,128 -79,68 -23,152 59,-18 42,-28 69,-75 223,-22 57,-46 184,-32l-15 71z"/>
   <path class="fil4" d="M2718 6200l107 -14c2,-67 -34,-73 -29,-169l77 -18c3,-58 -17,-71 -29,-135l-67 -17 6 -59 -21 28c-47,65 9,241 11,319 -41,19 -43,14 -55,65z"/>
   <path class="fil4" d="M3787 5148l22 85c36,-1 24,-17 74,-31 26,-7 29,-4 48,-8l39 -13c-30,-44 -55,-41 -85,-98 19,-57 21,-22 40,-82l48 6c-17,-19 0,-9 -33,-31l-101 -43 -6 232c-9,-3 -41,-14 -46,-17z"/>
   <path class="fil4" d="M6479 6870l-34 5c20,36 -11,17 36,34l-9 91c45,21 30,-4 62,36 29,-49 51,-6 115,-65l24 -26c1,-6 5,-6 7,-10 -60,-13 -11,29 -55,-31 -19,9 -11,7 -27,17 -23,14 12,-1 -35,20 0,-49 6,-46 -21,-74 42,-18 13,1 24,-30l-87 33z"/>
   <path class="fil4" d="M4467 5083l-36 82 0 52c60,37 45,39 80,-5l67 -59c9,-64 11,-100 -36,-127 -8,8 -29,-12 -24,99 4,91 -1,58 -46,83 4,-129 49,-100 -5,-125z"/>
   <path class="fil4" d="M4585 4554l40 -5 37 141c48,-34 59,-87 55,-148 -33,-23 -28,-11 -52,-54 -27,4 -11,-62 -9,-79 -46,0 -17,70 -13,111 -91,14 -36,2 -58,34z"/>
   <path class="fil4" d="M3868 4194l48 5c-8,-154 36,-128 74,-231 -70,18 -92,22 -111,77 -16,47 -19,92 -11,149z"/>
   <path class="fil4" d="M4363 5347c39,-24 7,22 43,-40 15,-25 12,-31 18,-57 -29,-29 6,-8 -42,-13l-22 29 -43 -47 11 31c-3,2 -9,0 -11,5 -13,36 -7,-18 -50,37l23 38c80,-42 -31,-44 91,-43l-18 60z"/>
  </g>
  <g id="_740757408">
   <path class="fil5" d="M5691 5366l0 61 -74 17c0,-105 4,-30 -24,-60 -18,80 -4,54 -70,82l98 413c36,76 43,15 42,135 -32,20 -19,4 -48,31 -35,34 -41,50 -26,86 1,3 3,7 4,10 2,2 4,6 5,9 47,108 96,128 220,212 19,14 26,18 53,27 41,13 35,-2 80,31 58,-17 25,-5 69,3 15,3 7,9 35,4 31,-5 13,-1 30,-15 -36,-7 -203,-38 -223,-49l-152 -179c10,-97 -10,-48 -12,-90 -4,-83 40,8 40,-80 0,-55 -11,-30 -17,-40 -40,-60 -10,-15 -51,-133 -65,-184 -21,-22 -57,-119 -25,-64 -49,-141 -33,-226 107,-38 84,-31 115,-10 -23,4 -2,-8 -4,34 68,-40 7,-111 166,-72 77,18 70,36 79,45 -47,21 -13,4 -34,35l42 -25c41,54 58,69 117,46 -37,136 -155,281 -93,369l36 -25c85,-66 96,27 218,17 14,18 8,2 9,34l23 -9c-15,-62 -3,-37 -72,-49 -38,-6 -43,-14 -78,-23 6,-48 16,-81 22,-121 6,-45 -12,-65 -12,-103 0,-106 52,-79 0,-225 -32,5 -13,13 -59,-2 3,105 -16,89 -95,46 -17,-9 -46,-22 -60,-40 -66,-89 43,-66 -209,-52z"/>
   <path class="fil5" d="M7555 5238c-11,-191 45,-214 78,-374 -60,-14 -20,-36 -68,80l-48 16c-3,1 -8,2 -12,4 -21,61 -29,206 -28,284l78 -10z"/>
   <path class="fil5" d="M5286 4519c8,-37 -29,-10 19,-33l6 -72c-78,13 -82,48 -87,125 59,-15 21,1 62,-20z"/>
   <path class="fil5" d="M6431 4617c16,9 31,17 56,24 2,-35 -5,-61 -12,-78l-41 6 -3 48z"/>
  </g>
  <g id="_740725744">
   <path class="fil6" d="M4540 4731l9 185c-29,97 -48,102 -82,167 54,25 9,-4 5,125 45,-25 50,8 46,-83 -5,-111 16,-91 24,-99 47,27 45,63 36,127l-67 59c63,-16 17,-8 32,10 -22,63 -19,22 2,91 -41,-14 -30,-12 -41,-7 8,29 18,57 29,78 21,39 21,37 59,64 70,48 21,18 60,67 2,3 4,6 7,8 28,31 26,2 50,58 19,-31 10,-21 41,-29l63 62c126,-59 132,33 163,-46 1,-3 9,-40 9,-43 0,-53 -36,-72 -36,-72 -38,-46 -45,-99 -37,-150l-45 9c-2,-49 0,-105 13,-139 21,-55 36,-19 41,-110l-57 11 -10 4c-28,41 -46,28 -67,57 -25,35 -33,196 -106,223 -44,-30 -33,-49 0,-80 105,-97 35,-95 33,-161 -2,-70 -5,-27 23,-61l-26 -15c-15,-11 0,8 -28,-28l44 -68 -32 -55c11,-61 -62,-150 -98,-198 -34,19 -16,-15 -36,52 3,-27 4,-1 -21,-13z"/>
   <path class="fil6" d="M7531 5437l25 20c2,2 6,6 8,8l17 21c-83,56 -223,51 -282,133 78,-2 135,-35 203,-63 43,-17 51,-11 94,-30 44,-19 31,-30 96,16l-83 55c1,68 8,75 26,134 -66,-44 -43,-72 -53,-147 -52,-8 -90,15 -126,41 21,13 31,11 50,20 76,37 30,-15 43,60l36 -14c10,65 -10,68 56,44 8,-59 5,-18 -15,-91l22 -4c-4,-9 -19,-2 -29,-43 51,-31 23,-23 69,-18 45,5 44,13 90,13 6,-44 17,-51 34,-75 28,-23 -29,-64 -38,-71 -28,-19 -57,-29 -98,-37 45,85 103,4 109,145 -101,-4 -95,-46 -132,-90 -94,-1 -45,-16 -122,-27z"/>
   <path class="fil6" d="M6568 6196c-6,-69 -18,-92 -17,-182 1,-107 24,-96 46,-185 -42,19 -27,-29 -36,25 -39,36 -36,77 -53,128 -28,85 -62,17 -77,115 81,45 15,-59 95,69 20,32 8,24 42,30z"/>
   <path class="fil6" d="M6528 4592l83 78c65,-33 3,3 35,-39l12 -14c2,-2 6,-5 8,-7l-18 -86 -69 -9 25 86c-75,-27 -72,-71 -76,-9z"/>
   <path class="fil6" d="M5702 4643c23,1 21,11 61,-17 93,-67 116,-27 125,-109 -124,17 -163,48 -186,126z"/>
  </g>
  <g id="_740727344">
   <path class="fil7" d="M6685 4506c5,13 7,21 14,32 19,29 -3,3 26,24l-5 -44 85 -6c19,380 102,131 0,344 -74,156 -3,-42 -22,90 -7,44 20,14 -47,44 -19,-28 -15,46 -17,-56l-54 10 6 -41c-12,3 -33,3 -46,14 31,69 -39,28 70,53 -2,1 -2,-1 -20,24 -15,20 4,1 -23,32l-111 -20 61 48c37,14 32,7 74,6 28,105 86,47 80,117 4,-3 9,-6 13,-9 4,-2 9,-5 13,-8 72,-45 27,-4 85,-97 -2,-4 -3,-8 -4,-11l-5 -23c0,0 -6,-34 -6,-35 -5,-42 -5,-20 1,-63l-39 -42c11,-25 59,-77 19,-44 97,-12 77,-24 84,-123 35,36 33,28 42,98 11,89 -2,219 -11,305 -28,22 35,21 -41,18 25,34 13,6 25,53 -65,43 -83,158 -85,235 -24,32 -46,41 -75,64l-63 75c-2,-3 -7,8 -12,11l-1 -66 -15 9c11,56 -22,152 -46,184l-1 56c-23,26 -37,34 -37,65 -22,89 -45,78 -46,185 -1,90 11,113 17,182 52,-1 87,14 145,4 172,-29 223,-126 427,-40l59 28c91,39 21,15 145,134 45,44 74,33 89,180 0,2 -1,26 -1,30 1,6 8,25 12,35 7,17 97,210 132,240 6,-54 -39,-261 -68,-301 -27,-38 -24,-6 -45,-66 -32,-92 -35,-91 -96,-141 -54,-44 -58,-67 -110,-113 -59,-51 -93,-42 -164,-71 -79,-32 -92,-62 -182,-25 -42,17 -62,18 -99,31 -23,8 -39,31 -63,44 -50,29 -123,3 -158,-26 -72,-120 131,-476 209,-559 126,-130 48,-62 87,-111 2,-3 12,-10 14,-12 42,-41 16,-113 52,-219 84,-249 71,-127 42,-590l-56 -23c1,-127 -71,-130 -128,-170 -41,-27 3,-10 -47,-42 -21,26 -32,-45 -14,57l-73 7 8 29z"/>
   <path class="fil7" d="M2850 5458c-9,165 -22,180 66,320l61 226c32,97 -5,44 65,65 22,-67 6,-38 0,-98l-17 -332 135 -245c34,-56 15,-56 90,-74 -39,207 -39,411 -69,597 2,13 11,0 30,69l69 -17c-2,-10 -9,-41 -9,-43 0,-4 5,-36 7,-41 16,54 -16,7 41,54l66 -46c53,-29 26,4 57,-39l-56 33c9,-109 30,-36 39,-104 -83,18 29,27 -63,18 -79,-8 -37,-21 -44,-51l-39 7c-23,14 -18,-8 -26,16 -7,-48 5,-171 31,-210 30,-44 1,-7 43,-35 0,-44 8,-66 19,-97 -24,5 -13,12 -19,-13 -4,4 -22,16 -30,21l-23 12c0,-29 -1,-79 8,-107 21,-65 12,-41 82,-52l-18 75c28,-30 35,-17 23,-84 -65,-24 -68,-5 -133,-6 -61,-2 -42,-18 -116,-17l0 23 40 -2 -105 218c-43,48 -120,139 -124,218 4,-30 -36,-77 -40,-114 -1,-8 12,-115 12,-158 -46,12 -34,-6 -53,13z"/>
   <path class="fil7" d="M3824 3889c30,67 -10,30 106,38 65,5 -15,9 70,17 -30,1 0,-4 -14,28 116,-7 205,3 319,-7 112,-9 183,26 281,60 -15,-59 16,-24 -92,-90 -57,-35 -82,-14 -71,-80 37,9 37,17 81,28 -17,-63 -18,-24 -25,-84 -68,0 -69,-7 -105,16 -12,8 -3,4 -24,16 -26,-24 -22,-25 -60,-38l-38 42c-60,-18 -102,-30 -156,-42 17,30 21,29 27,66 -89,3 -23,-30 -89,-6 -3,1 -9,4 -11,5 -3,1 -9,3 -13,5 -30,-31 -110,-68 -171,-48 52,28 71,3 123,51l-138 23z"/>
   <path class="fil7" d="M3831 6416c49,78 52,-16 172,150 42,59 105,161 118,236 -54,-11 -87,-26 -149,-31 -40,-4 -112,11 -136,-21l-37 9 12 61c-32,83 -5,27 8,51 64,-13 45,-22 84,-32 10,24 4,35 15,62 25,64 27,-16 31,141 2,107 10,76 23,95 55,-47 95,-216 124,-263 28,-46 33,-20 74,-55l-18 -58c-58,-72 -22,-106 -61,-157l-108 -104 21 -45c-133,-89 -6,-37 -162,-101l-89 -42c-5,53 -7,-2 63,67l70 49c4,2 9,5 13,8 -70,-30 -11,-11 -68,-20z"/>
   <path class="fil7" d="M6115 4444c57,0 38,-9 58,36 4,-2 10,-12 14,-8 5,7 17,-10 27,-12 61,-18 65,0 102,36 -21,-30 44,-23 69,-12 53,25 21,14 39,30l-12 70c17,110 -40,-3 19,33l3 -48 41 -6c15,-15 33,13 53,29 4,-62 1,-18 76,9l-25 -86 69 9 -9 -23 -50 -47c-52,14 -35,-4 -64,42l-15 -14c-61,-1 -112,-79 -135,-119l-85 -12 -26 -93c-64,28 -3,-6 -39,33 -28,31 -6,21 -50,36 -8,-47 12,-94 26,-136 70,1 48,18 100,12 9,-1 25,-27 89,5l-32 4c-39,21 -16,-6 -35,38 9,7 -2,63 101,-7l33 -21c-20,-18 -21,-15 -38,-28 -25,-18 -20,-18 -44,-39 -117,9 -108,-33 -189,32 -34,28 -41,18 -85,63 36,46 22,-5 33,69l-34 25c-41,27 2,-20 -25,17 30,11 67,1 61,42l-21 41z"/>
   <path class="fil7" d="M4359 6217c18,16 -5,2 26,20 17,10 -23,-9 19,9 78,33 185,16 145,159 -18,68 -22,35 -60,48 -56,19 -8,5 -97,91 -75,73 -76,239 -127,279l-26 29 9 39c6,34 10,13 20,66l44 -15c13,-137 35,-291 116,-403l86 -91c84,7 284,57 303,-17l-53 0c-51,-66 11,-31 -53,-124l-2 112 -137 -1 -2 -128c-51,-42 -65,-30 -100,-56 81,-5 101,17 183,23 83,5 111,3 141,-59 -99,47 -162,51 -267,0 -58,-28 -77,-182 -76,-184 3,-15 31,-27 44,-60l-50 -11c-5,38 -19,50 -11,98 9,48 21,21 25,98 -8,27 -36,-2 -29,94l-71 -16z"/>
   <path class="fil7" d="M4534 4177l0 37c-48,-18 -50,-9 -86,10 -40,23 -60,15 -107,22 8,56 31,114 90,63 15,74 0,7 20,31 -7,-109 -5,-28 21,-58 78,-42 68,45 58,126 38,-37 44,-68 61,-123 53,61 -2,48 20,98 44,-48 -1,-116 90,-171l-14 96c17,-19 14,-2 24,-32 8,-23 11,-30 2,-53 -13,-38 7,-9 -50,-38 -2,-1 -6,-2 -9,-4 -18,-147 -3,-116 -54,-128 17,54 34,89 21,152l-87 -28z"/>
   <path class="fil7" d="M3389 6227c82,-4 27,5 47,-22l-92 -52c6,-57 -5,-6 26,-28 19,-42 12,-19 9,-80 79,-12 107,1 147,-59 -23,0 -32,-1 -55,4 -36,9 -84,22 -124,59l-59 -21c-15,93 0,86 34,153l67 46z"/>
   <path class="fil7" d="M4329 4440c40,47 141,17 179,-1 -29,-63 -29,51 -17,-99l-40 0 12 34c-6,3 -11,2 -12,6l-24 20c-37,39 -11,41 -98,40z"/>
  </g>
  <g id="_740962784">
   <path class="fil8" d="M6036 5185c-48,-40 -9,0 -16,-205 64,6 174,33 246,51 77,19 65,5 137,10 80,5 9,31 113,-2 16,75 24,92 65,139 -48,5 -38,5 -75,20 -3,29 -8,49 -3,79 10,64 15,4 14,43 -1,40 -19,-45 -11,105 63,-53 96,20 105,28 -63,-4 -111,2 -167,-1l-8 -27c-1,0 17,-50 -172,-30l-42 -46c-157,12 -168,44 -169,-155l-17 -9zm-337 16c-14,59 -14,76 -35,100l44 20c98,-15 105,-24 193,13 40,17 124,55 154,78 46,15 27,7 59,2 52,146 0,119 0,225 0,38 18,58 12,103 -6,40 -16,73 -22,121 35,9 40,17 78,23 69,12 57,-13 72,49l34 -30c-16,-50 -46,-40 3,-32 -14,-210 1,-155 -83,-165 -4,34 -6,39 3,80 10,50 7,-13 11,35 4,73 3,20 -14,49 -89,-8 -45,-52 -51,-150 -5,-85 -6,-104 10,-187 69,-7 13,-18 49,25 27,32 -4,14 61,38 37,1 7,-55 7,-84 64,-31 130,-41 219,-50 106,9 146,-23 147,100 -86,-25 -26,-33 -134,-38l108 107c41,-25 22,-14 42,-85 18,-64 24,-12 28,-90l-13 66 15 -9c23,-58 31,-112 30,-182 -1,-49 -17,-154 30,-156 6,-70 -52,-12 -80,-117 -42,1 -37,8 -74,-6l-61 -48c-99,-24 -198,22 -370,-37 -14,-5 -36,-11 -49,-16 -63,-23 60,29 -23,-10 -4,-1 -9,-1 -12,-7 -2,-6 -7,-5 -11,-8 -49,14 -74,-3 -132,0 -53,3 -55,14 -107,22 -15,103 -63,184 -138,251z"/>
   <path class="fil8" d="M6943 6512l-40 14 -16 67 4 47c37,-48 -1,-11 60,-33l34 -15c50,-19 13,2 53,-27l36 -14 9 158c-7,46 -10,33 -13,41 -28,73 9,331 19,369l29 187 160 0c-13,-50 -14,-45 -16,-110 -140,-90 -65,-167 -97,-305 -23,-98 -44,-176 14,-269 29,-47 -56,47 28,-25l-14 -117 -67 -12c-141,-11 -100,37 -182,69 -14,-14 -6,8 -1,-25z"/>
   <path class="fil8" d="M3522 6357c5,20 11,18 2,46 -12,39 2,16 -27,36l-16 3c-34,37 35,9 -24,29l56 7c-63,21 -36,4 -58,50 44,24 3,12 79,8 -92,61 -74,77 -104,188 80,58 59,30 162,8l-36 87 47 -12 46 -72 8 -41c-90,-51 -25,-61 -6,-194 3,-21 11,-54 20,-66 23,-32 -22,-25 49,-23 -57,-10 -12,4 -25,-30l-2 -89c-3,-4 -7,-8 -9,-11l-30 -31c-28,-17 -9,-5 -39,-9 21,16 15,8 24,37 -45,-16 -24,-17 -74,-32 7,66 20,30 46,100 -64,-24 -32,3 -69,-54l-7 19c-1,2 -3,7 -3,10l-10 36z"/>
   <path class="fil8" d="M5788 6693l-34 30 31 174c44,42 4,-4 22,41 15,35 9,26 26,47 63,-12 51,0 72,-54 7,-18 5,-22 14,-41 11,-27 49,-84 -30,-140 -99,-71 -43,-71 -101,-57z"/>
   <path class="fil8" d="M3454 6188c15,39 159,-1 209,-35 -16,-26 -18,-31 -32,-55l-3 13 -25 -29c-30,0 -63,1 -91,9 -53,15 -46,23 -58,40l94 22 -94 35z"/>
  </g>
  <g id="_740964384">
   <path class="fil9" d="M6943 6512c-5,33 -13,11 1,25 82,-32 41,-80 182,-69l67 12 14 117c-84,72 1,-22 -28,25 -58,93 -37,171 -14,269 32,138 -43,215 97,305 2,65 3,60 16,110l404 0c-14,-221 -114,-404 -106,-499 -35,-30 -125,-223 -132,-240 -105,-46 -420,-259 -501,-55z"/>
   <path class="fil9" d="M6020 4980c7,205 -32,165 16,205l17 9c1,199 12,167 169,155l42 46c189,-20 171,30 172,30l8 27c56,3 104,-3 167,1 -9,-8 -42,-81 -105,-28 -8,-150 10,-65 11,-105 1,-39 -4,21 -14,-43 -5,-30 0,-50 3,-79 37,-15 27,-15 75,-20 -41,-47 -49,-64 -65,-139 -104,33 -33,7 -113,2 -72,-5 -60,9 -137,-10 -72,-18 -182,-45 -246,-51z"/>
   <path class="fil9" d="M6624 5633c-11,55 -16,39 -78,52 -84,81 -179,101 -245,0 -58,-89 -28,-81 -24,-87 -65,-24 -34,-6 -61,-38 -36,-43 20,-32 -49,-25 -16,83 -15,102 -10,187 6,98 -38,142 51,150 17,-29 18,24 14,-49 -4,-48 -1,15 -11,-35 -9,-41 -7,-46 -3,-80 84,10 69,-45 83,165 -49,-8 -19,-18 -3,32l-34 30 -23 9 -64 23 -9 29 105 23 41 -48 108 -3c22,-140 43,-22 159,-186l46 -57c3,-2 7,-6 9,-8 2,-2 6,-6 9,-9 24,-32 57,-128 46,-184l13 -66c-4,78 -10,26 -28,90 -20,71 -1,60 -42,85z"/>
   <path class="fil9" d="M5886 5522l-18 39c97,13 44,15 47,33 0,0 -10,15 -41,21 -77,14 -110,-39 -152,-68l-72 34c16,49 41,134 75,165l23 20c46,54 0,36 85,81 5,63 19,95 45,134l110 -14 -20 -49c-62,-88 56,-233 93,-369 -59,23 -76,8 -117,-46l-42 25 -16 -6z"/>
   <path class="fil9" d="M6479 6870l87 -33c1,-2 10,-23 10,-23 13,-20 9,-13 21,-26 66,1 77,3 102,48 34,17 12,8 51,14 43,-48 2,-39 63,-42l14 -12 0 -72 -39 -6c-9,50 -23,86 -76,60 -5,-40 -6,-21 7,-56l-15 0c24,-50 5,18 22,-55 -55,-40 -44,-43 -103,-56 53,-20 59,-18 113,-7 -23,-46 -199,-37 -205,14l-25 97c-22,97 27,17 -40,118l13 37z"/>
   <path class="fil9" d="M6054 6247l-53 -12c-45,-6 -62,-15 -81,22 -32,64 63,72 128,54 5,-1 28,12 56,-33 -19,-28 0,-23 -50,-31z"/>
  </g>
  <g id="_739307712">
   <path class="fil10" d="M6054 6247c50,8 31,3 50,31 -28,45 -51,32 -56,33 -65,18 -160,10 -128,-54 19,-37 36,-28 81,-22 -95,16 -54,-53 -223,-166 59,-47 72,-22 153,-21 88,1 55,-11 141,20 72,25 58,-15 134,14 56,21 21,27 114,44l-20 64c-37,-22 8,-4 -50,-31 -79,49 -83,97 -196,88zm31 165l116 -20c-35,66 -65,52 -167,128 -43,32 -136,101 -180,109 -20,33 -35,42 -66,64 58,-14 2,-14 101,57 79,56 41,113 30,140 -9,19 -7,23 -14,41 -21,54 -9,42 -72,54 -17,-21 -11,-12 -26,-47 -18,-45 22,1 -22,-41l-4 172c16,14 13,20 43,30l-24 33c20,35 -36,30 47,25 6,-19 56,-106 70,-130 21,-35 21,-33 40,-71 31,-62 2,-1 49,-60 37,-46 55,-90 85,-139 188,-305 224,-170 338,-329 47,-65 199,-129 233,-197 -123,-6 -83,1 -94,-35 -34,-6 -22,2 -42,-30 -80,-128 -14,-24 -95,-69 15,-98 49,-30 77,-115 17,-51 14,-92 53,-128 9,-54 -6,-6 36,-25 0,-31 14,-39 37,-65l1 -56c-3,3 -7,7 -9,9 -2,2 -6,6 -9,8l-46 57c-116,164 -137,46 -159,186l-108 3 -41 48 -105 -23 9 -29c-72,25 -109,20 -179,0l-110 14c-26,-39 -40,-71 -45,-134 -85,-45 -39,-27 -85,-81l-23 -20c-34,-31 -59,-116 -75,-165l72 -34c42,29 75,82 152,68 31,-6 41,-21 41,-21 -3,-18 50,-20 -47,-33l18 -39c-42,6 -8,9 -43,-2 -20,-7 12,-3 -37,-19 -51,23 -36,46 -115,19 2,-42 -19,-30 4,-34 -31,-21 -8,-28 -115,10 -16,85 8,162 33,226 36,97 -8,-65 57,119 41,118 11,73 51,133 6,10 17,-15 17,40 0,88 -44,-3 -40,80 2,42 22,-7 12,90l152 179c20,11 187,42 223,49z"/>
   <path class="fil10" d="M4289 5158l28 61 43 47 22 -29 49 -72 36 -82c34,-65 53,-70 82,-167l3 -69c-40,30 -18,-2 -47,52 -52,99 -148,133 -232,227l16 32z"/>
   <path class="fil10" d="M6546 5685l-50 0 -38 -60c-70,21 -48,29 -107,-10l-63 8 -11 -25c-4,6 -34,-2 24,87 66,101 161,81 245,0z"/>
  </g>
  <g id="_739308448">
   <path class="fil11" d="M4016 4239c87,-2 77,-4 79,79 -57,-16 -67,-24 -79,-79zm-896 1021c74,-1 55,15 116,17 65,1 68,-18 133,6 12,67 5,54 -23,84l-19 51c6,25 -5,18 19,13 44,-33 33,-76 71,-123l16 9c22,11 2,5 29,14 13,4 39,7 57,11l1 52 -75 10c13,55 63,58 -64,185 -34,34 -85,106 -102,168l39 -7c11,-30 15,-34 31,-53 0,-1 19,-21 21,-23 18,-17 4,-5 28,-20 31,-99 217,-209 272,-293l-90 -81c-79,-49 -346,-99 -411,-126 -9,-130 254,-430 311,-458l30 -38c50,21 46,23 70,53 102,127 26,104 101,190 32,38 11,-1 32,51 2,4 8,29 13,43 13,32 3,8 26,44 21,32 34,66 35,109 5,3 37,14 46,17l6 -232 101 43c33,22 16,12 33,31l29 -4 109 -17c-42,-79 -160,-128 -183,-191 -13,-37 -4,-37 -10,-72 -7,-41 -37,-73 -57,-261l122 10c6,-5 11,-11 25,-19 189,-99 74,-60 152,-149l41 -16c40,93 18,126 128,152 87,1 61,-1 98,-40l24 -20c1,-4 6,-3 12,-6l-12 -34c-20,-24 -5,43 -20,-31 -59,51 -82,-7 -90,-63 47,-7 67,1 107,-22 36,-19 38,-28 86,-10l0 -37c-52,-34 -91,8 -139,27 -45,18 -98,18 -152,28 -156,28 -158,-38 -327,-33l-48 -5 -40 -8c-3,-30 -8,-74 -4,-104 7,-46 2,-23 29,-61 -63,5 -9,25 -117,34 16,-63 40,-138 88,-166l138 -23c-52,-48 -71,-23 -123,-51 61,-20 141,17 171,48 4,-2 10,-4 13,-5 2,-1 8,-4 11,-5 66,-24 0,9 89,6 -6,-37 -10,-36 -27,-66 54,12 96,24 156,42l38 -42c38,13 34,14 60,38 21,-12 12,-8 24,-16 36,-23 37,-16 105,-16 7,60 8,21 25,84 -44,-11 -44,-19 -81,-28 -11,66 14,45 71,80 108,66 77,31 92,90l14 28c51,12 36,-19 54,128 3,2 7,3 9,4 57,29 37,0 50,38 9,23 6,30 -2,53 -10,30 -7,13 -24,32l-31 101c-2,17 -18,83 9,79l46 20c-36,-199 4,-91 21,-260 20,-188 36,-255 -9,-445 -20,-86 15,-79 -110,-180 -35,-28 -72,-44 -124,-29 -42,41 -52,88 -110,133 -86,66 -256,74 -350,-20 -50,-50 -49,-90 -84,-138 -42,-1 -18,-19 -81,58 -21,25 -52,55 -75,78 -72,70 -19,95 -126,170 -1,109 5,147 -45,214 -115,154 -27,254 -135,395 -76,99 -49,16 -87,174 -16,63 -124,186 -202,328l-113 151c-19,23 -29,53 -50,74 -23,23 -50,29 -66,56 79,7 81,4 155,-7z"/>
   <path class="fil11" d="M7958 5944c-30,1 -37,14 -64,34 -38,26 -30,22 -68,36l-155 118c-20,23 -2,8 -31,25l-31 10c51,160 81,108 24,289 -25,78 -76,202 -54,286 7,26 42,113 51,130 43,89 84,323 113,434l313 0 0 -1382c-50,20 -15,2 -48,4 -14,0 -12,0 -28,4 -3,1 -18,10 -22,12z"/>
   <path class="fil11" d="M7463 4419c10,-24 15,-31 35,-45 24,-18 22,-11 50,-34 51,-40 48,-31 133,-33 15,-19 -23,-46 111,-43 106,3 169,22 101,164 60,53 86,118 10,174 -37,-13 -24,-3 -42,-35 -38,19 -99,84 -108,121 56,-8 76,-22 127,-30 -3,93 -19,68 -112,90 -61,15 -51,31 -143,27l8 89c-33,160 -89,183 -78,374 -4,83 -2,61 50,60l45 5c35,28 15,-5 42,72 83,7 38,22 144,75 44,22 119,56 154,68l2 -341c-45,58 -10,55 -61,101 -55,-17 -44,-9 -70,-56 -18,-103 -95,7 -21,-341l114 16 -53 34 65 33c-3,25 -6,32 -14,57 18,13 8,2 26,3 28,-37 29,-1074 5,-1103 -19,-16 19,-9 -38,-19 -167,-28 -197,57 -234,86 -38,31 -255,98 -339,176 -71,66 -99,156 -12,225l74 58c17,-79 -7,-7 29,-28z"/>
   <path class="fil11" d="M4896 5971c6,75 -62,187 -102,227 -30,62 -58,64 -141,59 -82,-6 -102,-28 -183,-23 35,26 49,14 100,56l2 128 137 1 2 -112c64,93 2,58 53,124l53 0c27,-39 46,-149 67,-209 31,-91 25,-154 49,-236l-4 -56c-1,2 -15,23 -17,25l-16 16z"/>
  </g>
  <g id="_201829008">
   <path class="fil12" d="M4382 5237c48,5 13,-16 42,13 -6,26 -3,32 -18,57 -36,62 -4,16 -43,40 -27,15 -157,207 -162,270 56,12 340,-33 342,-33l104 6c9,64 -12,49 20,101 151,88 183,56 269,96 9,42 26,103 19,145 -14,84 -8,29 -22,54 -24,82 -18,145 -49,236 -21,60 -40,170 -67,209 -19,74 -219,24 -303,17l-86 91c-81,112 -103,266 -116,403l-44 15c54,238 22,23 80,207 19,59 28,61 37,142l1360 0c12,-60 79,-72 102,-149 -83,5 -27,10 -47,-25l24 -33c-30,-10 -27,-16 -43,-30l4 -172 -31 -174 34 -30 -54 -2c-9,63 20,142 32,213 -81,-28 -267,-78 -321,27l27 18c128,60 22,23 114,117 -29,65 -2,55 -30,100 -73,-13 -24,-95 -165,-165 20,32 33,51 67,70l-4 96c-19,16 -6,9 -33,25 -85,47 -96,19 -129,10l-56 44c-28,-33 -29,-27 -35,-93 -5,-48 -9,-68 -13,-115 24,-3 56,-5 79,-10l71 -31c-68,20 -82,43 -157,18 -25,-66 -3,-104 -47,-176 -31,-52 -10,-35 -28,-84 -19,-54 -28,-20 -49,-84 -9,-34 -72,-95 -91,-129 11,-180 81,-277 81,-486 1,-97 6,-192 7,-292 0,-93 14,-166 52,-234 -14,-39 -11,-10 -17,-65 -5,1 -19,2 -22,2l-26 -25c-21,-46 6,17 -8,-21 -28,-76 -17,-97 -7,-157l-45 -35c-25,45 -7,13 -40,30 0,43 -4,25 -29,44 -8,51 -1,104 37,150 0,0 36,19 36,72 0,3 -8,40 -9,43 -31,79 -37,-13 -163,46l-63 -62c-31,8 -22,-2 -41,29 -24,-56 -22,-27 -50,-58 -3,-2 -5,-5 -7,-8 -39,-49 10,-19 -60,-67 -38,-27 -38,-25 -59,-64 -11,-21 -21,-49 -29,-78 11,-5 0,-7 41,7 -21,-69 -24,-28 -2,-91 -15,-18 31,-26 -32,-10 -35,44 -20,42 -80,5l0 -52 -49 72z"/>
   <path class="fil12" d="M3398 5654l-66 110c86,-34 181,-186 283,-288 32,-33 52,-31 70,-55 22,-28 -1,-28 40,-71 0,0 26,-24 30,-26 32,-23 -18,-17 50,-16 8,88 -8,50 -30,109l50 97c-3,3 -6,4 -7,9l-9 18c-1,3 -3,7 -4,10 -40,106 -23,92 -15,171 -93,89 -99,17 -137,125 55,-5 75,-10 122,-31 146,-68 97,-17 105,-10 -15,18 -118,73 -143,83l1 -8c15,43 -5,12 35,44 2,2 7,3 10,6 -55,82 -42,-33 -39,207l9 174 89 42c156,64 29,12 162,101l-21 45 108 104c39,51 3,85 61,157l45 82c61,-3 20,17 68,-20 51,-40 52,-206 127,-279 89,-86 41,-72 97,-91 38,-13 42,20 60,-48 40,-143 -67,-126 -145,-159 -42,-18 -2,1 -19,-9 -31,-18 -8,-4 -26,-20 -29,-11 -10,2 -35,-26 -5,-6 -31,-39 -31,-39 -31,-51 4,-42 -43,-90l-55 -20 13 83c-112,5 -94,60 -166,14l42 -29c100,-62 36,-26 119,-55l-8 -86c-25,-42 -37,-29 -68,-69 -34,-45 -18,-58 -72,-36 -6,-70 -20,-73 -74,-93l28 -67 -68 -18c-2,-1 -6,-3 -9,-5 26,-37 15,-20 77,-35 86,-21 21,6 90,-5l17 -146c-49,70 -14,97 -47,129 -71,-266 3,-295 8,-360 2,-21 -1,-40 2,-70 -50,-41 -117,-118 -131,-175l58 10 -4 -26 -29 4 -48 -6c-19,60 -21,25 -40,82 30,57 55,54 85,98l-39 13c-19,4 -22,1 -48,8 -50,14 -38,30 -74,31l-22 -85c-1,-43 -14,-77 -35,-109 -23,-36 -13,-12 -26,-44 -5,-14 -11,-39 -13,-43 -121,-39 -108,-96 -114,-130 -94,-22 -13,-35 -111,-43 5,-58 32,-76 -8,-83 -57,28 -320,328 -311,458 65,27 332,77 411,126l90 81c-55,84 -241,194 -272,293z"/>
   <path class="fil12" d="M2850 5458c15,-53 3,-29 29,-41l-12 0c-55,26 -68,96 -68,166 1,77 -9,146 -16,205l-6 59 67 17c12,64 32,77 29,135l-77 18c-5,96 31,102 29,169l-107 14c-45,4 -59,30 -106,53 -42,21 -65,40 -112,53l0 1000 103 0 52 -168c21,-68 0,-47 79,-142 45,-55 23,-24 100,-77 57,-40 31,-7 75,-38 82,-57 -1,-24 102,-48l80 -31c74,-40 75,-55 83,-116 55,30 30,7 44,-5l-9 -115c-78,-59 -56,-46 -92,-101 -12,-19 -25,-18 -23,-34 27,-58 -13,-97 -17,-155 -13,-154 12,-120 28,-165l-48 -42 55 -7 -21 -34 120 -42c-19,-69 -28,-56 -30,-69 30,-186 30,-390 69,-597 -75,18 -56,18 -90,74l-135 245 17 332c6,60 22,31 0,98 -70,-21 -33,32 -65,-65l-61 -226c-88,-140 -75,-155 -66,-320z"/>
   <path class="fil12" d="M4451 4340l40 0c-12,150 -12,36 17,99 -38,18 -139,48 -179,1 -110,-26 -88,-59 -128,-152l-41 16c1,56 -10,72 -14,127 -7,101 -14,52 -36,111l79 53c-55,69 -67,22 -66,98 1,3 3,9 4,13 92,31 171,9 220,11l7 52c-14,-26 14,-31 -104,-28 -17,0 -56,-2 -70,0l-63 23c23,36 -36,26 130,31 -108,65 -187,-63 -152,139l124 39c-37,46 -31,-6 -78,55 23,55 -1,21 50,55 -42,25 -35,4 -116,-16 32,31 64,50 108,59l-10 44c66,-19 54,-28 116,-12l-16 -32c84,-94 180,-128 232,-227 29,-54 7,-22 47,-52l-3 69 -9 -185c3,-56 27,-117 45,-177 22,-32 -33,-20 58,-34 -4,-41 -33,-111 13,-111l31 -101 14 -96c-91,55 -46,123 -90,171 -22,-50 33,-37 -20,-98 -17,55 -23,86 -61,123 10,-81 20,-168 -58,-126 -26,30 -28,-51 -21,58z"/>
   <path class="fil12" d="M4432 5861l-15 14c3,72 -8,15 28,68l50 11c-13,33 -41,45 -44,60 -1,2 18,156 76,184 105,51 168,47 267,0 40,-40 108,-152 102,-227 6,-46 15,-90 1,-138 -28,-13 -97,-53 -114,-59 -73,-25 -85,9 -118,-58l-179 -7c-3,6 -18,34 -18,35 -10,22 -3,-11 -12,38 45,20 38,4 69,37 -43,33 -34,15 -93,42z"/>
   <path class="fil12" d="M3916 4199c169,-5 171,61 327,33 54,-10 107,-10 152,-28 48,-19 87,-61 139,-27l87 28c13,-63 -4,-98 -21,-152l-14 -28c-98,-34 -169,-69 -281,-60 -114,10 -203,0 -319,7l4 -4c-38,103 -82,77 -74,231z"/>
   <path class="fil12" d="M7812 5517c-17,24 -28,31 -34,75 -46,0 -45,-8 -90,-13 -46,-5 -18,-13 -69,18 10,41 25,34 29,43l-22 4c20,73 23,32 15,91 -66,24 -46,21 -56,-44l-36 14c-21,-6 -14,-8 -14,15l44 -25 -19 96c31,15 70,50 95,93 63,108 51,83 104,93l-12 -55c-24,-53 -27,-16 -24,-104 84,33 5,82 108,150l-5 46c38,-14 30,-10 68,-36 27,-20 34,-33 64,-34 34,-105 -25,-55 2,-252 14,-103 -37,-115 -80,-195 -55,5 -32,2 -68,20z"/>
   <path class="fil12" d="M6792 7306l229 0c-13,-50 -8,-54 -15,-111 -9,-82 -12,14 -24,-83 -8,-63 0,-168 -2,-237 -58,-30 -29,22 -43,-48 -2,56 -5,22 -20,40 -58,-7 -41,-19 -87,-1l-3 -70 -14 12c-7,51 -5,85 -7,137 -2,47 -17,68 -22,109 -11,92 8,170 8,252z"/>
   <path class="fil12" d="M7681 4307c-85,2 -82,-7 -133,33 -28,23 -26,16 -50,34 -20,14 -25,21 -35,45 74,24 110,-24 162,-69l96 9 26 52c-10,45 -35,56 -50,64 -1,1 -12,2 -30,11 -1,168 -82,72 16,167 -46,41 -22,34 -87,65l-54 -33c-60,36 -6,37 -87,38 -17,-117 24,-190 11,-276 -49,30 -40,244 -41,310 87,-4 52,2 117,-30l43 77 22 -58c12,-3 48,-9 56,-13 50,-31 3,0 29,-43 23,-37 52,-41 71,-79 41,-83 -3,-127 83,-208l-15 -111 -150 15z"/>
   <path class="fil12" d="M6001 6235l53 12c113,9 117,-39 196,-88 58,27 13,9 50,31l20 -64c-93,-17 -58,-23 -114,-44 -76,-29 -62,11 -134,-14 -86,-31 -53,-19 -141,-20 -81,-1 -94,-26 -153,21 169,113 128,182 223,166z"/>
   <path class="fil12" d="M3694 6625c69,40 80,65 152,86 77,22 118,39 202,22 -10,-33 -61,-62 -87,-110 -86,-160 -50,-70 -142,-165 -138,36 -139,-37 -125,167z"/>
   <path class="fil12" d="M3522 6357c-22,-1 -153,35 -97,-83l28 -43c1,-2 3,-6 5,-9l97 -1c-34,122 -83,-64 -33,136zm109 -259c14,24 16,29 32,55 -50,34 -194,74 -209,35 -34,-18 -21,-30 -90,-34l6 -29c-31,22 -20,-29 -26,28l92 52c-20,27 35,18 -47,22l-44 8c22,201 -19,63 10,219 24,-2 23,14 74,-22 55,-38 -3,-18 57,-34l11 41c29,-20 15,3 27,-36 9,-28 3,-26 -2,-46l10 -36c0,-3 2,-8 3,-10l7 -19c37,57 5,30 69,54 -26,-70 -39,-34 -46,-100 50,15 29,16 74,32 -9,-29 -3,-21 -24,-37 30,4 11,-8 39,9l30 31c2,3 6,7 9,11l-2 -56c20,-22 23,-20 36,-55 -17,-45 -27,-39 -45,-86l-51 3z"/>
   <path class="fil12" d="M3603 6807l-47 12 36 -87c-103,22 -82,50 -162,-8 30,-111 12,-127 104,-188 -76,4 -35,16 -79,-8 22,-46 -5,-29 58,-50l-56 -7c59,-20 -10,8 24,-29l-63 6c-90,123 -4,83 -56,164 -72,112 1,60 -28,138 -3,9 -3,-8 -13,28 37,27 66,52 123,55l28 -53 62 4c1,7 10,15 12,18 17,20 -9,-2 23,26 70,-4 7,3 34,-21z"/>
   <path class="fil12" d="M3346 5431c-11,31 -19,53 -19,97 -42,28 -13,-9 -43,35 -26,39 -38,162 -31,210 8,-24 3,-2 26,-16 17,-62 68,-134 102,-168 127,-127 77,-130 64,-185l75 -10 -1 -52c-18,-4 -44,-7 -57,-11 -27,-9 -7,-3 -29,-14l-16 -9c-38,47 -27,90 -71,123z"/>
   <path class="fil12" d="M7531 5437c77,11 28,26 122,27 37,44 31,86 132,90 -6,-141 -64,-60 -109,-145l-22 -21 -4 -85 -45 -5 -47 52c-59,-14 -107,-36 -155,11 8,50 26,69 128,76z"/>
   <path class="fil12" d="M6725 4562c41,107 124,307 -52,340l-2 1 -6 41 54 -10c2,102 -2,28 17,56 67,-30 40,0 47,-44 19,-132 -52,66 22,-90 102,-213 19,36 0,-344l-85 6 5 44z"/>
   <path class="fil12" d="M5204 5638l1 29c45,39 29,10 61,55l81 -6c16,-23 12,-4 19,-45 2,-14 3,-34 3,-47 -1,-69 -5,-22 -22,-89l-32 -14 32 90 -89 -38c-19,-10 7,-1 -25,-5 -2,51 -8,44 -29,70z"/>
   <path class="fil12" d="M3610 5761c51,-34 49,-28 65,-94 15,-57 36,-87 33,-144l0 -74 -45 73c-13,19 -41,57 -46,69 -20,42 -8,43 -26,86l-35 99 54 -15z"/>
   <path class="fil12" d="M3658 6718c23,-25 14,-19 55,-30 -8,74 -18,34 -24,95l6 64c68,5 53,10 108,34l8 -61 -12 -61 37 -9c-4,-2 -8,-4 -11,-5 -2,-1 -7,-3 -10,-4l-57 -28c-39,-32 -16,-31 -77,-46 -27,29 -37,-45 -23,51z"/>
   <path class="fil12" d="M3503 7306l172 0c10,-21 14,-33 24,-64l-22 14c-47,23 4,-4 -147,22 41,-83 33,-10 62,-86 8,-20 2,-4 3,-36 -117,1 -95,45 -92,150z"/>
   <path class="fil12" d="M3983 4472c-33,14 -20,3 -39,8 -93,25 67,-29 -25,7l-22 13c43,27 36,9 70,28 -26,67 3,51 -42,117l82 -4 30 -173 -54 4z"/>
   <path class="fil12" d="M3494 7115l119 -15c20,-18 2,-5 24,-19l-16 -78 -43 6c-38,49 -60,36 -84,106z"/>
   <path class="fil12" d="M3327 5418l19 -51 18 -75c-70,11 -61,-13 -82,52 -9,28 -8,78 -8,107l23 -12c8,-5 26,-17 30,-21z"/>
  </g>
  <g id="_741125728">
   <path class="fil13" d="M3197 3862c233,7 480,18 607,-308 46,-118 53,-278 34,-419 -31,-230 -137,-275 -158,-318l-250 -123c-322,-155 -169,-409 -32,-381 96,19 123,110 134,231l280 16 -4 -152c-8,-69 -24,-136 -49,-194 -29,-66 -84,-110 -103,-153 -122,-57 -161,-116 -350,-117 -488,-2 -466,677 -321,904 136,213 478,227 546,370 132,280 -301,476 -324,31l-332 0c-11,175 41,416 168,527 60,53 94,48 154,86z"/>
   <path class="fil13" d="M4137 3027c-13,-112 9,-240 127,-230 59,57 76,128 72,233l-199 -3zm-192 542c35,48 34,88 84,138 94,94 264,86 350,20 58,-45 68,-92 110,-133 19,-71 48,-147 43,-235 -34,0 -68,0 -102,1 -48,1 -51,-3 -84,14 -38,81 -29,167 -152,151 -53,-49 -88,-166 -61,-266l407 -7c9,-156 -15,-378 -71,-499 -156,-337 -735,-277 -524,816z"/>
   <path class="fil13" d="M4724 2675c-184,221 -176,643 -96,864 44,123 168,242 325,137 105,-70 157,-239 145,-398l-164 2c-20,95 1,180 -87,204 -72,-46 -67,-200 -67,-303 -1,-104 -7,-241 53,-314 88,-4 89,61 95,148l174 6c-9,-227 -117,-509 -378,-346z"/>
   <path class="fil13" d="M5673 3050c-4,-95 0,-154 63,-180 56,36 62,110 57,185l-120 -5zm-129 300c21,435 394,327 368,-39 -217,-5 -49,53 -176,131 -73,-25 -71,-113 -68,-206l243 -7 11 -177c-34,-51 4,-144 -75,-276 -52,-88 -158,-104 -222,-26 -114,138 -91,397 -81,600z"/>
   <path class="fil13" d="M6622 2746c21,34 17,13 23,88l26 283 -94 -2 45 -369zm-201 792l100 -3c19,-64 11,-116 24,-173 13,-59 79,-42 150,-43l27 199 96 -7c6,-77 -107,-952 -132,-1030l-117 -13 -148 1070z"/>
   <path class="fil13" d="M5190 3069l2 576 156 -6c14,-152 -17,-438 20,-554 25,-121 42,-85 121,-127l-4 -277c-98,6 -101,62 -132,149 -2,-55 4,-85 -15,-132l-150 -9 2 380z"/>
   <path class="fil13" d="M6972 3322c-60,-51 -43,-215 -34,-292 10,-84 28,-70 34,-75 20,15 10,-8 28,31 2,3 8,36 9,43l0 220c-1,6 -7,39 -9,43 -23,52 -3,12 -28,30zm112 209c3,-142 24,-586 -1,-698 -68,-20 -58,-1 -85,35 -15,-52 -5,-35 -40,-67l-42 9c-97,116 -115,574 15,666 48,-10 21,9 68,-48 2,-2 6,-6 7,-8 2,-1 5,-5 7,-7 2,77 11,159 -41,196 -72,-40 20,-82 -108,-67 -6,97 15,150 48,209 142,19 166,-96 172,-220z"/>
   <path class="fil13" d="M6016 2966c1,230 -57,628 109,629 105,1 78,-77 76,-178 -14,-11 -9,-8 -32,-19 0,0 -19,-7 -24,-9 -21,-95 -12,-311 -9,-417 37,-27 34,-11 65,-28l-6 -176 -48 -10c-18,-43 -11,-69 -11,-119 -1,-37 -2,-69 -6,-105 -43,12 -74,50 -114,89l-2 113 -63 28 2 167 63 35z"/>
   <path class="fil13" d="M7200 3014c2,-26 11,-45 22,-65 32,11 29,-3 38,57 13,79 2,54 -24,69 -35,-14 -41,34 -36,-61zm-64 303c29,290 199,192 187,-55 -103,8 -31,17 -87,89 -45,-16 -7,12 -17,-17 -35,-36 -32,-82 -19,-133l125 -2c5,-81 -5,-500 -142,-351 -68,74 -51,350 -47,469z"/>
   <path class="fil13" d="M7365 3180l-1 276 62 0c11,-107 -19,-409 32,-464 40,74 0,353 28,453l42 3c22,-45 11,-99 14,-174 0,-134 28,-351 -56,-428 -144,44 6,7 -122,9l1 325z"/>
   <path class="fil13" d="M7598 3296c-1,75 -3,108 31,157l46 -11c18,-154 -15,-83 -21,-177 -4,-48 -3,-148 -1,-197 5,-103 10,-18 28,-84 23,-85 -23,-81 -28,-164 -2,-33 1,-62 -2,-99 -71,53 -34,43 -57,123 -3,11 -51,61 -24,140 17,52 -4,-17 16,27 22,50 10,225 12,285z"/>
  </g>
  <g id="_736132816">
   <path class="fil14" d="M6149 4781c22,49 -2,16 -10,30 -36,-19 -32,-8 -14,-47 31,12 10,-14 24,17zm-447 -138c23,-78 62,-109 186,-126 -9,82 -32,42 -125,109 -40,28 -38,18 -61,17zm-397 -157c-48,23 -11,-4 -19,33 22,59 21,28 12,106 -38,17 -46,12 -43,67 3,58 0,-12 -32,136l-16 36c-67,169 -12,153 17,342 10,70 -7,48 -1,113 6,59 19,78 19,129l26 73 47 0 32 14c78,5 20,13 56,-38 67,-94 -32,-3 118,-129 19,-15 61,-56 83,-81 36,-43 46,-58 95,-86 75,-67 123,-148 138,-251 52,-8 54,-19 107,-22 58,-3 83,14 132,0 96,-16 50,-54 157,-22l44 19c-3,-38 -13,-55 -27,-81 85,3 42,36 90,104l19 -90c87,14 38,53 113,15l28 64c103,-74 81,-49 173,-35 176,-33 93,-233 52,-340 -29,-21 -7,5 -26,-24 -7,-11 -9,-19 -14,-32l-45 -30c-10,17 -9,4 -1,25l9 23 18 86c-2,2 -6,5 -8,7l-12 14c-32,42 30,6 -35,39l-83 -78c-20,-16 -38,-44 -53,-29 7,17 14,43 12,78 -25,-7 -40,-15 -56,-24 -59,-36 -2,77 -19,-33l12 -70c-18,-16 14,-5 -39,-30 -25,-11 -90,-18 -69,12 42,31 25,16 55,60 -70,150 -96,41 -246,67 28,28 39,32 71,58 -26,22 -22,16 -71,23 -13,56 -9,46 -72,44 5,-80 -4,-92 11,-137l68 -90c-9,-52 -20,-44 -17,-77l21 -41c6,-41 -31,-31 -61,-42 27,-37 -16,10 25,-17l34 -25c-11,-74 3,-23 -33,-69 44,-45 51,-35 85,-63 81,-65 72,-23 189,-32 24,21 19,21 44,39 17,13 18,10 38,28l-33 21c-103,70 -92,14 -101,7 19,-44 -4,-17 35,-38l32 -4c-64,-32 -80,-6 -89,-5 -52,6 -30,-11 -100,-12 -14,42 -34,89 -26,136 44,-15 22,-5 50,-36 36,-39 -25,-5 39,-33l26 93 85 12c23,40 74,118 135,119l-3 -36c40,-23 22,0 57,-47 -51,7 -60,16 -104,-9 -45,-26 -45,-41 -54,-81 60,23 56,24 122,24 20,38 9,46 69,47 55,-87 -21,-257 -152,-297 -177,-53 -92,-6 -124,-55 35,-14 28,-13 80,-1 -70,-118 -468,-104 -529,-69 -83,46 -151,73 -205,124 -27,26 -25,27 -66,44 -26,10 -22,7 -38,16 -39,21 -39,33 -49,48 -1,1 -2,5 -2,6 -24,31 -34,-15 -65,81 -65,200 -22,40 -133,197 -2,3 -6,8 -9,12z"/>
   <path class="fil14" d="M4173 5170c-10,24 -34,44 -34,80 -1,47 20,36 28,84 11,62 -30,118 -51,161l-17 146c-69,11 -4,-16 -90,5 -62,15 -51,-2 -77,35 3,2 7,4 9,5l68 18 -28 67c54,20 68,23 74,93 54,-22 38,-9 72,36 31,40 43,27 68,69l55 93c47,48 12,39 43,90 0,0 26,33 31,39 25,28 6,15 35,26l71 16c-7,-96 21,-67 29,-94 -4,-77 -16,-50 -25,-98 -8,-48 6,-60 11,-98 -36,-53 -25,4 -28,-68l15 -14 15 -71c-127,-14 39,10 -184,32 -27,47 -10,57 -69,75 -56,-84 23,-24 23,-152 124,-68 152,-23 269,-36l179 7c10,-11 18,8 2,-25 -32,-52 -11,-37 -20,-101l-104 -6c-2,0 -286,45 -342,33 5,-63 135,-255 162,-270l18 -60c-122,-1 -11,1 -91,43l-23 -38c43,-55 37,-1 50,-37 2,-5 8,-3 11,-5l-11 -31 -28 -61c-62,-16 -50,-7 -116,12z"/>
   <path class="fil14" d="M6566 6837c-11,31 18,12 -24,30 27,28 21,25 21,74 47,-21 12,-6 35,-20 16,-10 8,-8 27,-17 44,60 -5,18 55,31 -9,-57 -3,-2 -28,-60 61,-53 -65,52 30,-18 33,-24 16,22 17,-21 -25,-45 -36,-47 -102,-48 -12,13 -8,6 -21,26 0,0 -9,21 -10,23z"/>
   <path class="fil14" d="M5691 5520c79,27 64,4 115,-19 49,16 17,12 37,19 35,11 1,8 43,2l16 6c21,-31 -13,-14 34,-35 -9,-9 -2,-27 -79,-45 -159,-39 -98,32 -166,72z"/>
   <path class="fil14" d="M4038 4583c30,28 56,51 98,28 -12,-42 -7,-24 -47,-55 -6,-84 21,-37 -20,-91 -2,4 -5,5 -6,11 -3,21 -26,27 -25,107z"/>
  </g>
  <g id="_739409488">
   <path class="fil15" d="M6916 2810l42 -9c35,32 25,15 40,67 27,-36 17,-55 85,-35 25,112 4,556 1,698 60,-146 -26,-374 27,-520 13,41 4,90 3,142 0,26 0,58 2,83 1,10 3,34 5,43 8,35 11,30 15,38 -4,-119 -21,-395 47,-469 137,-149 147,270 142,351l-125 2c-13,51 -16,97 19,133l-19 -111c34,-6 69,-3 91,-8 42,-9 44,-26 74,-35l-1 -325c128,-2 -22,35 122,-9 84,77 56,294 56,428 26,0 4,-8 30,4 5,2 21,14 26,18 -2,-60 10,-235 -12,-285 -20,-44 1,25 -16,-27 -27,-79 21,-129 24,-140 23,-80 -14,-70 57,-123 3,37 0,66 2,99 5,83 51,79 28,164 -18,66 -23,-19 -28,84 -2,49 -3,149 1,197 6,94 39,23 21,177 31,-19 12,-6 16,-52 2,-22 2,-51 4,-76 99,37 240,46 361,47l0 -1611 -1261 0c-17,161 -101,249 -50,573 15,100 29,166 69,253 15,35 33,80 51,114 32,59 52,55 51,120z"/>
   <path class="fil15" d="M2500 3636c54,34 133,191 275,244 280,105 224,2 422,-18 -60,-38 -94,-33 -154,-86 -127,-111 -179,-352 -168,-527l332 0c23,445 456,249 324,-31 -68,-143 -410,-157 -546,-370 -145,-227 -167,-906 321,-904 189,1 228,60 350,117 3,-122 -34,-204 -40,-311l-1116 0 0 1886z"/>
   <path class="fil15" d="M6568 6196c11,36 -29,29 94,35 -34,68 -186,132 -233,197 -114,159 -150,24 -338,329 -30,49 -48,93 -85,139 -47,59 -18,-2 -49,60 -19,38 -19,36 -40,71 -14,24 -64,111 -70,130 -23,77 -90,89 -102,149l1047 0c0,-82 -19,-160 -8,-252 5,-41 20,-62 22,-109 2,-52 0,-86 7,-137 -61,3 -20,-6 -63,42 -39,-6 -17,3 -51,-14 -1,43 16,-3 -17,21 -95,70 31,-35 -30,18 25,58 19,3 28,60 -2,4 -6,4 -7,10l-24 26c-64,59 -86,16 -115,65 -32,-40 -17,-15 -62,-36l9 -91c-47,-17 -16,2 -36,-34l34 -5 -13 -37c67,-101 18,-21 40,-118l25 -97c6,-51 182,-60 205,-14 21,19 20,73 20,110l-37 8c-13,35 -12,16 -7,56 53,26 67,-10 76,-60l39 6c20,-21 8,2 21,-29l39 -102 16 -67 40 -14c81,-204 396,9 501,55 -4,-10 -11,-29 -12,-35 0,-4 1,-28 1,-30 -15,-147 -44,-136 -89,-180 -124,-119 -54,-95 -145,-134l-59 -28c-204,-86 -255,11 -427,40 -58,10 -93,-5 -145,-4z"/>
   <path class="fil15" d="M4724 2675c261,-163 369,119 378,346l-174 -6 20 10c89,26 137,-7 242,44l-2 -380 150 9c19,47 13,77 15,132 31,-87 34,-143 132,-149l4 277c-79,42 -96,6 -121,127l149 4 14 230c9,37 7,20 13,31 -10,-203 -33,-462 81,-600 64,-78 170,-62 222,26 79,132 41,225 75,276l6 -73 88 -13 -63 -35 -2 -167 63 -28 2 -113c40,-39 71,-77 114,-89 4,36 5,68 6,105 0,50 -7,76 11,119l48 10 -15 -17c-2,-2 -13,-12 -17,-15 1,-179 13,-237 -206,-373 -391,-241 -1205,-127 -1233,312z"/>
   <path class="fil15" d="M5347 5535c17,67 21,20 22,89 0,13 -1,33 -3,47 -7,41 -3,22 -19,45l-81 6 -2 9c-50,-24 -45,-6 -60,5 33,103 67,25 136,91 24,22 29,33 45,65 32,61 0,19 54,52 16,145 51,142 106,244 22,40 40,77 35,129 -15,145 -70,129 -112,149l-150 101c-37,27 -82,29 -130,52 -66,30 -45,34 -91,71 -7,-4 -40,-19 -40,-19 21,64 30,30 49,84 18,49 -3,32 28,84 44,72 22,110 47,176 75,25 89,2 157,-18l53 4c141,70 92,152 165,165 28,-45 1,-35 30,-100 -92,-94 14,-57 -114,-117l-27 -18c54,-105 240,-55 321,-27 -12,-71 -41,-150 -32,-213l54 2c31,-22 46,-31 66,-64l-38 2c22,-29 -4,-7 39,-34 -2,-4 -6,-8 -7,-11l-11 -22c-1,-3 -3,-6 -3,-11 -1,-6 -2,-8 -3,-11 27,-16 35,-26 66,-37 -13,-85 -46,-64 54,-85 -45,-33 -39,-18 -80,-31 -27,-9 -34,-13 -53,-27 -124,-84 -173,-104 -220,-212 -1,-3 -3,-7 -5,-9 -1,-3 -3,-7 -4,-10 -15,-36 -9,-52 26,-86 29,-27 16,-11 48,-31 1,-120 -6,-59 -42,-135l-98 -413c66,-28 52,-2 70,-82 28,30 24,-45 24,60l74 -17 0 -61 -30 -8c23,-12 2,2 28,-18l19 -19 -44 -20c21,-24 21,-41 35,-100 -49,28 -59,43 -95,86 -22,25 -64,66 -83,81 -150,126 -51,35 -118,129 -36,51 22,43 -56,38z"/>
   <path class="fil15" d="M5177 1750l-1184 0 2 47c106,75 182,168 313,213 24,8 68,21 86,26 52,16 148,24 203,23 229,-1 384,-83 539,-228 39,-36 30,-10 41,-81z"/>
   <path class="fil15" d="M3680 2817c-26,-58 -19,-187 1,-245l135 1c18,-70 12,-119 -8,-165l4 152 -280 -16c-11,-121 -38,-212 -134,-231 -137,-28 -290,226 32,381l250 123z"/>
   <path class="fil15" d="M4941 5259c33,-17 15,15 40,-30l45 35c-10,60 -21,81 7,157 14,38 -13,-25 8,21l26 25c3,0 17,-1 22,-2 6,55 3,26 17,65 52,-23 32,-29 86,-28 19,58 17,62 12,136 21,-26 27,-19 29,-70 32,4 6,-5 25,5l89 38 -32 -90 -47 0 -26 -73c-107,-85 -70,-235 -81,-362l-57 1c-14,19 -38,81 -48,106 -50,-25 -48,-70 -81,-66 -35,4 -29,99 -34,132z"/>
   <path class="fil15" d="M3810 7191c0,-61 7,-204 27,-255 25,-64 6,-31 38,-52 26,35 14,44 39,102 22,52 16,54 12,123 -13,8 -52,22 -62,29 -43,29 -19,76 -42,42 -3,-3 -8,8 -12,11zm1 -371l-8 61c-55,-24 -40,-29 -108,-34l-6 -64c-32,32 -78,113 -82,164 77,-31 59,-87 164,-53l-98 86 50 -14c-28,95 15,142 -15,268 28,-19 15,14 35,-39 20,-52 -13,-128 0,-209l51 -25 -7 260c131,-4 27,-33 102,-55 18,-6 36,-2 55,-1l30 55c10,11 38,27 59,38 -38,-183 17,-152 57,-306 26,-99 28,-67 54,-84 -9,62 -40,144 -19,187 32,-24 58,-138 67,-182 32,9 27,5 56,18l-9 -39 26 -29c-48,37 -7,17 -68,20l-45 -82 18 58c-41,35 -46,9 -74,55 -29,47 -69,216 -124,263 -13,-19 -21,12 -23,-95 -4,-157 -6,-77 -31,-141 -11,-27 -5,-38 -15,-62 -39,10 -20,19 -84,32 -13,-24 -40,32 -8,-51z"/>
   <path class="fil15" d="M2867 5417l12 0c-26,12 -14,-12 -29,41 19,-19 7,-1 53,-13 0,43 -13,150 -12,158 4,37 44,84 40,114 4,-79 81,-170 124,-218l105 -218 -40 2c-82,13 -57,27 -174,25l-79 109z"/>
   <path class="fil15" d="M6364 1750l-377 0c41,248 341,238 377,0z"/>
   <path class="fil15" d="M7861 5222l59 19c45,-78 -12,-33 52,-102 38,-41 37,-42 12,-103 -1,-4 -4,-8 -6,-12 -18,-1 -8,10 -26,-3 8,-25 11,-32 14,-57l-65 -33 53 -34 -114 -16c-74,348 3,238 21,341z"/>
   <path class="fil15" d="M3480 4696c40,7 13,25 8,83 98,8 17,21 111,43 6,34 -7,91 114,130 -21,-52 0,-13 -32,-51 -75,-86 1,-63 -101,-190 -24,-30 -20,-32 -70,-53l-30 38z"/>
   <path class="fil15" d="M5968 5918l20 49c70,20 107,25 179,0l64 -23c-1,-32 5,-16 -9,-34 -122,10 -133,-83 -218,-17l-36 25z"/>
   <path class="fil15" d="M5673 3050l120 5c5,-75 -1,-149 -57,-185 -63,26 -67,85 -63,180z"/>
   <path class="fil15" d="M4665 5716c33,67 45,33 118,58 17,6 86,46 114,59 14,48 5,92 -1,138l16 -16c2,-2 16,-23 17,-25l4 56c14,-25 8,30 22,-54 7,-42 -10,-103 -19,-145 -86,-40 -118,-8 -269,-96 16,33 8,14 -2,25z"/>
   <path class="fil15" d="M3744 6138c-3,-240 -16,-125 39,-207 -3,-3 -8,-4 -10,-6 -40,-32 -20,-1 -35,-44 -53,23 -147,31 -88,122 34,54 32,-11 88,122 2,4 4,9 6,13z"/>
   <path class="fil15" d="M4112 7306l38 0c76,-148 -15,-101 54,-201 10,-15 59,-66 32,-116 -102,73 -117,186 -124,317z"/>
   <path class="fil15" d="M4250 6062l-55 -93 8 86c-83,29 -19,-7 -119,55l-42 29c72,46 54,-9 166,-14l-13 -83 55 20z"/>
   <path class="fil15" d="M7236 3075c26,-15 37,10 24,-69 -9,-60 -6,-46 -38,-57 -11,20 -20,39 -22,65 -5,95 1,47 36,61z"/>
  </g>
  <path class="fil16" d="M6719 6722l37 -8c0,-37 1,-91 -20,-110 -54,-11 -60,-13 -113,7 59,13 48,16 103,56 -17,73 2,5 -22,55l15 0z"/>
  <path class="fil17" d="M7222 5667l41 19c17,-35 14,0 10,-55 -44,2 -47,-6 -51,36z"/>
 </g>
</svg>
